<?xml version="1.0" encoding="utf-8"?>
<!-- Generator: Adobe Illustrator 21.0.0, SVG Export Plug-In . SVG Version: 6.00 Build 0)  -->
<svg version="1.1" id="Layer_1" xmlns="http://www.w3.org/2000/svg" xmlns:xlink="http://www.w3.org/1999/xlink" x="0px" y="0px"
	 viewBox="0 0 70.2 29.9" style="enable-background:new 0 0 70.2 29.9;" xml:space="preserve">
<style type="text/css">
	.st0{fill:#53A194;stroke:#000000;stroke-width:0.25;stroke-miterlimit:10;}
	.st1{fill:#F2B91D;stroke:#000000;stroke-width:0.25;stroke-miterlimit:10;}
	.st2{fill:#1FB4C2;stroke:#000000;stroke-width:0.25;stroke-miterlimit:10;}
	.st3{fill:#939391;stroke:#000000;stroke-width:0.25;stroke-miterlimit:10;}
	.st4{fill:#FF6800;stroke:#000000;stroke-width:0.25;stroke-miterlimit:10;}
</style>
<title>Asset 1</title>
<g id="Layer_1-2">
	<path class="st0" d="M15,1.9C7.8,1.9,1.9,7.7,1.9,15S7.8,28.1,15.1,28c7.2,0,13-5.8,13.1-13C28.2,7.8,22.3,1.9,15,1.9
		C15,1.8,15,1.8,15,1.9z M15,27C8.3,27,2.9,21.6,2.9,14.9S8.3,2.8,15,2.8s12.1,5.4,12.1,12.1C27.1,21.6,21.7,27,15,27z"/>
	<path class="st1" d="M38.4,7.7c0-1.8-1.5-3.2-3.3-3.2c-1.8,0-3.2,1.5-3.2,3.3c0,1.8,1.5,3.2,3.2,3.2C36.9,11,38.4,9.6,38.4,7.7
		C38.4,7.8,38.4,7.8,38.4,7.7z M35.2,10C33.9,10,33,9,33,7.8c0-1.2,1-2.2,2.2-2.2c1.2,0,2.2,1,2.2,2.2c0,0,0,0,0,0
		C37.4,9,36.4,10,35.2,10z"/>
	<path class="st2" d="M55.2,1.9C48,1.9,42.1,7.7,42.1,15S48,28.1,55.2,28.1c7.2,0,13.1-5.8,13.1-13.1C68.3,7.8,62.5,1.9,55.2,1.9
		C55.2,1.9,55.2,1.9,55.2,1.9z M55.2,27.1c-6.7,0-12.1-5.4-12.1-12.1S48.5,2.8,55.2,2.9S67.3,8.3,67.3,15
		C67.3,21.6,61.9,27,55.2,27.1L55.2,27.1z"/>
	<path class="st3" d="M66.1,4.2C63.4,1.4,59.6,0,54.7,0c-2.2,0-4.3,0.5-6.2,1.5c-0.9,0.5-1.7,1-2.7,1.4c-1.7,0.7-3,2-3.8,3.6
		l-1.1-0.4c-0.9-3.1-4.1-5-7.3-4.1c-2,0.5-3.5,2.1-4.1,4l0,0l-1.2,0.4c-0.8-1.6-2.2-2.9-3.9-3.6c-0.9-0.4-1.8-0.9-2.7-1.4
		c-1.9-1-4.1-1.5-6.2-1.5l0,0C10.7,0,6.8,1.4,4.2,4.2C-0.2,8.7,0,15,0,15.3c0.8,14.4,14.5,14.6,14.7,14.6H15
		c3.7,0.1,7.3-1.3,10.1-3.7c0.7-0.7,1.5-1.3,2.3-1.7c4.8-2.2,3.9-7.9,3.3-10.3c0.4-0.5,0.9-1,1.4-1.4c1.8,1.1,4.2,1.1,6,0
		c0.5,0.4,1,0.8,1.4,1.3c-0.6,2.3-1.5,8,3.3,10.3c0.9,0.4,1.7,1,2.3,1.7c2.8,2.5,6.4,3.8,10.1,3.7h0.3c0.1,0,13.9-0.2,14.7-14.6
		C70.2,15,70.4,8.7,66.1,4.2z M27,23.6c-1,0.5-1.9,1.1-2.6,1.9c-2.6,2.2-5.9,3.5-9.4,3.4h-0.3c-0.5,0-13-0.2-13.7-13.7
		C1,15.2,0.9,9,4.9,4.9C7.4,2.3,10.9,1,15.5,1c2,0,3.9,0.4,5.7,1.3c0.9,0.5,1.8,1,2.8,1.4c2.1,0.8,3.6,2.7,4,4.9
		c0.4,1.6,0.9,3.3,1.5,4.8c0,0.1,0.1,0.3,0.2,0.7l0,0C30.3,16.1,31.4,21.5,27,23.6z M30.4,13c-0.6-1.5-1.1-3-1.4-4.5
		c-0.1-0.4-0.2-0.7-0.3-1.1l0.6-0.2c0,0.2,0,0.4,0,0.6c0,1.7,0.7,3.3,2,4.4C31,12.4,30.7,12.7,30.4,13z M32.6,11.8
		c-0.1-0.1-0.2-0.2-0.3-0.2c-2.2-1.6-2.7-4.7-1.1-6.8s4.7-2.7,6.8-1.1s2.7,4.7,1.1,6.8c-0.3,0.4-0.7,0.8-1.1,1.1
		c-0.2,0-0.3,0.1-0.4,0.2c0,0,0,0,0,0.1C36.1,12.9,34.1,12.8,32.6,11.8L32.6,11.8z M41.1,7.7c0-0.2,0-0.4,0-0.5l0.5,0.2
		c-0.1,0.3-0.2,0.7-0.3,1.1c-0.4,1.6-0.9,3.1-1.5,4.6c-0.3-0.3-0.6-0.6-0.9-0.8C40.3,11.1,41,9.5,41.1,7.7L41.1,7.7z M69.2,15.2
		c-0.7,13.5-13.1,13.7-13.7,13.7h-0.3c-3.4,0-6.8-1.2-9.4-3.4c-0.8-0.8-1.7-1.5-2.7-1.9c-4.4-2-3.3-7.4-2.7-9.3v-0.1
		c0.1-0.3,0.2-0.6,0.2-0.6c0.7-1.6,1.2-3.2,1.6-4.9c0.4-2.2,1.9-4.1,4-4.9c1-0.4,1.9-0.9,2.8-1.4C50.8,1.4,52.7,1,54.7,1l0,0
		c4.6,0,8.1,1.3,10.6,3.9C69.4,9,69.2,15.2,69.2,15.2L69.2,15.2z"/>
	<path class="st4" d="M26.1,13.7c-0.7-6.1-6.2-10.4-12.3-9.6S3.4,10.3,4.1,16.4s6.2,10.4,12.3,9.6c5.6-0.7,9.8-5.4,9.7-11.1
		C26.1,14.5,26.1,14.1,26.1,13.7z M4.9,15c0-0.1,0-0.3,0-0.4c0.6-0.1,1.3,0.1,1.8,0.4c0.3,0.2,0.7,0.3,1.1,0.3
		c0.4,0,0.8-0.1,1.1-0.3C9,15,9,14.9,9.1,14.8c0,0,0.8-1,3.7,0h0.1c0.8,0.1,1.5,0.1,2.3,0c0.2,0,0.4-0.1,0.6-0.1
		c1.1-0.3,2.2-0.3,3.2,0.1c1.1,0.3,2.2,0.3,3.3,0c0.9-0.3,1.9-0.5,2.8-0.6c0,0.2,0,0.5,0,0.7s0,0.4,0,0.6H5
		C4.9,15.4,4.9,15.2,4.9,15z M15,4.8c4.9,0,9.2,3.5,10,8.4c-1,0.1-2,0.3-3,0.6c-0.9,0.2-1.8,0.2-2.7,0c-1.2-0.5-2.5-0.5-3.8-0.1
		L15,13.9c-0.6,0.1-1.3,0.1-1.9,0c-3.1-1.1-4.3-0.1-4.7,0.3c-0.3,0.2-0.7,0.2-1,0c-0.7-0.5-1.6-0.8-2.4-0.7C5.7,8.5,10,4.9,15,4.8z
		 M15,25.1c-5,0-9.2-3.6-10-8.5h20C24.2,21.5,20,25.1,15,25.1z"/>
	<path class="st4" d="M66.2,13.3C65.3,7.2,59.7,3,53.6,3.8s-10.3,6.5-9.4,12.5c0.9,6.1,6.5,10.3,12.5,9.4c4.9-0.7,8.7-4.5,9.4-9.4
		c0.1-0.1,0.1-0.2,0.1-0.3c0-0.1,0-0.1,0-0.2c0-0.3,0-0.6,0-0.9c0-0.5,0-1-0.1-1.5l0,0C66.2,13.4,66.2,13.3,66.2,13.3z M45.1,15
		c0-0.2,0-0.4,0-0.6c0.9,0,1.9,0.2,2.7,0.6c0.6,0.2,1.2,0.4,1.9,0.4c0.6,0,1.2-0.1,1.7-0.4c0.7-0.4,1.6-0.5,2.4-0.2
		c1.2,0.3,2.4,0.4,3.7,0.2h0.1c0.9-0.4,1.9-0.7,2.9-0.8c1.1,0,3.7,0,4.7,0c0,0.3,0.1,0.7,0.1,1c0,0.2,0,0.4,0,0.6H45.1
		C45.1,15.4,45.1,15.2,45.1,15z M55.2,4.8c4.8,0,8.9,3.3,9.9,8c-1.1,0-3.5,0-4.6,0c-1.1,0.1-2.2,0.4-3.2,0.9c-1,0.2-2.1,0.1-3.1-0.2
		c-1.1-0.4-2.3-0.2-3.3,0.4c-0.9,0.4-1.8,0.4-2.7-0.1c-1-0.4-2-0.6-3-0.6C46,8.4,50.3,4.8,55.2,4.8z M55.2,25.1c-5,0-9.2-3.6-10-8.5
		h20C64.4,21.5,60.1,25.1,55.2,25.1z"/>
</g>
</svg>
