<svg xmlns="http://www.w3.org/2000/svg" xmlns:xlink="http://www.w3.org/1999/xlink" version="1.1" x="0px" y="0px" viewBox="0 0 100 125" enable-background="new 0 0 100 100" xml:space="preserve"><g><g><path d="M43.851,50.288c-0.886,0-1.607,0.721-1.607,1.606c0,0.887,0.721,1.607,1.607,1.607s1.607-0.721,1.607-1.607    C45.458,51.009,44.737,50.288,43.851,50.288z M43.851,52.502c-0.335,0-0.607-0.272-0.607-0.607c0-0.334,0.272-0.606,0.607-0.606    c0.334,0,0.607,0.272,0.607,0.606C44.458,52.229,44.186,52.502,43.851,52.502z"/><path d="M86.38,60.55c-0.045-0.235-0.251-0.406-0.491-0.406h-0.58V47.852c0.281-0.252,0.462-0.614,0.462-1.021    c0-0.758-0.617-1.375-1.375-1.375H37.521c-0.758,0-1.375,0.617-1.375,1.375c0,0.235,0.065,0.454,0.17,0.648l-21.441,4.572    c-0.154,0.033-0.283,0.137-0.349,0.279c-0.051,0.109-1.217,2.719,0.387,6.837c0.016,0.06,0.404,1.454,2.276,1.454    c0.382,0,0.803-0.061,1.295-0.194l15.413-5.62c0.013-0.008,1.369-0.777,3.02-0.777c0.607,0,1.185,0.104,1.716,0.31    c1.487,0.576,2.637,0.983,3.892,0.983c1.315,0,2.561-0.465,3.947-1.486c0.028-0.023,2.863-2.384,7.842-2.463h0.433    c0.029,0.005,0.056,0.018,0.087,0.018s0.058-0.013,0.087-0.018l7.91,0.001c1.837,0,7.695-0.242,8.837-3.168h12.642v11.937h-0.58    c-0.24,0-0.446,0.171-0.491,0.406l-0.542,2.854c-0.027,0.146,0.011,0.298,0.106,0.413c0.095,0.114,0.235,0.181,0.385,0.181h1.122    v0.334c0,0.276,0.224,0.5,0.5,0.5s0.5-0.224,0.5-0.5v-0.334h1.122c0.149,0,0.29-0.066,0.385-0.181    c0.096-0.115,0.134-0.267,0.106-0.413L86.38,60.55z M71.313,47.207H46.896v-0.751h29.501v0.751H71.313z M65.036,48.207v2.055    c-0.194,0.02-0.388,0.036-0.577,0.05v-2.104H65.036z M57.333,48.207v2.167h-2v-2.167H57.333z M77.396,46.456h0.416v0.751h-0.416    V46.456z M78.812,46.456h0.917v0.751h-0.917V46.456z M80.729,46.456h0.375v0.751h-0.375V46.456z M82.104,46.456h1.458v0.751    h-1.458V46.456z M84.771,46.831c0,0.146-0.086,0.27-0.208,0.332V46.5C84.685,46.562,84.771,46.685,84.771,46.831z M37.521,46.456    h8.375v0.751h-8.249h-0.126c-0.207,0-0.375-0.169-0.375-0.376S37.314,46.456,37.521,46.456z M45.85,53.054    c-1.178,0.866-2.235,1.27-3.326,1.27c-1.081,0-2.145-0.379-3.53-0.915c-0.647-0.251-1.346-0.378-2.077-0.378    c-1.929,0-3.457,0.875-3.441,0.875l-15.292,5.569c-0.366,0.098-0.701,0.147-0.995,0.147c-1.062,0-1.289-0.644-1.327-0.762    c-1.2-3.089-0.72-5.222-0.509-5.888L37.7,48.207h15.255v2.248C48.441,50.887,45.938,52.978,45.85,53.054z M54.306,50.374    c-0.12,0.002-0.232,0.011-0.351,0.016v-2.183h0.378v2.167H54.306z M58.333,50.375v-2.168h5.126v2.157    c-0.218,0.007-0.43,0.011-0.629,0.011H58.333z M66.036,50.138v-1.931h4.521C69.832,49.27,67.948,49.852,66.036,50.138z     M83.79,62.998l0.353-1.854h1.332l0.353,1.854H83.79z"/></g></g><text x="0" y="115" fill="#000000" font-size="5px" font-weight="bold" font-family="'Helvetica Neue', Helvetica, Arial-Unicode, Arial, Sans-serif">Created by Lea Lafleur</text><text x="0" y="120" fill="#000000" font-size="5px" font-weight="bold" font-family="'Helvetica Neue', Helvetica, Arial-Unicode, Arial, Sans-serif">from the Noun Project</text></svg>