<svg xmlns="http://www.w3.org/2000/svg" xmlns:xlink="http://www.w3.org/1999/xlink" version="1.1" x="0px" y="0px" viewBox="0 0 100 125" enable-background="new 0 0 100 100" xml:space="preserve"><g><g><path d="M29.86,36.267c-7.224,0-13.1,5.876-13.1,13.1s5.876,13.1,13.1,13.1s13.1-5.876,13.1-13.1S37.084,36.267,29.86,36.267z     M29.86,61.466c-6.672,0-12.1-5.428-12.1-12.1s5.428-12.1,12.1-12.1s12.1,5.428,12.1,12.1S36.532,61.466,29.86,61.466z"/><path d="M53.208,42.16c0-1.769-1.439-3.208-3.208-3.208s-3.208,1.439-3.208,3.208s1.439,3.208,3.208,3.208    S53.208,43.929,53.208,42.16z M50,44.368c-1.218,0-2.208-0.99-2.208-2.208s0.99-2.208,2.208-2.208s2.208,0.99,2.208,2.208    S51.218,44.368,50,44.368z"/><path d="M70.032,36.267c-7.224,0-13.1,5.876-13.1,13.1s5.876,13.1,13.1,13.1s13.1-5.876,13.1-13.1S77.256,36.267,70.032,36.267z     M70.032,61.466c-6.672,0-12.1-5.428-12.1-12.1s5.428-12.1,12.1-12.1s12.1,5.428,12.1,12.1S76.704,61.466,70.032,61.466z"/><path d="M80.913,38.61c-2.69-2.783-6.51-4.194-11.384-4.194c-0.388,0-3.849,0.041-6.201,1.465    c-0.016,0.01-1.585,0.926-2.664,1.365c-0.898,0.365-2.778,1.393-3.875,3.654l-1.144-0.423c-0.727-2.433-2.98-4.211-5.646-4.211    c-2.652,0-4.899,1.762-5.637,4.176c-0.013,0.003-0.025,0.001-0.038,0.006L43.103,40.9c-1.1-2.264-2.977-3.289-3.874-3.654    c-1.078-0.439-2.648-1.355-2.658-1.361c-2.355-1.426-5.81-1.469-6.235-1.469c-0.001,0-0.001,0-0.002,0    c-4.844,0-8.663,1.411-11.354,4.194c-4.319,4.468-4.155,10.805-4.146,11.081c0.744,14.451,14.516,14.621,14.655,14.621    l0.326,0.003c6.314,0,9.948-3.561,10.12-3.733c0.915-1.029,2.32-1.684,2.338-1.691c4.813-2.25,3.922-7.934,3.306-10.298    c0.186-0.25,0.633-0.78,1.409-1.376c0.883,0.527,1.91,0.837,3.012,0.837c1.076,0,2.083-0.295,2.953-0.801    c0.742,0.577,1.174,1.089,1.357,1.335c-0.605,2.324-1.523,8.044,3.312,10.304c0.014,0.007,1.415,0.656,2.354,1.712    c0.151,0.151,3.785,3.712,10.1,3.712l0.316-0.003c0.139,0,13.921-0.167,14.666-14.63C85.068,49.415,85.232,43.078,80.913,38.61z     M41.854,57.983c-0.065,0.029-1.608,0.744-2.646,1.913c-0.034,0.034-3.488,3.419-9.393,3.419l-0.316-0.003h-0.001    c-0.539,0-12.97-0.158-13.665-13.663c-0.002-0.062-0.152-6.193,3.871-10.351c2.495-2.576,6.071-3.883,10.659-3.883    c0.358,0,3.562,0.037,5.695,1.328c0.067,0.039,1.647,0.962,2.793,1.428c0.979,0.398,3.322,1.676,3.951,4.938    c0.029,0.13,0.731,3.203,1.54,4.814c0.019,0.051,0.108,0.302,0.217,0.674c0.002,0.009,0.005,0.017,0.008,0.025    C45.127,50.551,46.231,55.937,41.854,57.983z M45.228,47.461c-0.763-1.57-1.443-4.541-1.446-4.556    c-0.075-0.389-0.183-0.739-0.297-1.08l0.651-0.24c-0.019,0.189-0.029,0.381-0.029,0.575c0,1.775,0.792,3.365,2.037,4.447    C45.758,46.921,45.459,47.211,45.228,47.461z M47.401,46.291c-0.066-0.094-0.161-0.149-0.264-0.18    c-1.225-0.891-2.031-2.324-2.031-3.951c0-2.698,2.195-4.894,4.894-4.894s4.894,2.195,4.894,4.894c0,1.616-0.797,3.04-2.009,3.932    c-0.153,0.003-0.305,0.067-0.399,0.204c-0.017,0.022-0.021,0.05-0.032,0.074c-0.725,0.423-1.556,0.684-2.453,0.684    C49.043,47.054,48.156,46.768,47.401,46.291z M55.894,42.16c0-0.181-0.011-0.358-0.027-0.535l0.541,0.2    c-0.112,0.337-0.219,0.682-0.292,1.064c-0.007,0.029-0.676,2.947-1.449,4.572c-0.22-0.237-0.503-0.512-0.862-0.808    C55.08,45.572,55.894,43.961,55.894,42.16z M84.061,49.641c-0.695,13.497-13.138,13.671-13.677,13.672l-0.307,0.003    c-5.883,0-9.358-3.386-9.372-3.397c-1.058-1.19-2.601-1.905-2.662-1.934c-4.381-2.048-3.277-7.434-2.729-9.333    c0.008-0.023,0.016-0.047,0.021-0.072c0.1-0.338,0.18-0.564,0.194-0.605c0.83-1.66,1.532-4.733,1.565-4.879    c0.625-3.247,2.969-4.524,3.947-4.923c1.146-0.466,2.726-1.389,2.799-1.432c2.123-1.285,5.321-1.324,5.718-1.324    c0.001,0,0.001,0,0.002,0c4.558,0,8.134,1.307,10.629,3.883C84.212,43.456,84.062,49.588,84.061,49.641z"/><path d="M40.89,48.113c-0.625-5.536-5.329-9.853-11.029-9.853c-6.124,0-11.105,4.981-11.105,11.105s4.981,11.105,11.105,11.105    s11.105-4.981,11.105-11.105c0-0.412-0.026-0.817-0.07-1.219C40.894,48.136,40.893,48.125,40.89,48.113z M19.755,49.366    c0-0.153,0.017-0.302,0.023-0.453c0.396-0.042,1.104-0.023,1.756,0.488c0.025,0.019,0.44,0.321,1.096,0.321    c0.314,0,0.686-0.069,1.095-0.274c0.068-0.034,0.138-0.098,0.184-0.158c0.009-0.01,0.822-1.023,3.675-0.008    c0.032,0.012,0.066,0.021,0.101,0.024c0.049,0.008,1.231,0.162,2.272-0.041c0.201-0.039,0.393-0.091,0.59-0.146    c0.728-0.202,1.48-0.408,3.238,0.137c0.07,0.02,1.744,0.473,3.312-0.014c0.509-0.193,1.885-0.626,2.834-0.583    c0.017,0.234,0.036,0.468,0.036,0.706c0,0.218-0.02,0.431-0.033,0.646H19.788C19.774,49.797,19.755,49.584,19.755,49.366z     M29.86,39.261c4.992,0,9.139,3.642,9.951,8.405c-1.307-0.003-2.863,0.563-3.042,0.632c-1.252,0.389-2.702-0.001-2.703,0    c-2.022-0.63-3.001-0.357-3.787-0.142c-0.172,0.048-0.34,0.094-0.515,0.129c-0.771,0.149-1.681,0.061-1.898,0.037    c-3.088-1.086-4.33-0.114-4.681,0.274c-0.641,0.277-1.042,0.011-1.043,0.011c-0.809-0.635-1.68-0.729-2.271-0.7    C20.584,43.025,24.785,39.261,29.86,39.261z M29.86,59.472c-5.011,0-9.17-3.67-9.959-8.46h19.918    C39.03,55.802,34.871,59.472,29.86,59.472z"/><path d="M80.997,47.688c-0.813-5.328-5.413-9.427-10.965-9.427c-6.124,0-11.105,4.981-11.105,11.105s4.981,11.105,11.105,11.105    c5.637,0,10.294-4.224,11.002-9.67c0.061-0.083,0.104-0.18,0.104-0.29c0-0.074-0.019-0.144-0.048-0.207    c0.026-0.311,0.048-0.622,0.048-0.938c0-0.521-0.049-1.03-0.118-1.533c0-0.004,0.002-0.008,0.002-0.012    C81.022,47.774,81.009,47.731,80.997,47.688z M59.927,49.366c0-0.218,0.02-0.431,0.032-0.645c0.511,0.009,1.473,0.099,2.744,0.561    c0.739,0.27,1.371,0.361,1.889,0.361c1.079,0,1.664-0.4,1.706-0.43c0.009-0.008,0.94-0.686,2.436-0.247    c1.843,0.539,3.595,0.221,3.671,0.207c0.045-0.009,0.089-0.023,0.13-0.044c0.016-0.007,1.545-0.761,2.861-0.817    c1.122-0.048,3.672-0.02,4.686-0.006c0.037,0.349,0.057,0.702,0.057,1.06c0,0.218-0.02,0.431-0.033,0.646H59.96    C59.946,49.797,59.927,49.584,59.927,49.366z M70.032,39.261c4.865,0,8.938,3.457,9.893,8.043    c-1.114-0.014-3.473-0.036-4.572,0.009c-1.37,0.06-2.854,0.728-3.194,0.889c-0.304,0.047-1.704,0.226-3.144-0.193    c-1.968-0.578-3.26,0.363-3.297,0.392c-0.036,0.024-0.92,0.581-2.673-0.057c-1.317-0.479-2.351-0.599-2.973-0.618    C60.86,42.932,65.021,39.261,70.032,39.261z M70.032,59.472c-5.011,0-9.17-3.67-9.959-8.46h19.918    C79.202,55.802,75.043,59.472,70.032,59.472z"/></g></g><text x="0" y="115" fill="#000000" font-size="5px" font-weight="bold" font-family="'Helvetica Neue', Helvetica, Arial-Unicode, Arial, Sans-serif">Created by Lea Lafleur</text><text x="0" y="120" fill="#000000" font-size="5px" font-weight="bold" font-family="'Helvetica Neue', Helvetica, Arial-Unicode, Arial, Sans-serif">from the Noun Project</text></svg>