<svg xmlns="http://www.w3.org/2000/svg" xmlns:xlink="http://www.w3.org/1999/xlink" version="1.1" x="0px" y="0px" viewBox="0 0 100 125" enable-background="new 0 0 100 100" xml:space="preserve"><g><path d="M73.151,52.167h-1.333V21.001c0-0.276-0.224-0.5-0.5-0.5H50.532l-1.315-4.755c-0.003-0.012-0.011-0.02-0.015-0.03   c-0.009-0.026-0.021-0.05-0.035-0.074c-0.018-0.032-0.036-0.062-0.06-0.088c-0.017-0.019-0.034-0.034-0.053-0.051   c-0.027-0.023-0.057-0.043-0.09-0.06c-0.023-0.013-0.047-0.023-0.072-0.031c-0.033-0.012-0.066-0.017-0.102-0.021   c-0.02-0.002-0.036-0.011-0.056-0.011h-2.334c-0.021,0-0.04,0.01-0.061,0.012c-0.029,0.004-0.057,0.009-0.085,0.018   c-0.033,0.011-0.064,0.023-0.095,0.04c-0.023,0.014-0.044,0.028-0.065,0.045c-0.025,0.021-0.049,0.041-0.07,0.065   c-0.021,0.023-0.036,0.049-0.052,0.076c-0.015,0.026-0.029,0.052-0.039,0.081c-0.004,0.011-0.012,0.019-0.015,0.029l-1.315,4.755   H23.818c-0.276,0-0.5,0.224-0.5,0.5v31.166h-1.333c-0.276,0-0.5,0.224-0.5,0.5v2.5c0,0.276,0.224,0.5,0.5,0.5h12.888l-7.7,27.827   c-0.042,0.151-0.011,0.312,0.084,0.437c0.094,0.124,0.241,0.197,0.397,0.197h2.832c0.226,0,0.424-0.151,0.482-0.37l7.577-28.091   h7.355v27.961c0,0.276,0.224,0.5,0.5,0.5h2.334c0.276,0,0.5-0.224,0.5-0.5V55.667h7.355l7.577,28.091   c0.059,0.219,0.257,0.37,0.482,0.37h2.832c0.008,0.001,0.016,0.001,0.02,0c0.276,0,0.5-0.224,0.5-0.5   c0-0.096-0.026-0.185-0.073-0.261l-7.665-27.7h12.888c0.276,0,0.5-0.224,0.5-0.5v-2.5C73.651,52.391,73.428,52.167,73.151,52.167z    M49.235,28.398l0.394,1.458c-0.149,0-0.281,0-0.394-0.001V28.398z M49.235,30.854c0.083,0.001,0.17,0.001,0.272,0.001   c0.113,0,0.254-0.001,0.39-0.002l5.749,21.314h-6.411V30.854z M49.235,24.559v-4.997l2.837,10.251   c-0.525,0.017-0.999,0.028-1.41,0.034L49.235,24.559z M53.372,30.76c4.19-0.186,10.706-0.736,17.446-2.3v23.707H59.296   L53.372,30.76z M70.818,21.501v5.935c-6.87,1.618-13.542,2.163-17.719,2.339l-2.29-8.273H70.818z M45.901,28.398v1.447   c-0.112-0.001-0.241-0.004-0.389-0.007L45.901,28.398z M45.245,30.833c0.263,0.006,0.479,0.011,0.656,0.013v21.321H39.49   L45.245,30.833z M45.901,24.559l-1.417,5.252c-0.41-0.013-0.882-0.031-1.404-0.055l2.821-10.194V24.559z M44.327,21.501   l-2.271,8.204c-4.229-0.226-10.985-0.804-17.738-2.275v-5.929H44.327z M24.318,28.453c6.627,1.425,13.229,2.004,17.466,2.238   l-5.943,21.476H24.318V28.453z M22.485,53.167h1.333h11.746l-0.415,1.5H22.485V53.167z M30.104,83.128h-1.792l14.495-52.384   c0.521,0.024,0.991,0.043,1.411,0.058L30.104,83.128z M38.816,54.667l0.404-1.5h6.681v1.5H38.816z M48.235,83.128h-1.334V55.167   v-2.5V24.625V16.38h1.334v8.245v28.042v2.5V83.128z M49.235,54.667v-1.5h6.681l0.404,1.5H49.235z M65.033,83.128l-7.541-27.957   c0-0.001,0.001-0.003,0.001-0.004c0-0.095-0.025-0.183-0.071-0.259l-0.21-0.778L50.93,30.84c0.418-0.008,0.896-0.021,1.416-0.039   l14.479,52.327H65.033z M72.651,54.667H59.987l-0.415-1.5h11.746h1.333V54.667z"/></g><text x="0" y="115" fill="#000000" font-size="5px" font-weight="bold" font-family="'Helvetica Neue', Helvetica, Arial-Unicode, Arial, Sans-serif">Created by Lea Lafleur</text><text x="0" y="120" fill="#000000" font-size="5px" font-weight="bold" font-family="'Helvetica Neue', Helvetica, Arial-Unicode, Arial, Sans-serif">from the Noun Project</text></svg>