<svg xmlns="http://www.w3.org/2000/svg" xmlns:xlink="http://www.w3.org/1999/xlink" version="1.1" x="0px" y="0px" viewBox="0 0 100 125" enable-background="new 0 0 100 100" xml:space="preserve"><g><g><path d="M23.297,73.408h3.562c0.276,0,0.5-0.224,0.5-0.5v-1.98c0-0.276-0.224-0.5-0.5-0.5h-3.562c-0.276,0-0.5,0.224-0.5,0.5v1.98    C22.797,73.185,23.021,73.408,23.297,73.408z M26.359,72.408h-0.781v-0.98h0.781V72.408z M23.797,71.428h0.781v0.98h-0.781V71.428    z"/><path d="M29.608,73.408h3.562c0.276,0,0.5-0.224,0.5-0.5v-1.98c0-0.276-0.224-0.5-0.5-0.5h-3.562c-0.276,0-0.5,0.224-0.5,0.5v1.98    C29.108,73.185,29.332,73.408,29.608,73.408z M32.671,72.408H31.89v-0.98h0.781V72.408z M30.108,71.428h0.781v0.98h-0.781V71.428z    "/><path d="M38.172,56.562h0.748c-0.012,0.098-0.029,0.192-0.029,0.293c0,1.361,1.107,2.469,2.469,2.469s2.469-1.107,2.469-2.469    c0-0.101-0.018-0.195-0.029-0.293h0.917c0.276,0,0.5-0.224,0.5-0.5s-0.224-0.5-0.5-0.5h-1.263    c-0.436-0.703-1.208-1.176-2.094-1.176s-1.658,0.473-2.094,1.176h-1.094c-0.276,0-0.5,0.224-0.5,0.5S37.896,56.562,38.172,56.562z     M41.359,55.387c0.81,0,1.469,0.659,1.469,1.469s-0.659,1.469-1.469,1.469s-1.469-0.659-1.469-1.469S40.55,55.387,41.359,55.387z"/><path d="M44.734,60.188h-6.75c-0.276,0-0.5,0.224-0.5,0.5V65c0,0.276,0.224,0.5,0.5,0.5h1.156v1.168c0,0.276,0.224,0.5,0.5,0.5    h3.438c0.276,0,0.5-0.224,0.5-0.5V65.5h1.156c0.276,0,0.5-0.224,0.5-0.5v-4.312C45.234,60.411,45.011,60.188,44.734,60.188z     M38.484,64.5v-3.312h0.656V64.5H38.484z M40.141,65v-3.812h0.719v4.98h-0.719V65z M42.578,66.168h-0.719v-4.98h0.719V65V66.168z     M44.234,64.5h-0.656v-3.312h0.656V64.5z"/><path d="M43.078,69.688h-3.438c-0.276,0-0.5,0.224-0.5,0.5v6.219c0,0.276,0.224,0.5,0.5,0.5h3.438c0.276,0,0.5-0.224,0.5-0.5    v-6.219C43.578,69.911,43.354,69.688,43.078,69.688z M40.141,70.688h0.719v5.219h-0.719V70.688z M42.578,75.906h-0.719v-5.219    h0.719V75.906z"/><path d="M50.891,71.18c-1.167,0-2.117,0.95-2.117,2.117s0.95,2.117,2.117,2.117s2.117-0.95,2.117-2.117S52.058,71.18,50.891,71.18    z M50.891,74.414c-0.616,0-1.117-0.501-1.117-1.117s0.501-1.117,1.117-1.117s1.117,0.501,1.117,1.117S51.507,74.414,50.891,74.414    z"/><path d="M83.884,76H70.151v-5.812v-1.686c0-0.019-0.009-0.035-0.011-0.053c-0.004-0.034-0.01-0.066-0.02-0.099    c-0.011-0.031-0.023-0.06-0.039-0.088c-0.015-0.027-0.031-0.052-0.051-0.075c-0.022-0.027-0.048-0.051-0.076-0.072    c-0.014-0.012-0.021-0.026-0.037-0.036l-2.017-1.272v-0.619h2.021c0.276,0,0.5-0.224,0.5-0.5v-1.403    c0.007-0.032,0.02-0.062,0.02-0.097c0-0.094-0.025-0.181-0.07-0.256l-2.486-9.434c-0.058-0.22-0.256-0.373-0.483-0.373H48.233    v-1.628l2.072-1.602c0.169-0.131,0.236-0.354,0.168-0.557C50.404,50.136,50.214,50,50,50h-1.767v-2.938c0-0.276-0.224-0.5-0.5-0.5    h-4.155v-1.125v-1.312c0-0.276-0.224-0.5-0.5-0.5h-1.219V42.5c0-0.276-0.224-0.5-0.5-0.5s-0.5,0.224-0.5,0.5v1.125h-1.3    c-0.276,0-0.5,0.224-0.5,0.5v1.312v1.125h-4.075c-0.276,0-0.5,0.224-0.5,0.5V50h-1.812c-0.215,0-0.405,0.137-0.474,0.341    s0.001,0.428,0.172,0.558l2.114,1.602v2.611l-5.334,4.768c-0.106,0.095-0.167,0.23-0.167,0.373v5.916h-9.167    c-0.276,0-0.5,0.224-0.5,0.5v1.834v1.166c0,0.276,0.224,0.5,0.5,0.5h1.167v1.25h-4.867c-0.276,0-0.5,0.224-0.5,0.5v1.207v0.542    V76.5v7.438c0,0.276,0.224,0.5,0.5,0.5h18.868h1.333h10.084h37.482c0.276,0,0.5-0.224,0.5-0.5v-5.562V76.5    C84.384,76.224,84.16,76,83.884,76z M83.384,77v0.875H70.151V77H83.384z M46.401,53.062H36.317c-0.276,0-0.5,0.224-0.5,0.5v29.875    h-0.333V76.5V52.752h11.749v30.686h-0.332V53.562C46.901,53.286,46.678,53.062,46.401,53.062z M16.616,73.667v-0.042h4.367v0.542    c0,0.276,0.224,0.5,0.5,0.5h13.001V76H16.616V73.667z M34.484,73.667H21.983v-3.499h12.501V73.667z M49.402,59.906h0.582v0.281    h-1.751v-1.646h0.669v0.864C48.902,59.683,49.126,59.906,49.402,59.906z M67.257,67.582l0.665,0.42H48.233v-0.42H67.257z     M49.984,62.344h-1.751v-1.156h1.751V62.344z M48.233,69.002h20.918v0.686H48.233V69.002z M66.585,73.667v-2.979h0.743v2.979    H66.585z M64.842,73.667v-2.979h0.743v2.979H64.842z M63.1,73.667v-2.979h0.742v2.979H63.1z M61.356,73.667v-2.979H62.1v2.979    H61.356z M59.613,73.667v-2.979h0.743v2.979H59.613z M57.87,73.667v-2.979h0.743v2.979H57.87z M68.328,70.688h0.823v2.979h-0.823    V70.688z M56.87,70.688v2.979h-0.823v-2.979H56.87z M56.047,74.667h13.104v5.417H56.047V74.667z M48.233,63.344h1.751V64.5h-1.751    V63.344z M48.233,70.688h6.813v9.896c0,0.276,0.224,0.5,0.5,0.5h13.604v2.354H48.233V70.688z M66.901,66.582H48.233V65.5h2.251    c0.276,0,0.5-0.224,0.5-0.5v-4.083h0.209v0.917c0,0.276,0.224,0.5,0.5,0.5h0.542v0.875c0,0.276,0.224,0.5,0.5,0.5h0.917v0.917    c0,0.276,0.224,0.5,0.5,0.5h0.895v0.562c0,0.276,0.224,0.5,0.5,0.5h11.354V66.582z M67.016,55.125l2.258,8.562H56.766    l-7.892-8.562H67.016z M56.18,64.526c0.094,0.103,0.228,0.161,0.367,0.161h12.875v0.5H56.047v-0.562c0-0.276-0.224-0.5-0.5-0.5    h-0.895v-0.917c0-0.276-0.224-0.5-0.5-0.5h-0.917v-0.875c0-0.276-0.224-0.5-0.5-0.5h-0.542v-0.917c0-0.276-0.224-0.5-0.5-0.5    h-0.709v-0.511c0-0.276-0.224-0.5-0.5-0.5h-0.582v-0.864c0-0.276-0.224-0.5-0.5-0.5h-1.169v-1.638L56.18,64.526z M47.233,50h-1.28    v-2.438h1.28V50z M44.953,47.562V50h-1.375v-2.438H44.953z M40.06,50v-2.438h2.519V50H40.06z M42.578,44.625v0.312H40.06v-0.312    H42.578z M40.06,45.938h2.519v0.625H40.06V45.938z M39.06,50h-1.325v-2.438h1.325V50z M35.484,47.562h1.25V50h-1.25V47.562z     M48.535,51l-0.973,0.752h-12.41L34.16,51H48.535z M34.484,56.452V56.9l-4.501,3.99v-0.415L34.484,56.452z M29.983,62.227    l4.501-3.99v7.932h-4.501V62.227z M34.484,67.168v0.834H20.316v-0.834H34.484z M20.316,69.002h14.168v0.166H21.483h-1.167V69.002z     M20.983,72.418v0.207h-4.367v-0.207H20.983z M16.616,83.438V77h17.868v6.438H16.616z M36.817,83.438V54.062h9.084v29.375H36.817z     M70.151,83.438v-4.562h13.232v4.562H70.151z"/><path d="M82.402,79.427h-11.25c-0.276,0-0.5,0.224-0.5,0.5v2.459c0,0.276,0.224,0.5,0.5,0.5h11.25c0.276,0,0.5-0.224,0.5-0.5    v-2.459C82.902,79.65,82.679,79.427,82.402,79.427z M81.902,81.886h-10.25v-1.459h10.25V81.886z"/></g></g><text x="0" y="115" fill="#000000" font-size="5px" font-weight="bold" font-family="'Helvetica Neue', Helvetica, Arial-Unicode, Arial, Sans-serif">Created by Lea Lafleur</text><text x="0" y="120" fill="#000000" font-size="5px" font-weight="bold" font-family="'Helvetica Neue', Helvetica, Arial-Unicode, Arial, Sans-serif">from the Noun Project</text></svg>