<svg xmlns="http://www.w3.org/2000/svg" xmlns:xlink="http://www.w3.org/1999/xlink" version="1.1" x="0px" y="0px" viewBox="0 0 100 125" enable-background="new 0 0 100 100" xml:space="preserve"><g><g><path d="M44.749,24.125h1.875c0.276,0,0.5-0.224,0.5-0.5V21.75c0-0.276-0.224-0.5-0.5-0.5h-1.875c-0.276,0-0.5,0.224-0.5,0.5    v1.875C44.249,23.901,44.473,24.125,44.749,24.125z M45.249,22.25h0.875v0.875h-0.875V22.25z"/><path d="M49.375,24.125h1.875c0.276,0,0.5-0.224,0.5-0.5V21.75c0-0.276-0.224-0.5-0.5-0.5h-1.875c-0.276,0-0.5,0.224-0.5,0.5    v1.875C48.875,23.901,49.099,24.125,49.375,24.125z M49.875,22.25h0.875v0.875h-0.875V22.25z"/><path d="M60.137,30.375c-1.533-0.038-2.879-0.623-3.628-1.019c0.843-0.64,1.683-1.359,2.46-2.156    c0.005-0.005,0.01-0.01,0.015-0.015c0.559-0.574,1.085-1.182,1.548-1.832c0.16-0.225,0.107-0.537-0.117-0.697    c-0.225-0.159-0.536-0.108-0.697,0.117c-0.187,0.262-0.386,0.517-0.593,0.767v-1.164c0-0.276-0.224-0.5-0.5-0.5    s-0.5,0.224-0.5,0.5v2.251c-2.929,2.932-6.847,4.817-7.703,5.208h-1.922v-0.995c0.513-0.325,1.558-1.021,2.056-1.589h2.819    c0.276,0,0.5-0.224,0.5-0.5v-2.205l2.979-2.511l2.025-1.197c0.238-0.141,0.317-0.447,0.177-0.685    c-0.142-0.238-0.45-0.316-0.685-0.176l-1.082,0.64l0.388-1.824c0.058-0.27-0.115-0.536-0.385-0.593    c-0.266-0.054-0.536,0.115-0.594,0.385l-0.589,2.77l-2.234,1.884v-2.362h1c0.206,0,0.391-0.126,0.466-0.318    c0.075-0.192,0.024-0.411-0.128-0.55l-6.875-6.312c-0.191-0.176-0.484-0.176-0.676,0l-6.875,6.312    c-0.152,0.139-0.203,0.357-0.128,0.55c0.075,0.192,0.26,0.318,0.466,0.318h1v2.598c-1.652-1.102-2.782-3.372-3-3.834v-1.306    c0-0.276-0.224-0.5-0.5-0.5s-0.5,0.224-0.5,0.5v0.384l-0.981-0.776c-0.216-0.17-0.531-0.135-0.703,0.082    c-0.171,0.216-0.134,0.531,0.082,0.702l1.697,1.342c0.291,0.622,1.715,3.461,3.905,4.561v1.452    c-3.415-2.242-5.284-5.582-5.312-5.632c-0.133-0.242-0.438-0.331-0.678-0.199c-0.242,0.132-0.332,0.436-0.199,0.678    c0.063,0.116,0.66,1.181,1.754,2.501l-1.739,0.397c-0.27,0.062-0.438,0.33-0.376,0.599c0.053,0.232,0.259,0.389,0.487,0.389    c0.036,0,0.074-0.004,0.111-0.013l2.266-0.517c0.442,0.474,0.941,0.962,1.497,1.436l-0.53,0.74    c-0.161,0.225-0.109,0.537,0.115,0.698c0.088,0.063,0.189,0.094,0.291,0.094c0.155,0,0.309-0.072,0.406-0.208l0.502-0.7    c1.781,1.342,4.052,2.448,6.779,2.672v0.82h-2.143c-0.276,0-0.5,0.224-0.5,0.5s0.224,0.5,0.5,0.5h2.143v2.863h-2.143    c-0.276,0-0.5,0.224-0.5,0.5s0.224,0.5,0.5,0.5h2.143v2.863h-2.143c-0.276,0-0.5,0.224-0.5,0.5s0.224,0.5,0.5,0.5h2.143v2.863    h-2.143c-0.276,0-0.5,0.224-0.5,0.5s0.224,0.5,0.5,0.5h2.143v2.863h-2.143c-0.276,0-0.5,0.224-0.5,0.5s0.224,0.5,0.5,0.5h2.143    v2.863h-2.143c-0.276,0-0.5,0.224-0.5,0.5s0.224,0.5,0.5,0.5h2.143v2.863h-2.143c-0.276,0-0.5,0.224-0.5,0.5s0.224,0.5,0.5,0.5    h2.143v2.863h-2.143c-0.276,0-0.5,0.224-0.5,0.5s0.224,0.5,0.5,0.5h2.143v2.863h-2.143c-0.276,0-0.5,0.224-0.5,0.5    s0.224,0.5,0.5,0.5h2.143v2.863h-2.143c-0.276,0-0.5,0.224-0.5,0.5s0.224,0.5,0.5,0.5h2.143v2.863h-2.143    c-0.276,0-0.5,0.224-0.5,0.5s0.224,0.5,0.5,0.5h2.143v2.863h-2.143c-0.276,0-0.5,0.224-0.5,0.5s0.224,0.5,0.5,0.5h2.143v2.863    h-2.143c-0.276,0-0.5,0.224-0.5,0.5s0.224,0.5,0.5,0.5h2.143v4.744c0,0.276,0.224,0.5,0.5,0.5s0.5-0.224,0.5-0.5v-4.744h2.144    c0.276,0,0.5-0.224,0.5-0.5s-0.224-0.5-0.5-0.5h-2.144V75.33h2.144c0.276,0,0.5-0.224,0.5-0.5s-0.224-0.5-0.5-0.5h-2.144v-2.863    h2.144c0.276,0,0.5-0.224,0.5-0.5s-0.224-0.5-0.5-0.5h-2.144v-2.863h2.144c0.276,0,0.5-0.224,0.5-0.5s-0.224-0.5-0.5-0.5h-2.144    V63.74h2.144c0.276,0,0.5-0.224,0.5-0.5s-0.224-0.5-0.5-0.5h-2.144v-2.863h2.144c0.276,0,0.5-0.224,0.5-0.5s-0.224-0.5-0.5-0.5    h-2.144v-2.863h2.144c0.276,0,0.5-0.224,0.5-0.5s-0.224-0.5-0.5-0.5h-2.144V52.15h2.144c0.276,0,0.5-0.224,0.5-0.5    s-0.224-0.5-0.5-0.5h-2.144v-2.863h2.144c0.276,0,0.5-0.224,0.5-0.5s-0.224-0.5-0.5-0.5h-2.144v-2.863h2.144    c0.276,0,0.5-0.224,0.5-0.5s-0.224-0.5-0.5-0.5h-2.144v-2.863h2.144c0.276,0,0.5-0.224,0.5-0.5s-0.224-0.5-0.5-0.5h-2.144v-2.863    h2.144c0.276,0,0.5-0.224,0.5-0.5s-0.224-0.5-0.5-0.5h-2.144v-2.863h2.144c0.148,0,0.278-0.067,0.369-0.17    c0.763-0.353,2.602-1.262,4.605-2.659c0.667,0.402,2.402,1.318,4.494,1.37c0.005,0,0.009,0,0.013,0c0.271,0,0.493-0.216,0.5-0.487    C60.631,30.611,60.412,30.382,60.137,30.375z M48.499,29.641V29.25h0.548C48.873,29.38,48.687,29.513,48.499,29.641z     M42.624,21.875h-0.216l5.591-5.134l5.591,5.134h-0.216c-0.276,0-0.5,0.224-0.5,0.5v5.875h-9.75v-1.941c0-0.001,0-0.001,0-0.002    v-3.931C43.124,22.099,42.9,21.875,42.624,21.875z M44.343,29.25h3.156v0.763C46.365,29.909,45.309,29.642,44.343,29.25z"/></g></g><text x="0" y="115" fill="#000000" font-size="5px" font-weight="bold" font-family="'Helvetica Neue', Helvetica, Arial-Unicode, Arial, Sans-serif">Created by Lea Lafleur</text><text x="0" y="120" fill="#000000" font-size="5px" font-weight="bold" font-family="'Helvetica Neue', Helvetica, Arial-Unicode, Arial, Sans-serif">from the Noun Project</text></svg>