<svg xmlns="http://www.w3.org/2000/svg" xmlns:xlink="http://www.w3.org/1999/xlink" version="1.1" x="0px" y="0px" viewBox="0 0 100 125" enable-background="new 0 0 100 100" xml:space="preserve"><g><g><path d="M87.055,64.771H72.209v-2.023v-5.501v-4.792c0-0.216-0.254-21.624-22.209-21.624S27.791,52.239,27.791,52.455v4.792v5.501    v2.023H12.945c-0.981,0-1.779,0.798-1.779,1.779c0,0.98,0.798,1.778,1.779,1.778h74.109c0.98,0,1.778-0.798,1.778-1.778    C88.833,65.569,88.035,64.771,87.055,64.771z M28.791,57.747H44.79v4.501H28.791V57.747z M45.79,62.748v-5.501v-5.75h8.417v5.75    v5.501v0.249H45.79V62.748z M55.207,57.747h16.002v4.501H55.207V57.747z M50,31.831c20.946,0,21.208,19.782,21.209,20.624v4.292    H55.207v-5.75c0-0.276-0.224-0.5-0.5-0.5H45.29c-0.276,0-0.5,0.224-0.5,0.5v5.75H28.791v-4.292    C28.791,51.613,29.032,31.831,50,31.831z M28.791,63.248H44.79v0.249c0,0.276,0.224,0.5,0.5,0.5h9.417c0.276,0,0.5-0.224,0.5-0.5    v-0.249h16.002v1.523H28.791V63.248z M87.055,67.329H12.945c-0.43,0-0.779-0.35-0.779-0.778c0-0.43,0.35-0.779,0.779-0.779h15.346    h43.418h15.346c0.429,0,0.778,0.35,0.778,0.779C87.833,66.979,87.483,67.329,87.055,67.329z"/><path d="M30.722,49.7c0.124,0.018,1.172,0.154,2.728,0.154c3.184,0,8.494-0.574,12.378-3.927c2.106-1.818,3.49-4.232,4.172-7.181    c0.682,2.948,2.065,5.362,4.172,7.181c3.884,3.353,9.195,3.927,12.378,3.927c1.556,0,2.604-0.137,2.728-0.154    c0.273-0.037,0.465-0.29,0.427-0.563c-0.038-0.272-0.285-0.47-0.563-0.427c-0.085,0.012-8.884,1.154-14.319-3.543    c-2.823-2.438-4.276-6.044-4.321-10.717c0-0.032-0.013-0.062-0.02-0.092c-0.007-0.033-0.008-0.067-0.021-0.098    c-0.012-0.028-0.033-0.051-0.05-0.076c-0.019-0.027-0.033-0.059-0.057-0.082s-0.055-0.038-0.083-0.057    c-0.024-0.017-0.046-0.038-0.074-0.05c-0.034-0.015-0.072-0.017-0.109-0.023c-0.027-0.005-0.053-0.018-0.082-0.018    c-0.001,0-0.002,0-0.002,0c-0.001,0-0.002,0-0.003,0c-0.002,0-0.003,0-0.005,0c-0.26,0.003-0.464,0.204-0.486,0.457    c-0.001,0.014-0.009,0.024-0.009,0.038c-0.045,4.673-1.498,8.278-4.321,10.717c-5.435,4.696-14.233,3.555-14.319,3.543    c-0.28-0.041-0.526,0.154-0.563,0.427C30.257,49.41,30.448,49.663,30.722,49.7z"/></g></g><text x="0" y="115" fill="#000000" font-size="5px" font-weight="bold" font-family="'Helvetica Neue', Helvetica, Arial-Unicode, Arial, Sans-serif">Created by Lea Lafleur</text><text x="0" y="120" fill="#000000" font-size="5px" font-weight="bold" font-family="'Helvetica Neue', Helvetica, Arial-Unicode, Arial, Sans-serif">from the Noun Project</text></svg>