<svg xmlns="http://www.w3.org/2000/svg" xmlns:xlink="http://www.w3.org/1999/xlink" version="1.1" x="0px" y="0px" viewBox="0 0 100 125" enable-background="new 0 0 100 100" xml:space="preserve"><g><g><path d="M71.666,16.562H29.333c-0.276,0-0.5,0.224-0.5,0.5v7.048v3.276v25.005v3.276V83.17c0,0.276,0.224,0.5,0.5,0.5h42.333    c0.276,0,0.5-0.224,0.5-0.5V55.668v-3.276V27.387V24.11v-7.048C72.166,16.786,71.942,16.562,71.666,16.562z M71.166,82.67H29.833    V56.168h41.333V82.67z M71.166,55.168H29.833v-2.276h41.333V55.168z M71.166,51.892H29.833V27.887h41.333V51.892z M71.166,26.887    H29.833V24.61h41.333V26.887z M71.166,23.61H29.833v-6.048h41.333V23.61z"/><path d="M40.484,61.091c0.057,0.006,5.664,0.669,7.666,1.578c0.067,0.03,0.137,0.045,0.206,0.045c0.19,0,0.372-0.109,0.456-0.293    c0.114-0.252,0.003-0.548-0.249-0.662c-2.143-0.974-7.726-1.634-7.962-1.662c-0.282-0.026-0.522,0.166-0.555,0.439    S40.209,61.059,40.484,61.091z"/><path d="M48.033,70.504c-0.21,0.179-0.237,0.494-0.058,0.705c1.184,1.397,3.247,1.415,3.335,1.415    c0.245,0,0.453-0.177,0.493-0.419l1.488-9.024c1.976-1.193,5.796-1.281,6.868-1.281c0.302,0.001,0.29,0.003,0.299,0.003    c0.271,0,0.492-0.215,0.5-0.486c0.007-0.276-0.211-0.506-0.486-0.514c-0.225-0.009-5.431-0.126-7.919,1.563    c-0.113,0.077-0.189,0.197-0.212,0.333l-1.45,8.791c-0.557-0.073-1.541-0.304-2.154-1.027    C48.56,70.352,48.243,70.327,48.033,70.504z"/><path d="M49.05,75.28c-0.304-0.156-0.61-0.235-0.912-0.235c-1.924,0-2.752,3.086-2.84,3.438c-0.063,0.25,0.075,0.507,0.318,0.593    c0.827,0.292,2.347,0.439,4.518,0.439c0.96,0,1.674-0.03,1.674-0.03c0.137-0.007,0.264-0.067,0.354-0.17    c0.09-0.102,0.135-0.236,0.123-0.372C51.936,74.771,49.833,74.979,49.05,75.28z M50.134,78.516c-1.634,0-2.926-0.091-3.725-0.259    c0.295-0.863,0.925-2.212,1.729-2.212c0.187,0,0.393,0.073,0.612,0.217c0.158,0.103,0.365,0.106,0.527,0.012    c0.003-0.001,0.252-0.143,0.555-0.143c0.899,0,1.257,1.313,1.401,2.372C50.947,78.51,50.566,78.516,50.134,78.516z"/><path d="M46.8,64.822c0.103-0.203,0.056-0.45-0.115-0.602c-0.686-0.605-1.732-0.913-3.109-0.913c-1.39,0-2.63,0.314-2.683,0.328    c-0.144,0.037-0.264,0.137-0.328,0.271c-0.063,0.135-0.064,0.291-0.001,0.426c0.917,1.963,1.98,2.958,3.161,2.958    C45.523,67.29,46.749,64.923,46.8,64.822z M43.726,66.29c-0.651,0-1.326-0.623-1.969-1.812c0.459-0.08,1.125-0.17,1.819-0.17    c0.892,0,1.614,0.148,2.118,0.432C45.291,65.369,44.527,66.29,43.726,66.29z"/><path d="M59.744,64.065c-0.039-0.027-0.958-0.656-2.359-0.656c-1.119,0-2.221,0.392-3.273,1.163    c-0.107,0.079-0.179,0.197-0.198,0.328c-0.021,0.132,0.013,0.266,0.092,0.373c0.048,0.064,0.984,1.292,2.225,1.753    c-0.566,1.065-1.688,3.487-0.956,4.773c0.212,0.373,0.67,0.818,1.565,0.818c0.006,0,0.013,0,0.019,0c0,0,0.093,0.016,0.239,0.016    c0.633,0,1.162-0.28,1.455-0.769c0.547-0.914,0.251-2.471-0.882-4.73c0.915-0.232,1.673-1.055,2.251-2.47    C60.01,64.448,59.936,64.199,59.744,64.065z M57.693,71.353c-0.14,0.232-0.401,0.281-0.597,0.281l-0.165-0.01    c-0.608,0-0.745-0.24-0.79-0.318c-0.357-0.627,0.159-2.18,0.779-3.439C58.062,70.234,57.854,71.085,57.693,71.353z M57.121,66.211    c-0.729,0-1.501-0.639-1.97-1.132c0.735-0.444,1.484-0.67,2.233-0.67c0.618,0,1.115,0.157,1.427,0.291    C58.327,65.703,57.76,66.211,57.121,66.211z"/><path d="M39.354,34.875h22.291c0.276,0,0.5-0.224,0.5-0.5s-0.224-0.5-0.5-0.5H39.354c-0.276,0-0.5,0.224-0.5,0.5    S39.078,34.875,39.354,34.875z"/><path d="M43.687,39.042c-0.276,0-0.5,0.224-0.5,0.5s0.224,0.5,0.5,0.5h13.246c0.276,0,0.5-0.224,0.5-0.5s-0.224-0.5-0.5-0.5    H43.687z"/><path d="M37.1,45.042h26.42c0.276,0,0.5-0.224,0.5-0.5s-0.224-0.5-0.5-0.5H37.1c-0.276,0-0.5,0.224-0.5,0.5    S36.823,45.042,37.1,45.042z"/></g></g><text x="0" y="115" fill="#000000" font-size="5px" font-weight="bold" font-family="'Helvetica Neue', Helvetica, Arial-Unicode, Arial, Sans-serif">Created by Lea Lafleur</text><text x="0" y="120" fill="#000000" font-size="5px" font-weight="bold" font-family="'Helvetica Neue', Helvetica, Arial-Unicode, Arial, Sans-serif">from the Noun Project</text></svg>