<svg xmlns="http://www.w3.org/2000/svg" xmlns:xlink="http://www.w3.org/1999/xlink" version="1.1" x="0px" y="0px" viewBox="0 0 100 125" enable-background="new 0 0 100 100" xml:space="preserve"><g><g><path d="M37.297,37.262h3.375c0.276,0,0.5-0.224,0.5-0.5v-1.188c0-0.276-0.224-0.5-0.5-0.5h-3.375c-0.276,0-0.5,0.224-0.5,0.5    v1.188C36.797,37.038,37.021,37.262,37.297,37.262z M37.797,36.074h2.375v0.188h-2.375V36.074z"/><path d="M37.297,56.636h3.375c0.276,0,0.5-0.224,0.5-0.5v-1.188c0-0.276-0.224-0.5-0.5-0.5h-3.375c-0.276,0-0.5,0.224-0.5,0.5    v1.188C36.797,56.412,37.021,56.636,37.297,56.636z M37.797,55.448h2.375v0.188h-2.375V55.448z"/><path d="M59.203,35.574v1.188c0,0.276,0.224,0.5,0.5,0.5h3.375c0.276,0,0.5-0.224,0.5-0.5v-1.188c0-0.276-0.224-0.5-0.5-0.5    h-3.375C59.427,35.074,59.203,35.298,59.203,35.574z M60.203,36.074h2.375v0.188h-2.375V36.074z"/><path d="M63.078,54.448h-3.375c-0.276,0-0.5,0.224-0.5,0.5v1.188c0,0.276,0.224,0.5,0.5,0.5h3.375c0.276,0,0.5-0.224,0.5-0.5    v-1.188C63.578,54.672,63.354,54.448,63.078,54.448z M62.578,55.636h-2.375v-0.188h2.375V55.636z"/><path d="M71.269,65.864c-0.095-0.112-0.234-0.177-0.381-0.177h-2.496v-6.271h0.249c1.238,0,2.17-0.37,2.77-1.099    c0.961-1.169,0.651-2.805,0.641-2.858l-1.583-9.68c-0.417-2.767-1.571-4.016-2.076-4.441V30.583h3.414    c0.154,0,0.3-0.071,0.395-0.193c0.044-0.056,4.284-5.631-0.016-10.634c-0.095-0.11-0.233-0.174-0.379-0.174h-2.06    c-0.286-1.709-1.765-3.02-3.555-3.02h-3.113h-3.344h-0.031H40.672h-3.375h-3.113c-1.79,0-3.269,1.311-3.555,3.02h-2.06    c-0.146,0-0.284,0.063-0.379,0.174c-4.3,5.003-0.06,10.578-0.016,10.634c0.095,0.122,0.24,0.193,0.395,0.193h3.414v10.756    c-0.505,0.426-1.659,1.673-2.075,4.435l-1.581,9.671c-0.014,0.069-0.323,1.705,0.638,2.874c0.6,0.729,1.531,1.099,2.77,1.099    h0.249v6.271h-2.496c-0.146,0-0.286,0.064-0.381,0.177c-0.033,0.039-3.225,3.921-0.21,9.102c-0.681,1.002-2.656,4.581,0.166,9.111    c0.092,0.146,0.252,0.235,0.425,0.235h4.435h3.375h25.781h3.375h4.435c0.173,0,0.333-0.089,0.425-0.235    c2.822-4.53,0.847-8.109,0.166-9.111C74.493,69.785,71.302,65.903,71.269,65.864z M70.605,74.5h-2.714h-0.938v-7.812h0.938h2.747    C71.163,67.437,72.958,70.498,70.605,74.5z M67.392,65.688h-0.938h-2.875V61.75v-2.333h3.813V65.688z M37.297,34.834h3.375h0.812    v2.667h-0.812h-3.375h-0.812v-2.667H37.297z M41.172,17.562h18.031v9.021H41.172V17.562z M63.891,34.834v2.667h-0.812h-3.375    h-0.812v-2.667h0.812h3.375H63.891z M62.578,74.5H37.797v-7.812h2.875h19.031h2.875V74.5z M41.984,57.875    c0.276,0,0.5-0.224,0.5-0.5v-3.667c0-0.276-0.224-0.5-0.5-0.5h-0.812V42.376v-0.291h18.031v0.291v10.832h-0.812    c-0.276,0-0.5,0.224-0.5,0.5v3.667c0,0.276,0.224,0.5,0.5,0.5h0.812v0.542H41.172v-0.542H41.984z M60.203,65.688v-2.105    c0.343,0.223,0.749,0.355,1.188,0.355s0.845-0.133,1.188-0.355v2.105H60.203z M41.172,65.688V61.75v-2.333h18.031v2.333v3.938    H41.172z M40.172,65.688h-2.375v-2.105c0.343,0.223,0.749,0.355,1.188,0.355s0.845-0.133,1.188-0.355V65.688z M62.578,61.75    c0,0.655-0.532,1.188-1.188,1.188s-1.188-0.532-1.188-1.188v-2.678c0.017-0.05,0.031-0.101,0.031-0.155s-0.015-0.105-0.031-0.155    v-0.887h2.375V61.75z M63.078,56.875h-3.375h-0.812v-2.667h0.812h3.375h0.812v2.667H63.078z M60.203,53.208v-9    c0.343,0.223,0.749,0.355,1.188,0.355s0.845-0.133,1.188-0.355v9H60.203z M62.578,42.376c0,0.655-0.532,1.188-1.188,1.188    s-1.188-0.532-1.188-1.188v-3.875h2.375V42.376z M41.172,27.583h18.031v2H41.172V27.583z M41.172,30.583h18.031v3.251h-0.812    c-0.276,0-0.5,0.224-0.5,0.5v3.667c0,0.276,0.224,0.5,0.5,0.5h0.812v2.584H41.172v-2.584h0.812c0.276,0,0.5-0.224,0.5-0.5v-3.667    c0-0.276-0.224-0.5-0.5-0.5h-0.812V30.583z M40.172,38.501v3.875c0,0.655-0.532,1.188-1.188,1.188s-1.188-0.532-1.188-1.188    v-3.875H40.172z M37.797,44.208c0.343,0.223,0.749,0.355,1.188,0.355s0.845-0.133,1.188-0.355v9h-2.375V44.208z M37.297,54.208    h3.375h0.812v2.667h-0.812h-3.375h-0.812v-2.667H37.297z M40.172,57.875v3.875c0,0.655-0.532,1.188-1.188,1.188    s-1.188-0.532-1.188-1.188v-3.875H40.172z M37.797,75.5h24.781v7.812H37.797V75.5z M69.48,45.936l1.586,9.7    c0.003,0.013,0.229,1.252-0.433,2.052c-0.4,0.484-1.071,0.729-1.993,0.729h-5.062v-0.542h0.812c0.276,0,0.5-0.224,0.5-0.5v-3.667    c0-0.276-0.224-0.5-0.5-0.5h-0.812V42.376v-0.291h4.146C68.038,42.343,69.094,43.377,69.48,45.936z M67.392,41.085h-3.813v-2.584    h0.812c0.276,0,0.5-0.224,0.5-0.5v-3.667c0-0.276-0.224-0.5-0.5-0.5h-0.812v-3.251h3.813V41.085z M71.551,29.583h-7.973v-2h2.613    c1.993,0,3.614-1.621,3.614-3.614v-3.387h1.767C74.735,24.471,72.208,28.634,71.551,29.583z M68.806,20.176v3.793    c0,1.441-1.173,2.614-2.614,2.614h-2.613v-9.021h2.613C67.633,17.562,68.806,18.734,68.806,20.176z M62.578,27.083v6.751h-2.375    v-3.596c0.017-0.05,0.031-0.101,0.031-0.155v-3v-9.521h2.344V27.083z M40.172,27.083v3v3.751h-2.375v-6.751v-9.521h2.375V27.083z     M34.184,17.562h2.613v9.021h-2.613c-1.441,0-2.614-1.173-2.614-2.614v-3.793C31.569,18.734,32.742,17.562,34.184,17.562z     M28.803,20.582h1.767v3.387c0,1.993,1.621,3.614,3.614,3.614h2.613v2h-7.97C28.188,28.643,25.675,24.433,28.803,20.582z     M36.797,30.583v3.251h-0.812c-0.276,0-0.5,0.224-0.5,0.5v3.667c0,0.276,0.224,0.5,0.5,0.5h0.812v2.584h-3.813V30.583H36.797z     M29.741,57.688c-0.662-0.8-0.436-2.039-0.431-2.065l1.585-9.693c0.385-2.548,1.438-3.583,1.755-3.844h4.146v0.291v10.832h-0.812    c-0.276,0-0.5,0.224-0.5,0.5v3.667c0,0.276,0.224,0.5,0.5,0.5h0.812v0.542h-5.062C30.812,58.417,30.142,58.172,29.741,57.688z     M36.797,59.417v2.333v3.938h-2.875h-0.938v-6.271H36.797z M29.734,66.688h2.749h0.938V74.5h-0.938h-2.715    C27.396,70.467,29.196,67.441,29.734,66.688z M29.734,75.5h2.749h0.938v7.812h-3.653C27.396,79.279,29.196,76.254,29.734,75.5z     M34.422,66.688h2.375v16.625h-2.375V66.688z M63.578,66.688h2.375v16.625h-2.375V66.688z M70.605,83.312h-3.652V75.5h0.938h2.747    C71.163,76.249,72.958,79.311,70.605,83.312z"/></g></g><text x="0" y="115" fill="#000000" font-size="5px" font-weight="bold" font-family="'Helvetica Neue', Helvetica, Arial-Unicode, Arial, Sans-serif">Created by Lea Lafleur</text><text x="0" y="120" fill="#000000" font-size="5px" font-weight="bold" font-family="'Helvetica Neue', Helvetica, Arial-Unicode, Arial, Sans-serif">from the Noun Project</text></svg>