<svg xmlns="http://www.w3.org/2000/svg" xmlns:xlink="http://www.w3.org/1999/xlink" version="1.1" x="0px" y="0px" viewBox="0 0 100 125" enable-background="new 0 0 100 100" xml:space="preserve"><g><g><path d="M84.416,49.646L50.475,15.705c-0.195-0.195-0.512-0.195-0.707,0L15.826,49.646c-0.195,0.195-0.195,0.512,0,0.707    l33.941,33.941c0.098,0.098,0.226,0.146,0.354,0.146s0.256-0.049,0.354-0.146l33.941-33.941    C84.611,50.158,84.611,49.842,84.416,49.646z M50.121,83.234L16.887,50l33.234-33.234L83.355,50L50.121,83.234z"/><path d="M49.768,20.458L20.579,49.646c-0.195,0.195-0.195,0.512,0,0.707l29.188,29.188c0.098,0.098,0.226,0.146,0.354,0.146    s0.256-0.049,0.354-0.146l29.188-29.188c0.195-0.195,0.195-0.512,0-0.707L50.475,20.458    C50.279,20.263,49.963,20.263,49.768,20.458z M78.603,50L50.121,78.481L21.64,50l28.481-28.481L78.603,50z"/><path d="M57.926,52.232c-0.979,0-1.774,0.796-1.774,1.773c0,0.979,0.796,1.774,1.774,1.774c0.978,0,1.773-0.796,1.773-1.774    C59.699,53.028,58.903,52.232,57.926,52.232z M57.926,54.78c-0.427,0-0.774-0.348-0.774-0.774s0.348-0.773,0.774-0.773    s0.773,0.347,0.773,0.773S58.353,54.78,57.926,54.78z"/><path d="M42.317,52.089c-0.979,0-1.774,0.796-1.774,1.773c0,0.979,0.796,1.774,1.774,1.774c0.978,0,1.773-0.796,1.773-1.774    C44.091,52.885,43.295,52.089,42.317,52.089z M42.317,54.637c-0.427,0-0.774-0.348-0.774-0.774s0.348-0.773,0.774-0.773    s0.773,0.347,0.773,0.773S42.744,54.637,42.317,54.637z"/><path d="M46.228,40.099l-4.21-2.647c-0.648-0.354-1.278-0.534-1.873-0.534c-2.147,0-2.978,2.194-3.044,2.646l-1.541,4.162    c-2.609,1.516-3.919,2.443-3.93,2.451c-0.329,0.23-0.487,0.634-0.403,1.028c0.379,1.762,0.855,3.411,1.42,4.956    c0,0.001,0,0.001,0,0.002c0,0,0,0,0,0.001c1.056,2.888,2.445,5.374,4.136,7.479c0.002,0.005,0.002,0.011,0.004,0.016    c0.035,0.074,0.089,0.131,0.149,0.178c0.479,0.584,0.982,1.137,1.511,1.657c0.001,0.002,0.001,0.004,0.002,0.006    c0.029,0.052,0.076,0.082,0.119,0.118c0.314,0.306,0.642,0.593,0.974,0.876c0.001,0.002,0.001,0.005,0.003,0.008    c0.056,0.088,0.137,0.144,0.226,0.182c0.27,0.224,0.527,0.463,0.809,0.672c0.051,0.067,0.106,0.124,0.166,0.17    c0.026,0.021,0.051,0.031,0.075,0.046c0.006,0.003,0.011,0.007,0.017,0.01c0.054,0.028,0.104,0.05,0.139,0.059    c0.247,0.174,0.493,0.339,0.738,0.496c0.039,0.047,0.087,0.096,0.149,0.143c0.097,0.07,0.191,0.101,0.264,0.117    c4.246,2.568,7.958,2.599,7.995,2.599c0.152,0,3.783-0.028,7.94-2.518c3.115-1.864,7.029-5.472,9.539-12.338    c0.003-0.006,0.009-0.008,0.011-0.014c0.004-0.01,0.002-0.02,0.004-0.029c0.538-1.477,1.015-3.098,1.4-4.892    c0.084-0.394-0.074-0.797-0.4-1.025c-0.014-0.01-1.323-0.938-3.933-2.453l-1.507-4.051c-0.027-0.112-0.696-2.758-3.078-2.758    c-0.604,0-1.225,0.18-1.927,0.565l-4.156,2.616c-0.686-0.135-2.119-0.374-3.929-0.438C48.333,39.725,46.911,39.964,46.228,40.099z     M62.846,58.852c-12.604-4.704-23.309-0.884-25.432-0.021c-1.475-1.88-2.705-4.076-3.668-6.602    c2.56-1.019,16.117-5.769,32.74,0.032C65.446,54.973,64.182,57.132,62.846,58.852z M61.281,60.651l-1.683-0.966    c-0.237-0.138-0.544-0.057-0.683,0.185c-0.138,0.239-0.055,0.545,0.185,0.683l1.435,0.823c-0.1,0.091-0.198,0.179-0.297,0.266    l-1.276-0.812c-0.229-0.146-0.54-0.08-0.69,0.153c-0.148,0.233-0.079,0.542,0.153,0.69l1.007,0.641    c-0.09,0.071-0.181,0.142-0.27,0.209l-0.956-0.693c-0.223-0.161-0.535-0.114-0.698,0.11c-0.162,0.224-0.113,0.536,0.11,0.698    l0.688,0.499c-0.257,0.172-0.511,0.334-0.758,0.482c-3.914,2.343-7.271,2.375-7.426,2.375c-0.073-0.001-3.576-0.071-7.545-2.494    c-0.038-0.023-0.078-0.041-0.121-0.054c-0.002,0-0.008-0.002-0.016-0.004c-0.033-0.04-0.073-0.075-0.118-0.104    c-0.121-0.077-0.243-0.165-0.365-0.246l0.628-0.455c0.224-0.162,0.272-0.475,0.11-0.698c-0.163-0.225-0.476-0.271-0.698-0.11    l-0.901,0.654c-0.089-0.067-0.17-0.145-0.257-0.213l0.939-0.598c0.232-0.148,0.302-0.457,0.153-0.69    c-0.149-0.233-0.459-0.299-0.69-0.153l-1.214,0.772c-0.101-0.088-0.209-0.165-0.309-0.255l1.384-0.794    c0.239-0.138,0.322-0.443,0.185-0.683c-0.139-0.241-0.447-0.322-0.683-0.185l-1.619,0.93c-0.312-0.316-0.629-0.628-0.924-0.968    c2.499-0.973,12.415-4.215,24.113,0.024C61.879,60.017,61.581,60.346,61.281,60.651z M54.378,41.052l4.3-2.708    c0.524-0.287,0.988-0.427,1.42-0.427c1.604,0,2.086,1.912,2.123,2.05l1.587,4.275c0.04,0.109,0.118,0.201,0.219,0.259    c2.673,1.545,3.996,2.483,4.011,2.493c-0.339,1.576-0.752,3.005-1.211,4.325c-16.833-5.877-30.631-1.128-33.414-0.033    c-0.467-1.352-0.879-2.771-1.205-4.293c0.013-0.009,1.336-0.947,4.009-2.492c0.102-0.058,0.179-0.149,0.219-0.259l1.623-4.396    c0.004-0.02,0.483-1.93,2.087-1.93c0.425,0,0.894,0.139,1.366,0.396l4.354,2.739c0.111,0.069,0.245,0.093,0.369,0.066    c0.547-0.115,2.02-0.39,3.853-0.457c1.897,0.067,3.375,0.342,3.923,0.457C54.137,41.145,54.268,41.121,54.378,41.052z"/><path d="M40.831,39.807c-1.78,0-1.937,3.342-1.949,4.012c-0.003,0.159,0.07,0.311,0.197,0.407    c0.088,0.067,0.194,0.103,0.303,0.103c0.048,0,0.095-0.007,0.142-0.021l3.954-1.168c0.151-0.045,0.272-0.158,0.327-0.306    s0.037-0.312-0.049-0.445C42.618,40.627,41.688,39.807,40.831,39.807z M39.926,43.146c0.117-1.134,0.451-2.34,0.905-2.34    c0.149,0,0.683,0.123,1.708,1.567L39.926,43.146z"/><path d="M56.791,42.431l3.656,1.904c0.073,0.038,0.152,0.057,0.231,0.057c0.076,0,0.151-0.018,0.222-0.052    c0.143-0.07,0.243-0.205,0.271-0.362c0.082-0.468,0.449-2.854-0.398-3.864c-0.259-0.309-0.608-0.472-1.011-0.472    c-0.802,0-1.786,0.636-3.1,1.999c-0.109,0.113-0.158,0.271-0.133,0.428C56.555,42.224,56.651,42.358,56.791,42.431z     M59.762,40.642c0.107,0,0.176,0.032,0.244,0.114c0.32,0.381,0.354,1.449,0.27,2.362l-2.416-1.259    C59.005,40.771,59.562,40.642,59.762,40.642z"/><path d="M50.304,58.24c-0.095,0-0.162,0.002-0.172,0.004c-0.031-0.002-0.1-0.004-0.193-0.004c-0.622,0-1.737,0.104-2.229,0.8    c-0.182,0.258-0.351,0.701-0.109,1.377c0.18,0.431,1.148,2.579,2.522,2.579c1.372,0,2.341-2.148,2.531-2.605    c0.23-0.649,0.062-1.093-0.12-1.351C52.041,58.344,50.926,58.24,50.304,58.24z M51.721,60.03    c-0.345,0.824-1.093,1.966-1.599,1.966H50.12c-0.504,0-1.252-1.142-1.588-1.939c-0.106-0.298-0.031-0.405-0.006-0.44    c0.159-0.225,0.727-0.376,1.412-0.376l0.212,0.003l0.153-0.003c0.686,0,1.253,0.151,1.412,0.376    C51.741,59.651,51.816,59.759,51.721,60.03z"/><path d="M31.527,43.19c0.128,0,0.256-0.049,0.354-0.146L43.306,31.62c0.195-0.195,0.195-0.512,0-0.707s-0.512-0.195-0.707,0    L31.174,42.337c-0.195,0.195-0.195,0.512,0,0.707C31.271,43.142,31.399,43.19,31.527,43.19z"/><path d="M68.359,57.021L56.935,68.445c-0.195,0.195-0.195,0.512,0,0.707c0.098,0.098,0.226,0.146,0.354,0.146    s0.256-0.049,0.354-0.146l11.425-11.424c0.195-0.195,0.195-0.512,0-0.707S68.555,56.826,68.359,57.021z"/><path d="M68.534,43.187c0.098,0.098,0.226,0.146,0.354,0.146s0.256-0.049,0.354-0.146c0.195-0.195,0.195-0.512,0-0.707    L57.817,31.054c-0.195-0.195-0.512-0.195-0.707,0s-0.195,0.512,0,0.707L68.534,43.187z"/><path d="M31.708,56.815c-0.195-0.195-0.512-0.195-0.707,0s-0.195,0.512,0,0.707l11.424,11.424    c0.098,0.098,0.226,0.146,0.354,0.146s0.256-0.049,0.354-0.146c0.195-0.195,0.195-0.512,0-0.707L31.708,56.815z"/></g></g><text x="0" y="115" fill="#000000" font-size="5px" font-weight="bold" font-family="'Helvetica Neue', Helvetica, Arial-Unicode, Arial, Sans-serif">Created by Lea Lafleur</text><text x="0" y="120" fill="#000000" font-size="5px" font-weight="bold" font-family="'Helvetica Neue', Helvetica, Arial-Unicode, Arial, Sans-serif">from the Noun Project</text></svg>