<svg xmlns="http://www.w3.org/2000/svg" xmlns:xlink="http://www.w3.org/1999/xlink" version="1.1" x="0px" y="0px" viewBox="0 0 100 125" enable-background="new 0 0 100 100" xml:space="preserve"><g><path d="M64.841,75.236c0.626-1.685,2.019-6.355,0.541-11.413c0-0.007,0.004-0.014,0.003-0.021   c-0.006-0.077-0.034-0.147-0.073-0.21c-0.795-2.573-2.35-5.231-5.134-7.639c0.086-0.237,0.141-0.49,0.141-0.758   c0-1.114-0.818-2.036-1.884-2.213c0.928-1.325,1.852-3.376,1.832-6.287c0-0.002,0-0.003,0-0.004c0-0.012,0.001-0.021,0.001-0.033   c-0.044-4.703-2.601-7.349-3.581-8.192c0.152-0.304,0.247-0.642,0.247-1.004c0-1.131-0.842-2.061-1.931-2.218   c1.19-1.109,2.446-2.989,2.442-6.006c-0.003-2.747-1.171-4.609-2.381-5.811c-0.055-0.141-0.164-0.248-0.311-0.293   c-0.814-0.731-1.596-1.171-2.022-1.377c0.098-0.223,0.154-0.468,0.154-0.727c0-1-0.812-1.812-1.812-1.812h-3.84   c-1,0-1.812,0.812-1.812,1.812c0,0.261,0.058,0.508,0.157,0.732c-0.23,0.117-0.574,0.314-0.971,0.584   c-0.116,0.029-0.209,0.101-0.275,0.19c-0.508,0.372-1.076,0.865-1.605,1.492c-0.001,0.001-0.003,0.003-0.004,0.005   c-0.005,0.006-0.011,0.011-0.016,0.017c-1.252,1.492-1.873,3.239-1.846,5.178c-0.001,0.044-0.026,3.52,2.617,6.036   c-1.011,0.22-1.772,1.12-1.772,2.196c0,0.256,0.052,0.498,0.131,0.728c-0.937,0.576-3.026,2.306-3.739,6.561   c-0.654,3.909,0.95,6.877,1.896,8.23c-1.075,0.168-1.903,1.094-1.903,2.215c0,0.257,0.053,0.499,0.132,0.729   c-0.713,0.562-2.455,2.104-3.854,4.735c-1.568,2.949-2.929,7.844-0.749,14.562c-1.212,0.156-2.153,1.184-2.153,2.436   c0,1.361,1.107,2.469,2.469,2.469h30.438c1.361,0,2.469-1.107,2.469-2.469C66.841,76.456,65.979,75.456,64.841,75.236z    M64.218,63.35c-5.841,0.116-8.294-4.433-8.966-6.021c0.426-0.138,0.793-0.395,1.066-0.736c0.413,0.516,1.04,0.854,1.75,0.854   c0.609,0,1.16-0.245,1.566-0.641C62.011,58.889,63.428,61.146,64.218,63.35z M54.568,56.445c-0.689,0-1.25-0.561-1.25-1.25   s0.561-1.25,1.25-1.25s1.25,0.561,1.25,1.25S55.258,56.445,54.568,56.445z M58.068,53.945c0.689,0,1.25,0.561,1.25,1.25   s-0.561,1.25-1.25,1.25s-1.25-0.561-1.25-1.25c0-0.228,0.077-0.429,0.184-0.612c0.153-0.13,0.34-0.303,0.547-0.517   C57.708,53.992,57.881,53.945,58.068,53.945z M59.223,45.786c-1.279-0.786-2.103-1.74-2.437-2.849   c-0.337-1.117-0.111-2.169,0.114-2.817C57.82,41.207,58.986,43.084,59.223,45.786z M55.934,37.462c0,0.689-0.561,1.25-1.25,1.25   s-1.25-0.561-1.25-1.25s0.561-1.25,1.25-1.25S55.934,36.772,55.934,37.462z M51.209,38.707c-0.126-0.027-0.243-0.048-0.356-0.062   c-0.524-0.147-0.917-0.609-0.918-1.18c0-0.001,0-0.002,0-0.003s0-0.002,0-0.003c0.002-0.688,0.561-1.247,1.249-1.247   c0.689,0,1.25,0.561,1.25,1.25C52.434,38.143,51.886,38.692,51.209,38.707z M42.902,39.438c0.315,0.169,0.671,0.274,1.054,0.274   c0.774,0,1.459-0.394,1.864-0.992c0.405,0.599,1.09,0.992,1.864,0.992c0.165,0,0.324-0.021,0.479-0.054   c-0.024,0.032-0.061,0.057-0.083,0.091c-0.614,0.916-0.25,1.995-0.234,2.04c0.091,0.26,0.373,0.397,0.633,0.308   c0.261-0.089,0.399-0.372,0.313-0.633c-0.003-0.007-0.216-0.666,0.122-1.163c0.34-0.499,1.112-0.646,1.661-0.684   c0.171,0.049,0.348,0.081,0.533,0.087c0.668,0.165,1.801,0.641,2.14,2.039c0.126,0.52,0.457,2.319-0.574,3.67   c-0.701,0.919-1.891,1.409-3.586,1.46c-0.024,0.005-2.71,0.33-4.515-1.449C43.296,44.165,42.739,42.149,42.902,39.438z    M48.934,37.465c-0.002,0.688-0.561,1.247-1.249,1.247c-0.689,0-1.25-0.561-1.25-1.25s0.561-1.25,1.25-1.25   c0.688,0,1.247,0.559,1.249,1.247c0,0.001,0,0.002,0,0.003S48.934,37.464,48.934,37.465z M47.233,22.844h3.84   c0.391,0,0.75-0.127,1.046-0.337c0.204,0.084,1.064,0.477,1.974,1.284c-0.071,0.738-1.259,1.031-1.293,1.04   c-3.183,0.88-4.629-1.371-4.688-1.466c-0.103-0.17-0.293-0.259-0.496-0.235c-1.278,0.179-1.892-0.021-2.176-0.205   c0.36-0.225,0.637-0.363,0.75-0.416C46.485,22.718,46.844,22.844,47.233,22.844z M47.233,20.156h3.84   c0.482,0,0.875,0.393,0.875,0.875s-0.393,0.875-0.875,0.875h-3.84c-0.482,0-0.875-0.393-0.875-0.875S46.751,20.156,47.233,20.156z    M42.1,27.145c-0.01,0.981,0.166,2.048,0.77,2.938c0.813,1.2,2.222,1.834,4.187,1.884c0.032,0.001,0.064,0.001,0.097,0.001   c1.382,0,3.86-0.693,3.95-3.37c0.056-1.655-0.752-2.414-1.439-2.759c-1.023-0.514-2.316-0.365-2.722-0.04   c-0.202,0.161-0.243,0.462-0.082,0.665c0.161,0.202,0.449,0.24,0.651,0.079c0.161-0.09,1.115-0.246,1.854,0.201   c0.561,0.339,0.83,0.952,0.801,1.822c-0.084,2.493-2.976,2.464-3.086,2.463c-1.644-0.042-2.798-0.536-3.432-1.471   c-1.17-1.723-0.331-4.475-0.169-4.961c0.367-0.429,0.752-0.781,1.12-1.074c0.39,0.393,1.191,0.808,2.857,0.634   c0.466,0.579,1.754,1.881,3.926,1.881c0.506,0,1.06-0.071,1.662-0.238c0.582-0.131,1.421-0.515,1.826-1.205   c0.883,1.058,1.635,2.562,1.638,4.646c0.006,5.012-3.741,6.437-3.9,6.494l0,0c-0.39-0.321-0.881-0.522-1.424-0.522   c-0.71,0-1.337,0.337-1.75,0.853c-0.412-0.516-1.039-0.853-1.749-0.853c-0.633,0-1.203,0.265-1.613,0.688   c-4.288-2.019-4.275-6.459-4.272-6.667C41.789,28.5,41.904,27.808,42.1,27.145z M43.956,36.212c0.689,0,1.25,0.561,1.25,1.25   s-0.561,1.25-1.25,1.25s-1.25-0.561-1.25-1.25S43.267,36.212,43.956,36.212z M39.084,44.916c0.545-3.257,1.934-4.849,2.815-5.554   c-0.185,3.03,0.479,5.309,1.98,6.782c2.158,2.119,5.21,1.735,5.288,1.725c1.96-0.057,3.407-0.679,4.301-1.849   c1.3-1.702,0.904-3.885,0.752-4.514c-0.27-1.113-0.94-1.827-1.671-2.27c0.144-0.11,0.271-0.238,0.384-0.379   c0.413,0.516,1.04,0.854,1.75,0.854c0.515,0,0.983-0.181,1.362-0.473c0.028,0.025,0.061,0.055,0.092,0.084   c-0.3,0.671-0.819,2.193-0.313,3.89c0.453,1.518,1.614,2.773,3.436,3.743c-0.048,3.276-1.389,5.297-2.328,6.309   c-0.236,0.14-0.442,0.32-0.613,0.534c-0.413-0.516-1.04-0.854-1.75-0.854s-1.337,0.338-1.75,0.854   c-0.413-0.516-1.04-0.854-1.75-0.854s-1.337,0.338-1.75,0.854c-0.412-0.516-1.039-0.854-1.749-0.854   c-0.774,0-1.459,0.395-1.864,0.992c-0.405-0.598-1.09-0.992-1.864-0.992c-0.71,0-1.337,0.338-1.75,0.854   c-0.179-0.224-0.397-0.41-0.647-0.553c-0.022-0.05-0.048-0.1-0.087-0.142C41.325,53.071,38.279,49.721,39.084,44.916z    M49.819,55.192c0.002-0.688,0.561-1.247,1.249-1.247c0.689,0,1.25,0.561,1.25,1.25s-0.561,1.25-1.25,1.25   c-0.688,0-1.247-0.559-1.249-1.247c0-0.001,0-0.002,0-0.003S49.819,55.193,49.819,55.192z M48.818,55.198   c-0.002,0.688-0.561,1.247-1.249,1.247c-0.689,0-1.25-0.561-1.25-1.25s0.561-1.25,1.25-1.25c0.688,0,1.247,0.559,1.249,1.247   c0,0.001,0,0.002,0,0.003S48.818,55.197,48.818,55.198z M43.841,56.445c-0.689,0-1.25-0.561-1.25-1.25s0.561-1.25,1.25-1.25   s1.25,0.561,1.25,1.25S44.53,56.445,43.841,56.445z M40.341,53.945c0.689,0,1.25,0.561,1.25,1.25s-0.561,1.25-1.25,1.25   s-1.25-0.561-1.25-1.25S39.651,53.945,40.341,53.945z M38.746,56.78c0.408,0.41,0.973,0.665,1.595,0.665   c0.71,0,1.337-0.338,1.75-0.854c0.1,0.124,0.211,0.237,0.335,0.338c-3.047,3.655-5.799,3.863-6.956,3.742   C36.67,58.594,38.08,57.314,38.746,56.78z M34.976,61.61c0.233,0.043,0.561,0.083,0.964,0.083c1.61,0,4.441-0.644,7.412-4.306   c0.158,0.036,0.32,0.058,0.489,0.058c0.005,0,0.01-0.001,0.015-0.002c0.012,1.273,0.242,4.208,2.025,5.989   c0.943,0.941,2.173,1.417,3.635,1.417c0.158,0,0.32-0.006,0.484-0.017c0.094,0,0.917-0.02,1.569-0.671   c0.483-0.484,0.729-1.17,0.728-2.038c-0.001-0.733-0.204-1.304-0.604-1.696c-0.597-0.585-1.432-0.562-1.702-0.563   c-0.962,0.018-1.64,0.448-1.859,1.181c-0.08,0.264,0.07,0.543,0.335,0.622c0.263,0.08,0.543-0.069,0.622-0.335   c0.113-0.375,0.563-0.461,0.922-0.468c0.281-0.014,0.717,0.018,0.982,0.277c0.202,0.197,0.304,0.528,0.305,0.983   c0.001,1.602-1.084,1.704-1.331,1.709c-1.414,0.092-2.545-0.277-3.376-1.107c-1.638-1.633-1.743-4.595-1.732-5.535   c0.34-0.174,0.635-0.424,0.848-0.738c0.405,0.598,1.09,0.992,1.864,0.992c0.71,0,1.337-0.338,1.749-0.854   c0.413,0.516,1.04,0.854,1.75,0.854s1.337-0.338,1.75-0.854c0.342,0.427,0.829,0.727,1.392,0.817   c0.555,1.377,3.214,6.961,9.819,6.961c0.166,0,0.341-0.012,0.512-0.019c1.415,5.065-0.249,9.644-0.748,10.837H34.652   C32.618,69.167,33.485,64.68,34.976,61.61z M64.372,79.125H33.935c-0.81,0-1.469-0.659-1.469-1.469s0.659-1.468,1.469-1.468h0.361   h29.823h0.253c0.81,0,1.469,0.658,1.469,1.468S65.182,79.125,64.372,79.125z"/></g><text x="0" y="115" fill="#000000" font-size="5px" font-weight="bold" font-family="'Helvetica Neue', Helvetica, Arial-Unicode, Arial, Sans-serif">Created by Lea Lafleur</text><text x="0" y="120" fill="#000000" font-size="5px" font-weight="bold" font-family="'Helvetica Neue', Helvetica, Arial-Unicode, Arial, Sans-serif">from the Noun Project</text></svg>