<svg xmlns="http://www.w3.org/2000/svg" xmlns:xlink="http://www.w3.org/1999/xlink" version="1.1" x="0px" y="0px" viewBox="0 0 100 125" enable-background="new 0 0 100 100" xml:space="preserve"><g><g><circle cx="50.141" cy="76.496" r="0.547"/><path d="M80.145,31.555c-2.034-1.11-4.03-1.228-4.472-1.24l-11.439-4.556l-1.745-5.115c-0.058-0.168-0.2-0.293-0.374-0.329    s-0.353,0.025-0.472,0.156l-9.67,10.797h-3.517l-9.67-10.797c-0.118-0.131-0.297-0.192-0.472-0.156    c-0.174,0.036-0.316,0.161-0.374,0.329l-1.735,5.086l-0.633,0.245c-0.069,0.012-0.134,0.036-0.191,0.074l-11.039,4.268    c-0.967,0.05-8.602,0.736-8.602,10.018l-0.067,18.638v0.001v0.001v3.458c0,0.276,0.224,0.5,0.5,0.5h7.774v16.381    c0,0.276,0.224,0.5,0.5,0.5h10.135h3.583h24.1h3.583h9.723c0.276,0,0.5-0.224,0.5-0.5V62.932h8.17c0.276,0,0.5-0.224,0.5-0.5    v-3.458v-18.69C84.74,35.143,82.241,32.699,80.145,31.555z M83.74,40.283v18.19h-7.67V31.346c0.729,0.07,2.157,0.302,3.596,1.087    C82.369,33.908,83.74,36.55,83.74,40.283z M30.825,49.557h2.881v8.823h-2.881V49.557z M32.908,28.895    c0.444,0,0.806-0.361,0.806-0.805c0-0.106-0.023-0.207-0.061-0.3l1.392-0.538l-0.255,1.935l-0.398,0.157    c-0.003,0.001-0.005,0.002-0.007,0.003l-6.923,2.736l-0.627-1.657l5.325-2.059C32.273,28.673,32.563,28.895,32.908,28.895z     M35.431,30.008c0.169-0.066,0.288-0.22,0.312-0.399l0.366-2.768l0.344-0.134l1.212,1.511v15.136h-2.583V30.146L35.431,30.008z     M41.92,44.354v4.203h-4.35c-0.152,0-0.297,0.069-0.392,0.188c-0.332,0.418-1.279,0.418-1.611,0    c-0.095-0.119-0.239-0.188-0.392-0.188h-4.351v-4.203H41.92z M39.039,49.557h2.881v8.823h-2.881V49.557z M34.706,49.557h0.254    c0.359,0.334,0.87,0.527,1.413,0.527s1.054-0.193,1.413-0.527h0.253v8.823h-3.333V49.557z M38.665,59.38h3.755    c0.276,0,0.5-0.224,0.5-0.5v-9.823v-5.203c0-0.276-0.224-0.5-0.5-0.5h-3.755V29.465l6.678,8.324    c0.096,0.119,0.239,0.188,0.39,0.188c0.021,0,0.044-0.001,0.065-0.004c0.174-0.023,0.322-0.136,0.393-0.296l0.315-0.72    l0.357,1.596c0.052,0.229,0.254,0.391,0.488,0.391h0.121l-1.555,28.108c-0.006,0.098,0.018,0.195,0.067,0.28l2.075,3.542v7.938    h-9.396V59.38z M48.56,32.268h3.31l1.375,3.14l-0.567,2.536h-4.925l-0.567-2.536L48.56,32.268z M50.168,72.493l-3.243-5.537    l1.549-28.013h3.429l1.591,28.01L50.168,72.493z M49.059,78.812v-6.234l0.673,1.148c0.09,0.152,0.253,0.246,0.429,0.247    c0.001,0,0.002,0,0.003,0c0.176,0,0.338-0.092,0.429-0.243l0.676-1.126v6.208H49.059z M52.266,70.941l2.164-3.606    c0.052-0.086,0.076-0.186,0.07-0.285l-1.596-28.106h0.173c0.234,0,0.437-0.162,0.488-0.391l0.357-1.596l0.315,0.72    c0.07,0.16,0.219,0.272,0.393,0.296c0.021,0.003,0.044,0.004,0.065,0.004c0.15,0,0.294-0.068,0.39-0.188l6.679-8.325v6.887    l-0.871-0.093c-0.196-0.022-0.388,0.076-0.486,0.248s-0.087,0.386,0.03,0.545l1.145,1.558l-1.14,1.562    c-0.117,0.16-0.129,0.374-0.029,0.546s0.293,0.269,0.487,0.246l0.864-0.096v2.487h-3.756c-0.276,0-0.5,0.224-0.5,0.5v5.203v9.823    c0,0.276,0.224,0.5,0.5,0.5h3.756v19.433h-9.499V70.941z M66.194,37.365l-0.688,0.944c-0.128,0.176-0.128,0.415,0.001,0.59    l0.688,0.937l-1.158-0.123c-0.214-0.024-0.424,0.097-0.511,0.296l-0.467,1.066l-0.473-1.065c-0.081-0.183-0.261-0.298-0.457-0.298    c-0.019,0-0.036,0.001-0.055,0.003l-1.157,0.128l0.687-0.94c0.129-0.176,0.129-0.415,0-0.591l-0.69-0.938l1.157,0.123    c0.212,0.024,0.423-0.097,0.511-0.296l0.469-1.066l0.472,1.064c0.088,0.199,0.287,0.315,0.512,0.295L66.194,37.365z M61.39,58.38    h-2.881v-8.823h2.881V58.38z M62.39,49.557h0.254c0.359,0.334,0.87,0.527,1.413,0.527s1.054-0.193,1.413-0.527h0.253v8.823H62.39    V49.557z M66.723,49.557h2.881v8.823h-2.881V49.557z M69.604,48.557h-4.35c-0.152,0-0.297,0.069-0.392,0.188    c-0.332,0.418-1.279,0.418-1.611,0c-0.095-0.119-0.239-0.188-0.392-0.188h-4.351v-4.203h7.331h0.008h3.756V48.557z M62.765,43.354    v-2.598l0.058-0.007l0.783,1.769c0.08,0.182,0.259,0.298,0.457,0.298h0.001c0.198,0,0.377-0.118,0.457-0.299l0.775-1.771    l0.101,0.011l-0.041,2.597H62.765z M65.289,36.459l-0.782-1.766c-0.08-0.182-0.259-0.298-0.457-0.298c0,0,0,0-0.001,0    c-0.198,0-0.377,0.117-0.457,0.299l-0.777,1.769l-0.05-0.005v-8.241l1.195-1.49l0.324,0.129l0.393,2.758    c0.025,0.178,0.145,0.329,0.312,0.395l0.359,0.143v6.302L65.289,36.459z M65.626,29.185l-0.271-1.902l1.396,0.556    c-0.058,0.111-0.098,0.231-0.098,0.364c0,0.443,0.361,0.805,0.806,0.805c0.365,0,0.662-0.25,0.76-0.584l5.321,2.119l-0.582,1.541    L65.626,29.185z M61.817,21.774l1.387,4.064c-0.007,0.015-0.02,0.024-0.025,0.039c-0.033,0.084-0.034,0.17-0.022,0.254    L54.823,36.52l-2.04-4.658L61.817,21.774z M38.611,21.774l9.034,10.087l-2.04,4.658l-8.373-10.438    c0.003-0.06-0.009-0.121-0.029-0.181L38.611,21.774z M16.74,40.336c0-7.634,5.491-8.807,7.207-8.988v27.126h-7.272L16.74,40.336z     M16.673,61.932v-2.458h7.274v2.458H16.673z M24.947,62.432v-3.458V31.155l0.955-0.369l0.804,2.125    c0.048,0.125,0.143,0.227,0.266,0.28c0.064,0.028,0.133,0.043,0.202,0.043c0.062,0,0.125-0.012,0.184-0.035l6.725-2.658v12.812    h-3.757c-0.276,0-0.5,0.224-0.5,0.5v5.203v9.823c0,0.276,0.224,0.5,0.5,0.5h3.757v19.433h-9.135V62.432z M35.082,78.812V59.38    h2.583v19.433H35.082z M62.765,78.812V59.38h2.583v19.433H62.765z M75.07,78.812h-8.723V59.38h3.756c0.276,0,0.5-0.224,0.5-0.5    v-9.823v-5.203c0-0.276-0.224-0.5-0.5-0.5h-3.748l0.039-2.49l0.823,0.087c0.195,0.021,0.388-0.076,0.486-0.248    s0.087-0.386-0.03-0.545l-1.144-1.555l1.139-1.564c0.116-0.16,0.128-0.374,0.028-0.545c-0.099-0.171-0.288-0.263-0.487-0.246    l-0.862,0.095v-5.797l6.714,2.654c0.059,0.023,0.121,0.035,0.184,0.035c0.069,0,0.138-0.015,0.202-0.043    c0.123-0.054,0.218-0.155,0.266-0.28l0.756-1.999l0.602,0.239v27.822v3.458V78.812z M83.74,61.932h-7.67v-2.458h7.67V61.932z"/><circle cx="36.372" cy="47.769" r="0.708"/><circle cx="64.056" cy="47.769" r="0.708"/><path d="M64.057,37.312c-0.714,0-1.294,0.58-1.294,1.293c0,0.714,0.58,1.294,1.294,1.294c0.713,0,1.293-0.58,1.293-1.294    C65.35,37.893,64.77,37.312,64.057,37.312z M64.057,38.899c-0.162,0-0.294-0.132-0.294-0.294c0-0.161,0.132-0.293,0.294-0.293    c0.161,0,0.293,0.132,0.293,0.293C64.35,38.768,64.218,38.899,64.057,38.899z"/></g></g><text x="0" y="115" fill="#000000" font-size="5px" font-weight="bold" font-family="'Helvetica Neue', Helvetica, Arial-Unicode, Arial, Sans-serif">Created by Lea Lafleur</text><text x="0" y="120" fill="#000000" font-size="5px" font-weight="bold" font-family="'Helvetica Neue', Helvetica, Arial-Unicode, Arial, Sans-serif">from the Noun Project</text></svg>