<svg xmlns="http://www.w3.org/2000/svg" xmlns:xlink="http://www.w3.org/1999/xlink" version="1.1" x="0px" y="0px" viewBox="0 0 100 125" enable-background="new 0 0 100 100" xml:space="preserve"><g><path d="M67.749,80.333h-2.971l-5.886-51.666h2.606c0.276,0,0.5-0.224,0.5-0.5v-9.163c0-0.276-0.224-0.5-0.5-0.5h-5.615v-3.467   l1.357-1.156c0.12-0.103,0.185-0.255,0.175-0.412s-0.093-0.301-0.225-0.387c-2.393-1.568-4.699-2.28-6.794-2.49   c0.153-0.258,0.247-0.555,0.247-0.876c0-0.951-0.773-1.725-1.725-1.725s-1.725,0.773-1.725,1.725c0,0.327,0.097,0.63,0.255,0.891   c-4.014,0.447-6.712,2.462-6.757,2.497c-0.118,0.091-0.189,0.229-0.195,0.379c-0.005,0.149,0.057,0.293,0.169,0.393l1.439,1.271   v3.357h-5.857c-0.276,0-0.5,0.224-0.5,0.5v9.163c0,0.276,0.224,0.5,0.5,0.5h2.852l-6.377,51.666h-2.225c-0.276,0-0.5,0.224-0.5,0.5   v3.104c0,0.276,0.224,0.5,0.5,0.5h37.25c0.276,0,0.5-0.224,0.5-0.5v-3.104C68.249,80.557,68.025,80.333,67.749,80.333z    M35.181,68.589h3.772l-0.433,5.545h-4.023L35.181,68.589z M35.988,62.045h3.475l-0.432,5.544h-3.727L35.988,62.045z M36.797,55.5   h3.177l-0.433,5.545h-3.429L36.797,55.5z M37.604,48.955h2.88L40.052,54.5H36.92L37.604,48.955z M38.412,42.411h2.582l-0.432,5.544   h-2.835L38.412,42.411z M39.22,35.866h2.285l-0.433,5.545h-2.537L39.22,35.866z M48.516,28.667l0.013,6.199h-5.943l0.483-6.199   H48.516z M54.92,28.667l0.464,6.199h-5.868l-0.015-6.199H54.92z M49.562,54.5l-0.014-5.545h6.892l0.416,5.545H49.562z M56.931,55.5   l0.416,5.545h-7.77L49.564,55.5H56.931z M49.547,47.955l-0.013-5.544h6.416l0.415,5.544H49.547z M48.556,47.955h-6.991l0.433-5.544   h6.547L48.556,47.955z M48.558,48.955l0.012,5.545h-7.516l0.433-5.545H48.558z M48.571,55.5l0.012,5.545h-8.04l0.433-5.545H48.571z    M48.585,62.045l0.012,5.544h-8.563l0.433-5.544H48.585z M49.58,62.045h7.842l0.415,5.544h-8.244L49.58,62.045z M57.912,68.589   l0.416,5.545h-8.72l-0.014-5.545H57.912z M58.916,68.589h3.518l0.632,5.545h-3.733L58.916,68.589z M58.841,67.589l-0.415-5.544   h3.263l0.631,5.544H58.841z M58.351,61.045L57.935,55.5h3.008l0.632,5.545H58.351z M57.859,54.5l-0.415-5.545h2.753l0.632,5.545   H57.859z M57.369,47.955l-0.416-5.544h2.498l0.632,5.544H57.369z M59.338,41.411h-2.459l-0.416-5.545h2.243L59.338,41.411z    M55.875,41.411h-6.344l-0.013-5.545h5.94L55.875,41.411z M48.53,35.866l0.012,5.545h-6.468l0.433-5.545H48.53z M39.955,68.589   h8.644l0.012,5.545h-9.088L39.955,68.589z M48.612,75.134l0.011,5.199h-9.584l0.405-5.199H48.612z M49.623,80.333l-0.013-5.199   h8.793l0.39,5.199H49.623z M59.796,80.333l-0.39-5.199h3.773l0.592,5.199H59.796z M58.592,34.866h-2.204l-0.465-6.199h1.963   L58.592,34.866z M58.332,27.667h-8.833l-0.003-1.163h11.503v1.163H58.332z M43.106,25.504v-3.837h2.194v3.837H43.106z    M39.912,25.504v-3.837h2.194v3.837H39.912z M36.749,25.504v-3.837h2.163v3.837H36.749z M48.427,13.692l0.062,4.812h-2.188v-4.5   C46.945,13.853,47.658,13.738,48.427,13.692z M60.999,25.504h-1.921v-3.837h1.921V25.504z M58.078,25.504h-2.194v-3.837h2.194   V25.504z M54.884,25.504h-2.194v-3.837h2.194V25.504z M52.689,20.667v-1.163h2.194v1.163H52.689z M51.689,20.667h-2.194v-1.163   h2.194V20.667z M49.489,18.504l-0.062-4.827c0.723,0.017,1.479,0.101,2.263,0.28v4.547H49.489z M48.496,19.504l0.003,1.163h-2.198   v-1.163H48.496z M45.301,20.667h-2.194v-1.163h2.194V20.667z M46.301,21.667h2.2l0.008,3.837h-2.208V21.667z M49.495,21.667h2.194   v3.837h-2.194V21.667z M60.999,20.667h-1.921v-1.163h1.921V20.667z M58.078,19.504v1.163h-2.194v-1.163H58.078z M52.689,18.504   v-4.269c0.703,0.231,1.42,0.538,2.144,0.947c0.014,0.021,0.019,0.044,0.035,0.062c0.005,0.005,0.011,0.007,0.016,0.012v3.247   H52.689z M48.92,8.991c0.399,0,0.725,0.325,0.725,0.725s-0.325,0.725-0.725,0.725s-0.725-0.325-0.725-0.725   S48.521,8.991,48.92,8.991z M56.074,13.561l-0.84,0.716c-2.188-1.213-4.318-1.616-6.201-1.598   c-0.037-0.009-0.073-0.022-0.113-0.022c-0.002,0-0.004,0-0.007,0c-0.042,0.001-0.079,0.016-0.118,0.025   c-1.1,0.031-2.106,0.195-2.983,0.419c-0.004,0-0.007-0.002-0.011-0.002c-0.081,0-0.155,0.023-0.223,0.058   c-1.388,0.379-2.413,0.882-2.909,1.152L41.81,13.55C43.527,12.464,49.31,9.493,56.074,13.561z M43.106,15.207   c0.361-0.2,1.135-0.591,2.194-0.93v4.227h-2.194V15.207z M42.106,20.667h-2.194v-1.163h2.194V20.667z M38.912,19.504v1.163h-2.163   v-1.163H38.912z M36.749,26.504h11.762l0.002,1.163h-8.847h-2.917V26.504z M42.066,28.667l-0.483,6.199h-2.24l0.766-6.199H42.066z    M34.373,75.134h4.069l-0.405,5.199h-4.306L34.373,75.134z M67.249,83.438h-36.25v-2.104h18.125h0.001h18.124V83.438z"/></g><text x="0" y="115" fill="#000000" font-size="5px" font-weight="bold" font-family="'Helvetica Neue', Helvetica, Arial-Unicode, Arial, Sans-serif">Created by Lea Lafleur</text><text x="0" y="120" fill="#000000" font-size="5px" font-weight="bold" font-family="'Helvetica Neue', Helvetica, Arial-Unicode, Arial, Sans-serif">from the Noun Project</text></svg>