<svg xmlns="http://www.w3.org/2000/svg" xmlns:xlink="http://www.w3.org/1999/xlink" version="1.1" x="0px" y="0px" viewBox="0 0 100 125" enable-background="new 0 0 100 100" xml:space="preserve"><g><g><path d="M74.776,55.527l-3.451-12.849c-0.385-1.348-1.871-3.896-4.739-3.896c-0.824,0-1.717,0.208-2.654,0.618l-10.51-4.13    c-0.269-0.122-2.647-1.194-3.667-1.194c-1.104,0.02-3.395,1.076-3.623,1.184L35.596,39.4c-0.938-0.41-1.829-0.618-2.653-0.618    c-2.868,0-4.354,2.549-4.741,3.904l-3.446,12.826c-0.845,2.789,1.022,4.85,2.104,5.532c7.879,5.681,21.253,5.845,22.752,5.845    l0.146-0.001l0.16,0.001c1.39,0,12.951-0.144,20.905-4.667c0.007-0.004,0.012-0.007,0.019-0.011    c0.631-0.359,1.242-0.744,1.821-1.161C72.692,61.03,75.725,58.893,74.776,55.527z M46.526,36.179    c0.646-0.302,2.49-1.089,3.257-1.103c0.584,0,2.287,0.678,3.248,1.115l9.799,3.851l-13.15,8.104L36.69,40.045L46.526,36.179z     M49.757,65.889L49.61,65.89c-1.466,0-14.543-0.159-22.192-5.673c-0.025-0.016-2.544-1.648-1.702-4.43l3.448-12.832    c0.038-0.13,0.953-3.173,3.778-3.173c0.729,0,1.54,0.205,2.408,0.604l34.251,21.364c-7.687,4.008-18.366,4.139-19.685,4.139    L49.757,65.889z M72.086,60.234c-0.474,0.342-0.969,0.662-1.481,0.964l-19.977-12.46l13.551-8.352    c0.867-0.399,1.679-0.604,2.407-0.604c2.824,0,3.74,3.043,3.776,3.164l3.45,12.847C74.566,58.468,72.194,60.158,72.086,60.234z"/><path d="M53.898,53.892h-7.797c-0.276,0-0.5,0.224-0.5,0.5v9.634c0,0.276,0.224,0.5,0.5,0.5h7.797c0.276,0,0.5-0.224,0.5-0.5    v-9.634C54.398,54.115,54.175,53.892,53.898,53.892z M53.398,63.525h-6.797v-8.634h6.797V63.525z"/></g></g><text x="0" y="115" fill="#000000" font-size="5px" font-weight="bold" font-family="'Helvetica Neue', Helvetica, Arial-Unicode, Arial, Sans-serif">Created by Lea Lafleur</text><text x="0" y="120" fill="#000000" font-size="5px" font-weight="bold" font-family="'Helvetica Neue', Helvetica, Arial-Unicode, Arial, Sans-serif">from the Noun Project</text></svg>