<svg xmlns="http://www.w3.org/2000/svg" xmlns:xlink="http://www.w3.org/1999/xlink" version="1.1" x="0px" y="0px" viewBox="0 0 100 125" enable-background="new 0 0 100 100" xml:space="preserve"><g><path d="M83.21,39.59C83.209,39.59,83.209,39.59,83.21,39.59c-2.249-0.196-3.154,2.491-3.161,2.532   c-1.327,2.78-9.473,3.621-12.484,3.711H55.141c-0.227-0.93-1.061-1.625-2.06-1.625s-1.833,0.695-2.06,1.625H47.49v-0.625h0.344   c0.276,0,0.5-0.224,0.5-0.5s-0.224-0.5-0.5-0.5h-1.667c-0.276,0-0.5,0.224-0.5,0.5s0.224,0.5,0.5,0.5h0.323v0.625h-2.083v-0.625   h0.344c0.276,0,0.5-0.224,0.5-0.5s-0.224-0.5-0.5-0.5h-1.667c-0.276,0-0.5,0.224-0.5,0.5s0.224,0.5,0.5,0.5h0.323v0.625h-2.083   v-0.625h0.344c0.276,0,0.5-0.224,0.5-0.5s-0.224-0.5-0.5-0.5H40c-0.276,0-0.5,0.224-0.5,0.5s0.224,0.5,0.5,0.5h0.323v0.625H19.667   v-0.396c0-0.276-0.224-0.5-0.5-0.5s-0.5,0.224-0.5,0.5v0.396H17.77c-0.376-0.54-1-0.896-1.707-0.896   c-1.149,0-2.083,0.935-2.083,2.083v1.751c0,1.148,0.935,2.083,2.083,2.083c0.706,0,1.33-0.355,1.707-0.895h0.898v0.395   c0,0.276,0.224,0.5,0.5,0.5s0.5-0.224,0.5-0.5V49.96h3.151c-0.483,0.917-0.735,1.933-0.735,2.98c0,3.55,2.888,6.438,6.438,6.438   H39.5v0.542c0,0.276,0.224,0.5,0.5,0.5h1.667c0.276,0,0.5-0.224,0.5-0.5v-0.542h0.417v0.542c0,0.276,0.224,0.5,0.5,0.5h1.667   c0.276,0,0.5-0.224,0.5-0.5v-0.542h0.417v0.542c0,0.276,0.224,0.5,0.5,0.5h1.666c0.276,0,0.5-0.224,0.5-0.5v-0.542h14.438   c3.55,0,6.438-2.888,6.438-6.438c0-1.031-0.244-2.031-0.713-2.938c3.946,0.232,10.381,1.21,11.527,3.601   c0.033,0.106,0.834,2.609,2.955,2.609c0,0,0,0,0.001,0c0.075,0,0.152-0.003,0.188-0.008c0.021,0,2.084-0.036,2.084-3.167V42.755   C85.25,39.672,83.25,39.59,83.21,39.59z M53.081,45.208c0.44,0,0.823,0.255,1.008,0.625h-2.016   C52.258,45.463,52.641,45.208,53.081,45.208z M64.161,49.96c0.822,0.689,1.272,1.576,1.272,2.513c0,2.315-1.744,3.697-4.724,3.697   H48.333v-6.21H64.161z M45.25,49.96h0.417v6.21H45.25V49.96z M45.667,48.96H45.25v-2.127h0.417V48.96z M42.167,49.96h0.417v6.21   h-0.417V49.96z M42.583,48.96h-0.417v-2.127h0.417V48.96z M27.13,49.96H39.5v6.21H30.52c-1.637,0-2.866-0.37-3.652-1.101   c-0.67-0.621-1.01-1.495-1.01-2.597C25.857,51.536,26.308,50.649,27.13,49.96z M16.063,49.854c-0.598,0-1.083-0.485-1.083-1.083   v-1.751c0-0.598,0.486-1.083,1.083-1.083c0.597,0,1.083,0.485,1.083,1.083v1.751C17.146,49.369,16.66,49.854,16.063,49.854z    M18.146,48.96v-0.188v-1.751v-0.188h0.521v2.127H18.146z M19.667,48.96v-2.127H39.5v2.127H26.953h-3.236H19.667z M28.521,58.378   c-2.998,0-5.438-2.439-5.438-5.438c0-1.067,0.323-2.09,0.913-2.98h1.757c-0.579,0.744-0.895,1.604-0.895,2.513   c0,1.371,0.459,2.522,1.329,3.33c0.978,0.907,2.435,1.367,4.393,1.367c0,0,0.001,0,0.001,0h8.92v1.208H28.521z M41.167,59.42H40.5   v-0.542V56.67v-7.21v-2.627h0.667v2.627v7.21v2.208V59.42z M42.167,58.378V57.17h0.417v1.208H42.167z M44.25,59.42h-0.667v-0.542   V56.67v-7.21v-2.627h0.667v2.627v7.21v2.208V59.42z M45.25,58.378V57.17h0.417v1.208H45.25z M47.333,59.42h-0.666v-0.542V56.67   v-7.21v-2.627h0.666v2.627v7.21v2.208V59.42z M62.771,58.378H48.333V57.17h12.434c3.442,0,5.667-1.844,5.667-4.697   c0-0.908-0.316-1.769-0.896-2.513h1.758c0.589,0.892,0.912,1.913,0.912,2.98C68.208,55.938,65.769,58.378,62.771,58.378z    M84.25,53.038c0,2.093-1.05,2.165-1.127,2.169c-0.05,0.004-0.098,0.006-0.145,0.006c0,0,0,0-0.001,0   c-1.383,0-1.994-1.888-2.026-1.974c-1.814-3.8-12.185-4.241-13.361-4.279c-0.002,0-0.004,0.002-0.007,0.002   s-0.006-0.002-0.009-0.002h-3.236H48.333v-2.127h3.123h3.25h12.873c0.469-0.014,11.512-0.383,13.398-4.347   c0.006-0.02,0.606-1.906,2-1.906c0.048,0,0.096,0.002,0.178,0.008c0.045,0.002,1.095,0.074,1.095,2.167V53.038z"/></g><text x="0" y="115" fill="#000000" font-size="5px" font-weight="bold" font-family="'Helvetica Neue', Helvetica, Arial-Unicode, Arial, Sans-serif">Created by Lea Lafleur</text><text x="0" y="120" fill="#000000" font-size="5px" font-weight="bold" font-family="'Helvetica Neue', Helvetica, Arial-Unicode, Arial, Sans-serif">from the Noun Project</text></svg>