<svg xmlns="http://www.w3.org/2000/svg" xmlns:xlink="http://www.w3.org/1999/xlink" version="1.1" x="0px" y="0px" viewBox="0 0 100 125" enable-background="new 0 0 100 100" xml:space="preserve"><g><g><path d="M67.065,71.319l-16.731,0.014l-16.733-0.014c-1.201,0-3.517,0.819-3.684,3.931l-0.162,4.314    c-0.005,0.136,0.046,0.268,0.14,0.365c0.095,0.098,0.225,0.153,0.36,0.153h40.158c0.136,0,0.266-0.056,0.36-0.153    c0.094-0.098,0.145-0.229,0.14-0.365l-0.163-4.322C70.584,72.139,68.267,71.319,67.065,71.319z M30.774,79.083l0.142-3.788    c0.155-2.89,2.428-2.976,2.687-2.976l16.731,0.014l16.733-0.014c0.258,0,2.529,0.087,2.684,2.968l0.143,3.796H30.774z"/><path d="M30.957,66.712h38.754c0.135,0,0.265-0.055,0.358-0.151c0.095-0.097,0.146-0.228,0.142-0.363l-0.353-12.314    c-0.008-0.271-0.229-0.485-0.5-0.485h-38.02c-0.271,0-0.491,0.215-0.5,0.484l-0.382,12.314c-0.004,0.136,0.047,0.267,0.141,0.363    C30.692,66.657,30.821,66.712,30.957,66.712z M31.823,54.397h37.049l0.324,11.314H31.473L31.823,54.397z"/><path d="M50.291,55.263c-2.643,0-4.792,2.149-4.792,4.792s2.149,4.792,4.792,4.792s4.792-2.149,4.792-4.792    S52.934,55.263,50.291,55.263z M50.291,63.847c-2.091,0-3.792-1.701-3.792-3.792s1.701-3.792,3.792-3.792s3.792,1.701,3.792,3.792    S52.382,63.847,50.291,63.847z"/><path d="M50.334,57.847c-1.218,0-2.208,0.99-2.208,2.208s0.99,2.208,2.208,2.208s2.208-0.99,2.208-2.208    S51.552,57.847,50.334,57.847z M50.334,61.263c-0.666,0-1.208-0.542-1.208-1.208s0.542-1.208,1.208-1.208s1.208,0.542,1.208,1.208    S51,61.263,50.334,61.263z"/><path d="M38.325,55.263c-2.643,0-4.792,2.149-4.792,4.792s2.149,4.792,4.792,4.792s4.792-2.149,4.792-4.792    S40.968,55.263,38.325,55.263z M38.325,63.847c-2.091,0-3.792-1.701-3.792-3.792s1.701-3.792,3.792-3.792s3.792,1.701,3.792,3.792    S40.416,63.847,38.325,63.847z"/><path d="M38.368,57.847c-1.218,0-2.208,0.99-2.208,2.208s0.99,2.208,2.208,2.208s2.208-0.99,2.208-2.208    S39.586,57.847,38.368,57.847z M38.368,61.263c-0.666,0-1.208-0.542-1.208-1.208s0.542-1.208,1.208-1.208s1.208,0.542,1.208,1.208    S39.034,61.263,38.368,61.263z"/><path d="M62.257,55.254c-2.643,0-4.792,2.149-4.792,4.792s2.149,4.792,4.792,4.792s4.792-2.149,4.792-4.792    S64.899,55.254,62.257,55.254z M62.257,63.838c-2.091,0-3.792-1.701-3.792-3.792s1.701-3.792,3.792-3.792s3.792,1.701,3.792,3.792    S64.348,63.838,62.257,63.838z"/><path d="M62.3,57.838c-1.218,0-2.208,0.99-2.208,2.208s0.99,2.208,2.208,2.208s2.208-0.99,2.208-2.208S63.518,57.838,62.3,57.838z     M62.3,61.254c-0.666,0-1.208-0.542-1.208-1.208s0.542-1.208,1.208-1.208s1.208,0.542,1.208,1.208S62.966,61.254,62.3,61.254z"/><circle cx="54.416" cy="45.045" r="0.375"/><circle cx="52.846" cy="45.045" r="0.375"/><circle cx="51.275" cy="45.045" r="0.375"/><circle cx="49.705" cy="45.045" r="0.375"/><circle cx="48.135" cy="45.045" r="0.375"/><circle cx="46.564" cy="45.045" r="0.375"/><circle cx="44.994" cy="45.045" r="0.375"/><circle cx="43.424" cy="45.045" r="0.375"/><circle cx="41.854" cy="45.045" r="0.375"/><circle cx="66.979" cy="45.045" r="0.375"/><circle cx="65.408" cy="45.045" r="0.375"/><circle cx="63.838" cy="45.045" r="0.375"/><circle cx="62.268" cy="45.045" r="0.375"/><circle cx="60.697" cy="45.045" r="0.375"/><circle cx="59.127" cy="45.045" r="0.375"/><circle cx="57.557" cy="45.045" r="0.375"/><circle cx="55.986" cy="45.045" r="0.375"/><circle cx="54.416" cy="43.346" r="0.375"/><circle cx="52.846" cy="43.346" r="0.375"/><circle cx="51.275" cy="43.346" r="0.375"/><circle cx="49.705" cy="43.346" r="0.375"/><circle cx="48.135" cy="43.346" r="0.375"/><circle cx="46.564" cy="43.346" r="0.375"/><circle cx="44.994" cy="43.346" r="0.375"/><circle cx="43.424" cy="43.346" r="0.375"/><circle cx="41.854" cy="43.346" r="0.375"/><circle cx="66.979" cy="43.346" r="0.375"/><circle cx="65.408" cy="43.346" r="0.375"/><circle cx="63.838" cy="43.346" r="0.375"/><circle cx="62.268" cy="43.346" r="0.375"/><circle cx="60.697" cy="43.346" r="0.375"/><circle cx="59.127" cy="43.346" r="0.375"/><circle cx="57.557" cy="43.346" r="0.375"/><circle cx="55.986" cy="43.346" r="0.375"/><circle cx="46.564" cy="41.646" r="0.375"/><circle cx="44.994" cy="41.646" r="0.375"/><circle cx="43.424" cy="41.646" r="0.375"/><circle cx="41.854" cy="41.646" r="0.375"/><circle cx="66.979" cy="41.646" r="0.375"/><circle cx="65.408" cy="41.646" r="0.375"/><circle cx="63.838" cy="41.646" r="0.375"/><circle cx="62.268" cy="41.646" r="0.375"/><circle cx="54.416" cy="46.745" r="0.375"/><circle cx="52.846" cy="46.745" r="0.375"/><circle cx="51.275" cy="46.745" r="0.375"/><circle cx="49.705" cy="46.745" r="0.375"/><circle cx="48.135" cy="46.745" r="0.375"/><circle cx="46.564" cy="46.745" r="0.375"/><circle cx="44.994" cy="46.745" r="0.375"/><circle cx="43.424" cy="46.745" r="0.375"/><circle cx="41.854" cy="46.745" r="0.375"/><circle cx="66.979" cy="46.745" r="0.375"/><circle cx="65.408" cy="46.745" r="0.375"/><circle cx="63.838" cy="46.745" r="0.375"/><circle cx="62.268" cy="46.745" r="0.375"/><circle cx="60.697" cy="46.745" r="0.375"/><circle cx="59.127" cy="46.745" r="0.375"/><circle cx="57.557" cy="46.745" r="0.375"/><circle cx="55.986" cy="46.745" r="0.375"/><circle cx="54.416" cy="48.444" r="0.375"/><circle cx="52.846" cy="48.444" r="0.375"/><circle cx="51.275" cy="48.444" r="0.375"/><circle cx="49.705" cy="48.444" r="0.375"/><circle cx="48.135" cy="48.444" r="0.375"/><circle cx="46.564" cy="48.444" r="0.375"/><circle cx="44.994" cy="48.444" r="0.375"/><circle cx="43.424" cy="48.444" r="0.375"/><circle cx="41.854" cy="48.444" r="0.375"/><circle cx="66.979" cy="48.444" r="0.375"/><circle cx="65.408" cy="48.444" r="0.375"/><circle cx="63.838" cy="48.444" r="0.375"/><circle cx="62.268" cy="48.444" r="0.375"/><circle cx="60.697" cy="48.444" r="0.375"/><circle cx="59.127" cy="48.444" r="0.375"/><circle cx="57.557" cy="48.444" r="0.375"/><circle cx="55.986" cy="48.444" r="0.375"/><circle cx="54.416" cy="50.145" r="0.375"/><circle cx="52.846" cy="50.145" r="0.375"/><circle cx="51.275" cy="50.145" r="0.375"/><circle cx="49.705" cy="50.145" r="0.375"/><circle cx="48.135" cy="50.145" r="0.375"/><circle cx="46.564" cy="50.145" r="0.375"/><circle cx="44.994" cy="50.145" r="0.375"/><circle cx="43.424" cy="50.145" r="0.375"/><circle cx="41.854" cy="50.145" r="0.375"/><circle cx="66.979" cy="50.145" r="0.375"/><circle cx="65.408" cy="50.145" r="0.375"/><circle cx="63.838" cy="50.145" r="0.375"/><circle cx="62.268" cy="50.145" r="0.375"/><circle cx="60.697" cy="50.145" r="0.375"/><circle cx="59.127" cy="50.145" r="0.375"/><circle cx="57.557" cy="50.145" r="0.375"/><circle cx="55.986" cy="50.145" r="0.375"/><path d="M72.72,22.831c0.002-0.157,0.017-3.873-2.03-5.937c-0.877-0.884-1.994-1.332-3.32-1.332c-0.006,0-0.011,0-0.016,0h-1.508    c-4.69-4.602-11.329-4.688-11.437-4.688c-5.327,0.069-8.896,2.211-11.254,4.688l-9.065,0.003c-0.088-0.009-2.15-0.224-3.882,1.267    c-1.396,1.201-2.154,3.129-2.252,5.729l-2.29,61.046c-0.005,0.136,0.046,0.268,0.14,0.365c0.095,0.098,0.225,0.153,0.36,0.153    h48.335c0.136,0,0.266-0.056,0.36-0.153c0.094-0.098,0.145-0.229,0.14-0.365L72.72,22.831z M54.416,11.875    c0.393,0,6.516,0.08,10.814,4.399c0.047,0.099,0.125,0.177,0.223,0.228c2.211,2.334,3.89,5.842,3.953,11.127    c0,0.035-0.021,3.6-1.879,7.132c-1.785,3.395-4.592,5.563-8.352,6.52c-0.017-0.002-0.031-0.01-0.049-0.01    c-0.094,0-0.177,0.038-0.243,0.095c-1.373,0.321-2.865,0.49-4.487,0.49h-0.002c-0.11,0.017-10.372,0.325-14.266-10.476    l1.783-5.635l6.247-5.407c0.207-0.18,0.231-0.492,0.055-0.701l-1.833-2.166c-0.178-0.21-0.494-0.237-0.702-0.061l-5.27,4.402    C41.6,18.683,45.216,11.995,54.416,11.875z M47.858,41.396c-0.06,0.066-0.099,0.152-0.099,0.249c0,0.207,0.168,0.375,0.375,0.375    c0.198,0,0.357-0.156,0.37-0.352c2.792,1.109,5.183,1.188,5.772,1.188c0.113,0,0.135-0.001,0.144-0.002    c2.359,0,4.354-0.348,6.057-0.914c0.062,0.046,0.136,0.079,0.22,0.079c0.172,0,0.311-0.117,0.354-0.275    c1.073-0.404,2.019-0.9,2.852-1.457h4.604l0.367,11.085H39.929l0.271-11.085h5.596C46.487,40.729,47.181,41.094,47.858,41.396z     M39.847,23.586l6.092-5.09l1.192,1.409l-5.979,5.177c-0.07,0.061-0.122,0.139-0.149,0.228l-7.658,24.195l-1.759-0.607    L39.847,23.586z M26.686,83.126l2.271-60.527c0.086-2.304,0.723-3.985,1.893-4.999c1.395-1.208,3.115-1.042,3.185-1.037h8.243    c-2.474,3.069-3.271,6.286-3.343,6.597l-8.452,25.896c-0.084,0.26,0.055,0.539,0.312,0.628l2.709,0.935    c0.053,0.019,0.108,0.027,0.163,0.027c0.077,0,0.154-0.018,0.225-0.054c0.12-0.061,0.211-0.167,0.252-0.296l5.509-17.407    c1.247,2.889,2.948,4.942,4.757,6.4h-4.697c-0.271,0-0.493,0.217-0.5,0.488l-0.295,12.085c-0.003,0.134,0.048,0.265,0.143,0.361    c0.094,0.096,0.223,0.15,0.357,0.15h29.976c0.136,0,0.266-0.055,0.359-0.152s0.145-0.229,0.141-0.364l-0.4-12.085    c-0.009-0.27-0.23-0.483-0.5-0.483h-3.779c1.465-1.269,2.491-2.715,3.2-4.062c1.972-3.748,1.994-7.441,1.994-7.603    c-0.061-5.067-1.57-8.596-3.637-11.061h0.585c0.005,0,0.009,0,0.013,0c1.05,0,1.928,0.348,2.609,1.033    c1.753,1.765,1.743,5.191,1.743,5.249l2.262,60.281H26.686z"/><path d="M45.616,26.833c0,4.944,4.022,8.967,8.967,8.967s8.967-4.022,8.967-8.967s-4.022-8.967-8.967-8.967    S45.616,21.889,45.616,26.833z M54.583,18.866c4.393,0,7.967,3.574,7.967,7.967S58.976,34.8,54.583,34.8s-7.967-3.574-7.967-7.967    S50.19,18.866,54.583,18.866z"/><path d="M54.416,31.219c2.399,0,4.352-1.952,4.352-4.352c0-2.4-1.952-4.353-4.352-4.353c-2.4,0-4.353,1.952-4.353,4.353    C50.063,29.267,52.016,31.219,54.416,31.219z M54.416,23.515c1.848,0,3.352,1.504,3.352,3.353c0,1.848-1.504,3.352-3.352,3.352    c-1.849,0-3.353-1.504-3.353-3.352C51.063,25.019,52.567,23.515,54.416,23.515z"/><path d="M30.957,68.625h38.754c0.276,0,0.5-0.224,0.5-0.5s-0.224-0.5-0.5-0.5H30.957c-0.276,0-0.5,0.224-0.5,0.5    S30.681,68.625,30.957,68.625z"/></g></g><text x="0" y="115" fill="#000000" font-size="5px" font-weight="bold" font-family="'Helvetica Neue', Helvetica, Arial-Unicode, Arial, Sans-serif">Created by Lea Lafleur</text><text x="0" y="120" fill="#000000" font-size="5px" font-weight="bold" font-family="'Helvetica Neue', Helvetica, Arial-Unicode, Arial, Sans-serif">from the Noun Project</text></svg>