<svg xmlns="http://www.w3.org/2000/svg" xmlns:xlink="http://www.w3.org/1999/xlink" version="1.1" x="0px" y="0px" viewBox="0 0 100 125" enable-background="new 0 0 100 100" xml:space="preserve"><g><g><circle cx="47.336" cy="76.6" r="0.463"/><circle cx="52.818" cy="76.6" r="0.463"/><path d="M78.527,62.042c-0.001-0.003-0.004-0.005-0.005-0.009c0.025-0.496,0.039-0.995,0.039-1.497    c0-3.688-0.715-7.309-2.125-10.763c1.734-3.801,2.614-7.854,2.614-12.05c0-16.03-13.042-29.072-29.073-29.072    c-16.03,0-29.072,13.042-29.072,29.072c0,4.217,0.887,8.287,2.637,12.102c-1.396,3.439-2.104,7.042-2.104,10.711    c0,0.502,0.014,1.001,0.039,1.497c-0.001,0.004-0.004,0.006-0.005,0.009c-0.058,0.147-0.034,0.301,0.039,0.429    c0.04,0.598,0.1,1.189,0.176,1.776c0,0.028,0.006,0.054,0.011,0.081C23.56,78.29,35.537,89.098,50,89.098    s26.44-10.808,28.302-24.77c0.005-0.027,0.011-0.053,0.011-0.081c0.076-0.587,0.136-1.179,0.176-1.776    C78.562,62.343,78.585,62.189,78.527,62.042z M54.25,36.287c-0.276,0-0.5,0.224-0.5,0.5v1.768c-0.3,0.11-0.652,0.21-1.059,0.295    v-1.417c0-0.276-0.224-0.5-0.5-0.5s-0.5,0.224-0.5,0.5v1.577c-0.359,0.04-0.762,0.066-1.191,0.082v-1.367    c0-0.276-0.224-0.5-0.5-0.5s-0.5,0.224-0.5,0.5v1.367c-0.455-0.016-0.881-0.043-1.258-0.087v-1.572c0-0.276-0.224-0.5-0.5-0.5    s-0.5,0.224-0.5,0.5v1.407c-0.408-0.087-0.76-0.188-1.059-0.302v-1.751c0-0.276-0.224-0.5-0.5-0.5s-0.5,0.224-0.5,0.5v1.231    c-0.721-0.526-0.773-1.048-0.773-1.049l-0.011-1.783c1.103,0.836,3.021,1.379,5.31,1.419c0.126,0.004,0.212,0.006,0.257,0.006    c0.004,0,0.008,0,0.012,0c0.002,0,0.004,0,0.006,0c0.003,0,0.013,0,0.016,0c0.032,0,0.157-0.001,0.34-0.008    c2.264-0.054,4.153-0.6,5.238-1.434l-0.01,1.781c-0.001,0.011-0.06,0.554-0.817,1.094v-1.258    C54.75,36.511,54.526,36.287,54.25,36.287z M44.58,32.994c0.037-0.054,0.083-0.106,0.132-0.159c0.06-0.064,0.124-0.129,0.2-0.191    c0.075-0.062,0.162-0.122,0.252-0.181c0.075-0.051,0.149-0.102,0.235-0.15c0.133-0.074,0.281-0.145,0.437-0.213    c0.067-0.03,0.13-0.062,0.202-0.091c0.204-0.082,0.429-0.157,0.665-0.228c0.043-0.013,0.081-0.027,0.125-0.04    c0.268-0.074,0.556-0.14,0.856-0.196c0.028-0.005,0.054-0.013,0.082-0.018c0.302-0.054,0.623-0.095,0.953-0.127    c0.038-0.003,0.071-0.01,0.109-0.014c0.364-0.031,0.743-0.049,1.135-0.049c0.005,0,0.01-0.001,0.015-0.001    c0.396,0,0.778,0.018,1.146,0.05c0.041,0.004,0.077,0.011,0.117,0.015c0.326,0.032,0.644,0.072,0.942,0.126    c0.038,0.007,0.072,0.017,0.11,0.023c0.289,0.055,0.567,0.117,0.825,0.189c0.056,0.016,0.104,0.033,0.157,0.05    c0.223,0.067,0.438,0.139,0.632,0.216c0.08,0.032,0.15,0.067,0.225,0.101c0.147,0.065,0.289,0.133,0.416,0.203    c0.089,0.05,0.166,0.103,0.244,0.154c0.088,0.059,0.173,0.116,0.246,0.177c0.077,0.063,0.142,0.127,0.201,0.191    c0.05,0.054,0.096,0.107,0.134,0.161c0.048,0.067,0.085,0.135,0.113,0.203c0.027,0.067,0.049,0.135,0.058,0.202    c-0.115,0.575-0.556,1.003-1.153,1.317c-0.08,0.041-0.16,0.082-0.248,0.121c-0.098,0.044-0.195,0.088-0.299,0.127    c-0.084,0.033-0.179,0.062-0.268,0.092c-1.066,0.354-2.293,0.484-3.005,0.53c-0.199,0.009-0.391,0.025-0.596,0.025    c-0.196,0-0.38-0.017-0.569-0.024c-1.359-0.087-4.693-0.483-4.984-2.234c0.009-0.051,0.022-0.101,0.043-0.15    C44.495,33.133,44.531,33.063,44.58,32.994z M56.373,32.695c-0.002-0.004-0.006-0.008-0.008-0.012    c-0.175-0.345-0.459-0.664-0.843-0.948l0,0c-0.184-0.137-0.392-0.263-0.616-0.382c-0.023-0.013-0.045-0.024-0.068-0.036    c-0.224-0.115-0.465-0.222-0.725-0.319c-0.02-0.007-0.039-0.013-0.059-0.021c-0.527-0.192-1.123-0.345-1.771-0.454    c-0.045-0.007-0.09-0.016-0.136-0.022c-0.308-0.048-0.626-0.086-0.955-0.112c-0.056-0.005-0.111-0.008-0.167-0.012    c-0.34-0.024-0.688-0.04-1.046-0.04h-0.001l0,0c-0.001,0-0.001,0-0.001,0c-0.36,0-0.71,0.017-1.052,0.04    c-0.055,0.004-0.109,0.007-0.163,0.012c-0.331,0.026-0.65,0.064-0.959,0.113c-0.047,0.007-0.092,0.016-0.138,0.023    c-0.649,0.108-1.245,0.262-1.772,0.455c-0.02,0.008-0.041,0.014-0.061,0.021c-0.259,0.097-0.499,0.204-0.723,0.319    c-0.023,0.012-0.047,0.024-0.069,0.037c-0.226,0.119-0.432,0.247-0.615,0.383c-0.001,0.001-0.002,0.002-0.003,0.003    c-0.385,0.287-0.669,0.609-0.841,0.957c-0.001,0.002-0.003,0.004-0.004,0.006c-1.854,0.427-3.65,1.047-5.369,1.833    c-0.066,0.016-0.127,0.044-0.183,0.086c-0.551,0.257-1.094,0.529-1.626,0.82c-0.093,0.021-0.182,0.061-0.252,0.134    c-3.915,2.188-7.317,5.294-9.854,9.068c-0.658-2.251-0.991-4.575-0.991-6.924c0-13.621,11.081-24.702,24.702-24.702    s24.702,11.081,24.702,24.702c0,2.354-0.334,4.682-0.994,6.935c-2.54-3.783-5.946-6.894-9.867-9.084    c-0.069-0.07-0.155-0.108-0.245-0.129c-0.533-0.292-1.077-0.564-1.628-0.821c-0.056-0.041-0.116-0.069-0.182-0.085    C60.058,33.747,58.244,33.122,56.373,32.695z M22.553,62.982c3.482,1.263,6.524,1.722,9.078,1.722    c2.452,0,4.461-0.412,5.992-0.912c3.552-1.159,5.362-2.989,5.424-3.053c2.28-2.167,3.426-4.789,3.406-7.792    c-0.049-7.397-7.069-14.889-9.083-16.886c0.284-0.148,0.572-0.288,0.861-0.426c1.443,1.476,9.01,9.577,9.077,17.475    c0.026,3.082-1.108,5.792-3.376,8.061c-0.074,0.077-7.699,7.671-21.283,2.712C22.612,63.584,22.58,63.284,22.553,62.982z     M62.63,36.062c-2.014,1.997-9.034,9.488-9.083,16.886c-0.02,3.003,1.126,5.625,3.393,7.778c0.075,0.077,1.886,1.907,5.438,3.066    c1.532,0.5,3.539,0.912,5.992,0.912c2.554,0,5.596-0.459,9.078-1.722c-0.027,0.302-0.06,0.602-0.097,0.9    c-13.553,4.949-21.208-2.636-21.288-2.717c-2.263-2.263-3.396-4.973-3.371-8.054c0.065-7.893,7.635-16.002,9.078-17.477    C62.059,35.773,62.346,35.913,62.63,36.062z M77.562,60.536c0,0.454-0.013,0.904-0.034,1.353    c-12.991,4.918-19.806-1.793-19.885-1.874c-2.071-1.969-3.113-4.344-3.096-7.06c0.046-7.258,7.519-14.938,9.008-16.396    c3.997,2.275,7.429,5.547,9.889,9.527c0.013,0.021,0.034,0.029,0.05,0.047c0.285,0.475,1.089,1.859,1.894,3.737    c0.008,0.017,0.024,0.024,0.033,0.04c0.005,0.015,0.003,0.03,0.009,0.044C76.844,53.348,77.562,56.908,77.562,60.536z     M21.905,37.724c0-15.479,12.593-28.072,28.072-28.072s28.073,12.593,28.073,28.072c0,3.748-0.734,7.376-2.17,10.804    c-0.615-1.324-1.177-2.315-1.463-2.797c0.85-2.59,1.289-5.28,1.289-8.006c0-14.172-11.53-25.702-25.702-25.702    s-25.702,11.53-25.702,25.702c0,2.728,0.44,5.422,1.292,8.016c-0.24,0.397-0.83,1.411-1.499,2.838    C22.646,45.136,21.905,41.491,21.905,37.724z M24.547,50.012C24.548,50.011,24.548,50.011,24.547,50.012    c0.995-2.321,2.002-3.914,2.012-3.93c0.001-0.002,0.001-0.004,0.002-0.005c0-0.001,0.001-0.001,0.001-0.001    c2.46-3.975,5.891-7.242,9.885-9.516c1.491,1.459,8.959,9.132,9.007,16.393c0.018,2.717-1.023,5.093-3.108,7.074    c-0.067,0.069-6.877,6.78-19.872,1.861c-0.021-0.448-0.034-0.898-0.034-1.353C22.438,56.929,23.147,53.389,24.547,50.012z     M50,88.098c-13.678,0-25.056-10.018-27.195-23.101c3.246,1.126,6.167,1.566,8.733,1.566c8.406-0.001,13.049-4.631,13.106-4.69    c2.46-2.46,3.692-5.411,3.664-8.771C48.24,45.15,41.229,37.3,39.202,35.195c1.353-0.581,2.753-1.052,4.19-1.407l0.018,3.194    c0.002,0.125,0.131,3.063,6.578,3.127h0.011c0.002,0,0.003-0.001,0.005-0.001c6.432-0.062,6.561-3.001,6.562-3.133l0.018-3.193    c1.445,0.355,2.854,0.828,4.215,1.412c-2.027,2.104-9.039,9.955-9.107,17.907c-0.028,3.36,1.204,6.312,3.659,8.767    c0.062,0.062,4.703,4.695,13.112,4.695c2.565-0.001,5.488-0.441,8.732-1.566C75.056,78.08,63.678,88.098,50,88.098z"/><path d="M35.541,58.391l-0.375,2.681c-0.038,0.273,0.152,0.526,0.426,0.564c0.023,0.003,0.047,0.005,0.07,0.005    c0.245,0,0.459-0.181,0.494-0.431l0.305-2.176c0.568,0.298,1.205,0.482,1.89,0.482c2.267,0,4.11-1.844,4.11-4.109    c0-2.267-1.844-4.11-4.11-4.11c-2.266,0-4.109,1.844-4.109,4.11C34.241,56.584,34.745,57.641,35.541,58.391z M38.351,52.297    c1.715,0,3.11,1.396,3.11,3.11s-1.396,3.109-3.11,3.109c-0.563,0-1.085-0.162-1.542-0.425l1.93-2.37    c0.175-0.214,0.143-0.529-0.072-0.703c-0.213-0.173-0.529-0.144-0.703,0.072l-1.929,2.37c-0.487-0.549-0.793-1.264-0.793-2.054    C35.241,53.692,36.636,52.297,38.351,52.297z"/><path d="M65.76,55.407c0-2.267-1.844-4.11-4.109-4.11c-2.267,0-4.11,1.844-4.11,4.11c0,2.266,1.844,4.109,4.11,4.109    c0.685,0,1.321-0.185,1.89-0.482l0.305,2.176c0.035,0.25,0.249,0.431,0.494,0.431c0.023,0,0.047-0.002,0.07-0.005    c0.273-0.038,0.464-0.291,0.426-0.564l-0.376-2.681C65.256,57.641,65.76,56.584,65.76,55.407z M58.54,55.407    c0-1.715,1.396-3.11,3.11-3.11s3.109,1.396,3.109,3.11c0,0.79-0.306,1.505-0.793,2.054l-1.929-2.37    c-0.175-0.216-0.489-0.245-0.703-0.072c-0.215,0.174-0.247,0.489-0.072,0.703l1.93,2.37c-0.457,0.263-0.979,0.425-1.542,0.425    C59.936,58.517,58.54,57.122,58.54,55.407z"/><path d="M49.979,64.58c-5.894,0-10.688,4.794-10.688,10.688s4.794,10.688,10.688,10.688s10.688-4.794,10.688-10.688    S55.872,64.58,49.979,64.58z M49.979,84.955c-5.342,0-9.688-4.346-9.688-9.688s4.346-9.688,9.688-9.688s9.688,4.346,9.688,9.688    S55.32,84.955,49.979,84.955z"/><path d="M49.979,66.195c-5.003,0-9.072,4.069-9.072,9.072s4.069,9.072,9.072,9.072s9.072-4.069,9.072-9.072    S54.981,66.195,49.979,66.195z M49.979,83.34c-4.451,0-8.072-3.621-8.072-8.072s3.621-8.072,8.072-8.072s8.072,3.621,8.072,8.072    S54.43,83.34,49.979,83.34z"/><path d="M55.169,71.188c-0.205-0.773-1.032-1.708-2.335-0.996l-1.445,0.91c-0.297-0.053-0.797-0.125-1.413-0.146    c-0.579,0.021-1.07,0.093-1.365,0.146l-1.481-0.931c-0.288-0.158-0.574-0.238-0.849-0.238c-0.99,0-1.39,0.942-1.429,1.191    l-0.535,1.446c-0.793,0.464-1.255,0.777-1.395,0.873c-0.219,0.157-0.327,0.431-0.273,0.705c0.459,2.131,1.28,3.848,2.442,5.138    c0.001,0.001,0.001,0.001,0.001,0.002c0.003,0.003,0.006,0.005,0.009,0.008c0.346,0.382,0.717,0.73,1.122,1.035    c0.023,0.028,0.052,0.056,0.081,0.076c0.051,0.041,0.088,0.067,0.143,0.084c0.07,0.049,0.141,0.097,0.212,0.143    c0.019,0.021,0.041,0.041,0.066,0.058c0.032,0.025,0.092,0.055,0.146,0.077c1.652,0.993,3.114,1.005,3.129,1.005    c0.151,0,1.524-0.027,3.121-0.983c1.467-0.877,3.391-2.741,4.231-6.65c0.053-0.266-0.056-0.539-0.286-0.704    c-0.128-0.089-0.59-0.401-1.383-0.865L55.169,71.188z M54.394,78.349c-4.023-2.336-7.627-0.685-8.793-0.01    c-0.408-0.499-0.77-1.061-1.074-1.694c1.271-0.693,5.823-2.734,10.927,0.014C55.129,77.329,54.769,77.887,54.394,78.349z     M47.706,80.085l0.126-0.08c0.117-0.074,0.151-0.229,0.077-0.345c-0.075-0.117-0.231-0.151-0.345-0.077l-0.294,0.187    c-0.018,0.012-0.02,0.033-0.033,0.047c-0.06-0.038-0.119-0.079-0.179-0.12l0.439-0.271c0.118-0.072,0.154-0.227,0.082-0.344    c-0.071-0.118-0.226-0.154-0.344-0.082l-0.529,0.326c-0.025,0.016-0.031,0.045-0.049,0.067c-0.124-0.1-0.249-0.197-0.366-0.307    c1.135-0.63,4.059-1.826,7.407,0.016c-0.115,0.108-0.229,0.203-0.344,0.296c-0.005-0.004-0.005-0.011-0.011-0.015l-0.529-0.326    c-0.118-0.074-0.272-0.036-0.344,0.082c-0.072,0.117-0.036,0.271,0.082,0.344l0.38,0.234c-0.055,0.036-0.107,0.071-0.16,0.105    l-0.286-0.182c-0.114-0.073-0.27-0.039-0.345,0.077c-0.074,0.116-0.04,0.271,0.077,0.345l0.067,0.043    c-1.217,0.635-2.228,0.667-2.285,0.668C49.946,80.771,48.926,80.727,47.706,80.085z M55.843,75.735    c-5.349-2.83-10.151-0.83-11.702-0.015c-0.182-0.494-0.341-1.018-0.469-1.577c0.232-0.154,0.664-0.431,1.301-0.799    c0.102-0.059,0.179-0.149,0.219-0.259l0.614-1.669c0.006-0.021,0.132-0.484,0.475-0.484c0.104,0,0.23,0.04,0.342,0.1l1.623,1.021    c0.11,0.069,0.24,0.092,0.369,0.066c0.197-0.041,0.729-0.14,1.361-0.163c0.68,0.023,1.213,0.122,1.41,0.163    c0.128,0.025,0.26,0.003,0.369-0.066l1.584-0.999c0.148-0.08,0.276-0.121,0.381-0.121c0.337,0,0.469,0.46,0.498,0.56l0.591,1.594    c0.04,0.109,0.117,0.2,0.219,0.259c0.637,0.368,1.068,0.645,1.301,0.799C56.192,74.731,56.024,75.249,55.843,75.735z"/><path d="M46.537,71.323c-0.664,0-0.723,1.246-0.728,1.496c-0.001,0.059,0.026,0.115,0.074,0.151    c0.032,0.024,0.072,0.038,0.112,0.038c0.018,0,0.035-0.002,0.053-0.007l1.474-0.437c0.058-0.017,0.103-0.059,0.122-0.113    c0.021-0.055,0.014-0.116-0.018-0.166C47.202,71.629,46.856,71.323,46.537,71.323z"/><path d="M53.594,71.263c-0.299,0-0.665,0.236-1.154,0.744c-0.041,0.043-0.06,0.102-0.051,0.16c0.01,0.058,0.046,0.107,0.098,0.135    l1.363,0.71c0.027,0.015,0.057,0.021,0.087,0.021c0.027,0,0.056-0.007,0.082-0.02c0.054-0.026,0.091-0.077,0.102-0.136    c0.03-0.174,0.167-1.063-0.149-1.439C53.874,71.322,53.744,71.263,53.594,71.263z"/><path d="M50.054,78.571c-0.028,0-0.048,0.001-0.051,0.001c-0.009,0-0.028-0.001-0.057-0.001c-0.183,0-0.51,0.03-0.655,0.235    c-0.054,0.075-0.103,0.206-0.032,0.405c0.054,0.126,0.338,0.757,0.741,0.757s0.688-0.631,0.745-0.766    c0.066-0.19,0.018-0.321-0.036-0.396C50.563,78.602,50.237,78.571,50.054,78.571z"/></g></g><text x="0" y="115" fill="#000000" font-size="5px" font-weight="bold" font-family="'Helvetica Neue', Helvetica, Arial-Unicode, Arial, Sans-serif">Created by Lea Lafleur</text><text x="0" y="120" fill="#000000" font-size="5px" font-weight="bold" font-family="'Helvetica Neue', Helvetica, Arial-Unicode, Arial, Sans-serif">from the Noun Project</text></svg>