<svg xmlns="http://www.w3.org/2000/svg" xmlns:xlink="http://www.w3.org/1999/xlink" version="1.1" x="0px" y="0px" viewBox="0 0 100 125" enable-background="new 0 0 100 100" xml:space="preserve"><g><path d="M84.531,46.057V27.182c0-0.167-0.084-0.323-0.224-0.416c-0.139-0.094-0.317-0.11-0.47-0.045l-16.773,7.043l-16.461-7.042   c0,0-0.001,0-0.001,0c-0.016-0.007-0.035-0.006-0.051-0.011c-0.047-0.015-0.094-0.029-0.143-0.029c0,0,0,0-0.001,0   c-0.022,0-0.041,0.01-0.062,0.013c-0.043,0.005-0.086,0.008-0.127,0.024l-0.005,0.002c0,0-0.001,0-0.001,0.001L32.94,33.766   l-16.778-7.045c-0.155-0.065-0.331-0.048-0.47,0.045c-0.139,0.093-0.223,0.249-0.223,0.416v37.539c0,0.195,0.114,0.373,0.292,0.455   l16.969,7.75c0.066,0.03,0.137,0.045,0.208,0.045c0.068,0,0.136-0.014,0.199-0.041l17.271-7.501l16.458,7.04c0,0,0,0,0.001,0   c0.06,0.025,0.126,0.04,0.195,0.04c0.048,0,0.09-0.015,0.134-0.027c0.018-0.005,0.037-0.003,0.055-0.01l0.004-0.002   c0.002,0,0.003-0.001,0.004-0.001l16.961-6.918c0.188-0.077,0.312-0.26,0.312-0.463V46.06   C84.531,46.059,84.531,46.058,84.531,46.057z M83.531,45.725L67.562,52.43V34.639l15.969-6.705V45.725z M66.562,52.433   l-15.656-6.502V27.939l15.656,6.697V52.433z M49.906,45.925l-16.469,6.521V34.643l16.469-6.717V45.925z M33.438,53.521L49.906,47   v17.556l-16.469,7.153V53.521z M50.906,47.014l15.656,6.502v17.735l-15.656-6.697V47.014z M32.438,34.639v17.786l-15.969-6.806   V27.934L32.438,34.639z M16.469,46.706l15.969,6.806v18.182l-15.969-7.294V46.706z M67.562,71.265V53.514l15.969-6.705v17.943   L67.562,71.265z"/></g><text x="0" y="115" fill="#000000" font-size="5px" font-weight="bold" font-family="'Helvetica Neue', Helvetica, Arial-Unicode, Arial, Sans-serif">Created by Lea Lafleur</text><text x="0" y="120" fill="#000000" font-size="5px" font-weight="bold" font-family="'Helvetica Neue', Helvetica, Arial-Unicode, Arial, Sans-serif">from the Noun Project</text></svg>