<svg xmlns="http://www.w3.org/2000/svg" xmlns:xlink="http://www.w3.org/1999/xlink" version="1.1" x="0px" y="0px" viewBox="0 0 100 125" enable-background="new 0 0 100 100" xml:space="preserve"><g><g><path d="M62.997,30.544c0-6.518-5.302-11.819-11.819-11.819s-11.819,5.302-11.819,11.819s5.302,11.819,11.819,11.819    S62.997,37.062,62.997,30.544z M40.358,30.544c0-5.966,4.854-10.819,10.819-10.819s10.819,4.854,10.819,10.819    s-4.854,10.819-10.819,10.819S40.358,36.51,40.358,30.544z"/><path d="M51.178,17.35c0.876,0,1.588-0.713,1.588-1.589s-0.712-1.588-1.588-1.588s-1.588,0.712-1.588,1.588    S50.302,17.35,51.178,17.35z M51.178,15.173c0.324,0,0.588,0.264,0.588,0.588s-0.264,0.589-0.588,0.589s-0.588-0.265-0.588-0.589    S50.854,15.173,51.178,15.173z"/><path d="M51.156,72.341c-0.876,0-1.588,0.713-1.588,1.589s0.712,1.588,1.588,1.588s1.588-0.712,1.588-1.588    S52.032,72.341,51.156,72.341z M51.156,74.518c-0.324,0-0.588-0.264-0.588-0.588s0.264-0.589,0.588-0.589s0.588,0.265,0.588,0.589    S51.48,74.518,51.156,74.518z"/><path d="M51.156,47.327c-6.518,0-11.819,5.302-11.819,11.819s5.302,11.819,11.819,11.819s11.819-5.302,11.819-11.819    S57.674,47.327,51.156,47.327z M51.156,69.966c-5.966,0-10.819-4.854-10.819-10.819s4.854-10.819,10.819-10.819    s10.819,4.854,10.819,10.819S57.122,69.966,51.156,69.966z"/><path d="M56.9,46.178V43.56c0-0.012-0.006-0.021-0.007-0.033c4.986-2.204,8.479-7.189,8.479-12.982    c0-6.737-4.672-12.467-11.201-13.862c0.107-0.318,0.163-0.649,0.163-0.981c0-1.74-1.416-3.156-3.156-3.156    s-3.156,1.416-3.156,3.156c0,0.332,0.056,0.663,0.163,0.981c-6.529,1.396-11.201,7.125-11.201,13.862    c0,5.793,3.492,10.778,8.478,12.982c-0.001,0.012-0.007,0.021-0.007,0.033v2.598c-4.994,2.201-8.492,7.19-8.492,12.989    c0,6.737,4.672,12.467,11.201,13.862C48.056,73.327,48,73.658,48,73.99c0,1.569,1.154,2.864,2.656,3.105l0.003,5.815    c0.001,0.014,0.129,1.397-0.757,2.338c-0.628,0.667-1.637,0.966-3.052,0.926c-0.014,0.005-1.372,0.067-3.673-2.134    c-0.027-0.029-2.786-2.835-6.402,0.303c-0.059,0.047-1.472,1.183-3.311,3.245c-0.184,0.206-0.166,0.522,0.04,0.706    c0.096,0.085,0.215,0.127,0.333,0.127c0.138,0,0.274-0.057,0.373-0.167c1.778-1.994,3.175-3.119,3.205-3.143    c2.895-2.516,4.954-0.467,5.055-0.364c2.675,2.56,4.311,2.439,4.41,2.424c1.658,0.054,2.924-0.354,3.758-1.246    c1.197-1.281,1.022-3.046,1.018-3.066v-5.764c1.502-0.241,2.656-1.536,2.656-3.105c0-0.332-0.056-0.663-0.163-0.981    c6.529-1.396,11.201-7.125,11.201-13.862C65.351,53.364,61.871,48.388,56.9,46.178z M37.983,30.544    c0-6.463,4.627-11.93,11.003-12.997c0.162-0.027,0.302-0.133,0.371-0.283s0.06-0.324-0.024-0.466    c-0.207-0.347-0.312-0.716-0.312-1.098c0-1.188,0.968-2.156,2.156-2.156s2.156,0.968,2.156,2.156c0,0.382-0.104,0.751-0.312,1.098    c-0.084,0.142-0.094,0.315-0.024,0.466s0.209,0.256,0.371,0.283c6.376,1.067,11.003,6.534,11.003,12.997    c0,7.275-5.919,13.194-13.194,13.194S37.983,37.819,37.983,30.544z M46.454,43.913c1.48,0.524,3.065,0.825,4.724,0.825    c1.657,0,3.242-0.301,4.723-0.825v1.872c-1.486-0.529-3.078-0.833-4.744-0.833c-1.65,0-3.228,0.298-4.702,0.817V43.913z     M53.348,72.144c-0.162,0.027-0.302,0.134-0.371,0.283c-0.069,0.15-0.06,0.324,0.024,0.466c0.207,0.347,0.312,0.716,0.312,1.098    c0,1.188-0.968,2.156-2.156,2.156S49,75.179,49,73.99c0-0.382,0.104-0.751,0.312-1.098c0.084-0.142,0.094-0.315,0.024-0.466    c-0.069-0.149-0.209-0.256-0.371-0.283c-6.376-1.067-11.003-6.534-11.003-12.997c0-7.275,5.919-13.194,13.194-13.194    s13.194,5.919,13.194,13.194C64.351,65.609,59.724,71.076,53.348,72.144z"/><path d="M51.178,51.318c0.276,0,0.5-0.224,0.5-0.5v-1.167c0-0.276-0.224-0.5-0.5-0.5s-0.5,0.224-0.5,0.5v1.167    C50.678,51.095,50.901,51.318,51.178,51.318z"/><path d="M51.167,67.401c-0.276,0-0.5,0.224-0.5,0.5v1.167c0,0.276,0.224,0.5,0.5,0.5s0.5-0.224,0.5-0.5v-1.167    C51.667,67.625,51.443,67.401,51.167,67.401z"/><path d="M59.708,59.658h1.167c0.276,0,0.5-0.224,0.5-0.5s-0.224-0.5-0.5-0.5h-1.167c-0.276,0-0.5,0.224-0.5,0.5    S59.432,59.658,59.708,59.658z"/><path d="M42.625,58.647h-1.167c-0.276,0-0.5,0.224-0.5,0.5s0.224,0.5,0.5,0.5h1.167c0.276,0,0.5-0.224,0.5-0.5    S42.901,58.647,42.625,58.647z"/><path d="M44.761,53.458c0.098,0.098,0.226,0.146,0.354,0.146s0.256-0.049,0.354-0.146c0.195-0.195,0.195-0.512,0-0.707    l-0.825-0.825c-0.195-0.195-0.512-0.195-0.707,0s-0.195,0.512,0,0.707L44.761,53.458z"/><path d="M57.539,64.838c-0.195-0.195-0.512-0.195-0.707,0s-0.195,0.512,0,0.707l0.825,0.825c0.098,0.098,0.226,0.146,0.354,0.146    s0.256-0.049,0.354-0.146c0.195-0.195,0.195-0.512,0-0.707L57.539,64.838z"/><path d="M57.686,51.926l-0.825,0.825c-0.195,0.195-0.195,0.512,0,0.707c0.098,0.098,0.226,0.146,0.354,0.146    s0.256-0.049,0.354-0.146l0.825-0.825c0.195-0.195,0.195-0.512,0-0.707S57.881,51.73,57.686,51.926z"/><path d="M44.789,64.838l-0.825,0.825c-0.195,0.195-0.195,0.512,0,0.707c0.098,0.098,0.226,0.146,0.354,0.146    s0.256-0.049,0.354-0.146l0.825-0.825c0.195-0.195,0.195-0.512,0-0.707S44.984,64.643,44.789,64.838z"/><path d="M51.667,56.831l-0.017-3.729c-0.001-0.275-0.225-0.498-0.5-0.498c-0.001,0-0.002,0-0.002,0    c-0.276,0.001-0.499,0.227-0.498,0.502l0.017,3.718c-1.075,0.227-1.886,1.182-1.886,2.323c0,1.31,1.065,2.375,2.375,2.375    s2.375-1.065,2.375-2.375C53.531,58.014,52.731,57.065,51.667,56.831z M51.156,60.522c-0.758,0-1.375-0.617-1.375-1.375    c0-0.587,0.372-1.085,0.891-1.282l0.006,1.295c0.001,0.275,0.225,0.498,0.5,0.498c0.001,0,0.002,0,0.002,0    c0.276-0.001,0.499-0.227,0.498-0.502l-0.006-1.281c0.503,0.205,0.859,0.697,0.859,1.272    C52.531,59.905,51.914,60.522,51.156,60.522z"/></g></g><text x="0" y="115" fill="#000000" font-size="5px" font-weight="bold" font-family="'Helvetica Neue', Helvetica, Arial-Unicode, Arial, Sans-serif">Created by Lea Lafleur</text><text x="0" y="120" fill="#000000" font-size="5px" font-weight="bold" font-family="'Helvetica Neue', Helvetica, Arial-Unicode, Arial, Sans-serif">from the Noun Project</text></svg>