<svg xmlns="http://www.w3.org/2000/svg" xmlns:xlink="http://www.w3.org/1999/xlink" version="1.1" x="0px" y="0px" viewBox="0 0 100 125" enable-background="new 0 0 100 100" xml:space="preserve"><g><path d="M77.749,72.206h-2.938v-0.873h2.251c0.008,0.001,0.016,0.001,0.02,0c0.276,0,0.5-0.224,0.5-0.5   c0-0.125-0.046-0.24-0.122-0.328L53.005,19.236c-0.078-0.165-0.239-0.273-0.421-0.284c-0.018-0.001-0.031,0.01-0.049,0.01   l-1.013-0.639l1.272-1.991c0.149-0.232,0.081-0.542-0.151-0.69s-0.542-0.082-0.69,0.151l-8.387,13.118h-5.692l0.104-0.523   c0.054-0.271-0.123-0.534-0.394-0.587c-0.268-0.057-0.534,0.122-0.587,0.394l-9.154,46.472c-7.192-0.664-11.615-1.272-11.712-1.286   c-0.143-0.016-0.287,0.022-0.397,0.118c-0.109,0.095-0.172,0.232-0.172,0.377c0,9.966,8.93,10.253,9.948,10.253l48.823-0.002   c0.276,0,0.5-0.224,0.5-0.5v-6.918c0-0.136-0.055-0.265-0.152-0.359c-0.099-0.094-0.234-0.146-0.364-0.141   c-3.399,0.11-6.928,0.166-10.485,0.166c-13.739,0-26.234-0.83-34.988-1.616l0.307-1.552h24.912h0.017h23.671   c0.276,0,0.5-0.224,0.5-0.5S78.025,72.206,77.749,72.206z M73.833,77.224v5.902H25.645l-0.135,0.002   c-1.461,0-8.621-0.427-8.938-8.681c3.612,0.471,23.602,2.927,47.259,2.927C67.22,77.374,70.582,77.324,73.833,77.224z    M50.983,19.165l0.828,0.522l-1.547,2.442l-0.838-0.528L50.983,19.165z M48.888,22.443l0.843,0.531l-1.869,2.951l-0.855-0.539   L48.888,22.443z M46.468,26.229l0.858,0.541l-1.869,2.952l-0.871-0.55L46.468,26.229z M44.048,30.016l0.875,0.552l-1.89,2.983   l-0.889-0.56L44.048,30.016z M39.725,36.777l1.882-2.943l0.892,0.562l-1.869,2.952L39.725,36.777z M40.095,38.192l-1.869,2.951   l-0.921-0.58l1.882-2.944L40.095,38.192z M37.678,29.911h5.25L35.339,41.78L37.678,29.911z M36.766,41.405l0.925,0.583   l-1.683,2.656l-0.936-0.59L36.766,41.405z M34.704,45.005l0.904,0.569l-0.545,2.777h-1.019L34.704,45.005z M33.851,49.341   c0.019,0.002,0.035,0.011,0.055,0.011h0.962l-0.754,3.848H33.09L33.851,49.341z M32.893,54.199h1.024l-0.754,3.848h-1.028   L32.893,54.199z M31.938,59.047h1.028l-0.754,3.848H31.18L31.938,59.047z M30.983,63.895h1.033l-0.754,3.848h-1.037L30.983,63.895z    M30.028,68.742h1.038l-0.354,1.81L29.485,71.5L30.028,68.742z M33.312,72.206h-3.105l1.13-0.873h1.976V72.206z M38.374,72.206   h-4.062v-0.873h4.062V72.206z M43.437,72.206h-4.062v-0.873h4.062V72.206z M48.499,72.206h-4.062v-0.873h4.062V72.206z    M49.499,72.206v-0.873h4.017l0.029,0.873H49.499z M58.624,72.206h-4.078l-0.029-0.873h4.107V72.206z M63.687,72.206h-4.062v-0.873   h4.062V72.206z M68.749,72.206h-4.062v-0.873h4.062V72.206z M69.249,65.958c-0.276,0-0.5,0.224-0.5,0.5v3.875h-9.125v-3.875   c0-0.276-0.224-0.5-0.5-0.5s-0.5,0.224-0.5,0.5v3.875h-9.125v-3.875c0-0.276-0.224-0.5-0.5-0.5s-0.5,0.224-0.5,0.5v3.875h-9.125   v-3.875c0-0.276-0.224-0.5-0.5-0.5s-0.5,0.224-0.5,0.5v3.875h-6.601l4.863-24.811l15.855-25.039l23.778,49.85h-6.521v-3.875   C69.749,66.182,69.525,65.958,69.249,65.958z M73.812,72.206h-4.062v-0.873h4.062V72.206z"/></g><text x="0" y="115" fill="#000000" font-size="5px" font-weight="bold" font-family="'Helvetica Neue', Helvetica, Arial-Unicode, Arial, Sans-serif">Created by Lea Lafleur</text><text x="0" y="120" fill="#000000" font-size="5px" font-weight="bold" font-family="'Helvetica Neue', Helvetica, Arial-Unicode, Arial, Sans-serif">from the Noun Project</text></svg>