<svg xmlns="http://www.w3.org/2000/svg" xmlns:xlink="http://www.w3.org/1999/xlink" version="1.1" x="0px" y="0px" viewBox="0 0 100 125" enable-background="new 0 0 100 100" xml:space="preserve"><g><g><path d="M84.384,43.114V23.25c0-0.276-0.224-0.5-0.5-0.5h-2.883v-3.37c0-2.206-1.794-4-4-4s-4,1.794-4,4v3.37H26.999v-3.37    c0-2.206-1.794-4-4-4s-4,1.794-4,4v3.37h-2.938c-0.276,0-0.5,0.224-0.5,0.5v20c0,0.048,0.015,0.092,0.027,0.136V63.25    c0,0.276,0.224,0.5,0.5,0.5h2.91v19.878c0,0.276,0.224,0.5,0.5,0.5h7c0.276,0,0.5-0.224,0.5-0.5V63.75h46.002v19.878    c0,0.276,0.224,0.5,0.5,0.5h7c0.276,0,0.5-0.224,0.5-0.5V63.75h2.91c0.276,0,0.5-0.224,0.5-0.5v-20    C84.411,43.202,84.396,43.158,84.384,43.114z M74.001,19.38c0-1.654,1.346-3,3-3s3,1.346,3,3v3.37h-6V19.38z M19.999,19.38    c0-1.654,1.346-3,3-3s3,1.346,3,3v3.37h-6V19.38z M16.562,23.75h2.938h7h47.002h7h2.883v19H16.562V23.75z M25.999,83.128h-6V63.75    h6V83.128z M80.001,83.128h-6V63.75h6V83.128z M83.411,62.75h-2.91h-7H26.499h-7h-2.91v-19h66.822V62.75z"/><path d="M22.999,58.001c2.619,0,4.75-2.131,4.75-4.75s-2.131-4.75-4.75-4.75s-4.75,2.131-4.75,4.75S20.38,58.001,22.999,58.001z     M22.999,49.501c2.067,0,3.75,1.683,3.75,3.75s-1.683,3.75-3.75,3.75s-3.75-1.683-3.75-3.75S20.932,49.501,22.999,49.501z"/><path d="M77.001,58c2.619,0,4.75-2.131,4.75-4.75s-2.131-4.75-4.75-4.75s-4.75,2.131-4.75,4.75S74.382,58,77.001,58z M77.001,49.5    c2.067,0,3.75,1.683,3.75,3.75S79.068,57,77.001,57s-3.75-1.683-3.75-3.75S74.934,49.5,77.001,49.5z"/><circle cx="22.999" cy="26.667" r="0.677"/><circle cx="22.999" cy="39.875" r="0.677"/><circle cx="77.001" cy="26.645" r="0.677"/><circle cx="77.001" cy="39.854" r="0.677"/><circle cx="22.998" cy="46.657" r="0.677"/><circle cx="22.998" cy="59.866" r="0.677"/><circle cx="77" cy="46.635" r="0.677"/><circle cx="77" cy="59.844" r="0.677"/><path d="M75.168,55.386h1.458v0.584c0,0.207,0.168,0.375,0.375,0.375s0.375-0.168,0.375-0.375v-0.584h1.458    c0.139,0,0.267-0.077,0.332-0.2c0.064-0.123,0.056-0.271-0.022-0.387l-0.767-1.122c0.195-0.013,0.351-0.175,0.351-0.374    c0-0.109-0.047-0.208-0.121-0.276l-0.498-0.84c0.132-0.058,0.224-0.189,0.224-0.343c0-0.12-0.056-0.227-0.144-0.295l-0.883-1.235    c-0.141-0.197-0.469-0.197-0.609,0l-0.938,1.312c-0.082,0.114-0.093,0.265-0.028,0.39c0.037,0.072,0.096,0.129,0.167,0.164    l-0.552,0.932c-0.069,0.116-0.07,0.26-0.004,0.377c0.061,0.104,0.166,0.174,0.284,0.188l-0.768,1.123    c-0.078,0.115-0.087,0.264-0.022,0.387C74.901,55.309,75.029,55.386,75.168,55.386z M76.645,53.515    c0.078-0.115,0.087-0.264,0.022-0.387c-0.065-0.123-0.193-0.2-0.332-0.2h-0.009l0.528-0.893c0.069-0.116,0.07-0.26,0.004-0.377    c-0.029-0.05-0.067-0.092-0.113-0.123l0.256-0.358l0.256,0.358c-0.046,0.031-0.084,0.073-0.113,0.123    c-0.066,0.117-0.065,0.261,0.004,0.377l0.528,0.893h-0.009c-0.139,0-0.267,0.077-0.332,0.2c-0.064,0.123-0.056,0.271,0.022,0.387    l0.767,1.121h-2.246L76.645,53.515z"/><path d="M21.166,55.386h1.458v0.584c0,0.207,0.168,0.375,0.375,0.375s0.375-0.168,0.375-0.375v-0.584h1.458    c0.139,0,0.267-0.077,0.332-0.2c0.064-0.123,0.056-0.271-0.022-0.387l-0.767-1.122c0.195-0.013,0.351-0.175,0.351-0.374    c0-0.109-0.047-0.208-0.121-0.276l-0.498-0.84c0.132-0.058,0.224-0.189,0.224-0.343c0-0.12-0.056-0.227-0.144-0.295l-0.883-1.235    c-0.141-0.197-0.469-0.197-0.609,0l-0.938,1.312c-0.082,0.114-0.093,0.265-0.028,0.39c0.037,0.072,0.096,0.129,0.167,0.164    l-0.552,0.932c-0.069,0.116-0.07,0.26-0.004,0.377c0.061,0.104,0.166,0.174,0.284,0.188l-0.768,1.123    c-0.078,0.115-0.087,0.264-0.022,0.387C20.899,55.309,21.027,55.386,21.166,55.386z M22.643,53.515    c0.078-0.115,0.087-0.264,0.022-0.387c-0.065-0.123-0.193-0.2-0.332-0.2h-0.009l0.528-0.893c0.069-0.116,0.07-0.26,0.004-0.377    c-0.029-0.05-0.067-0.092-0.113-0.123l0.256-0.358l0.256,0.358c-0.046,0.031-0.084,0.073-0.113,0.123    c-0.066,0.117-0.065,0.261,0.004,0.377l0.528,0.893h-0.009c-0.139,0-0.267,0.077-0.332,0.2c-0.064,0.123-0.056,0.271,0.022,0.387    l0.767,1.121h-2.246L22.643,53.515z"/><path d="M31.111,51.626h37.75c0.276,0,0.5-0.224,0.5-0.5s-0.224-0.5-0.5-0.5h-37.75c-0.276,0-0.5,0.224-0.5,0.5    S30.835,51.626,31.111,51.626z"/><path d="M68.889,54.876h-37.75c-0.276,0-0.5,0.224-0.5,0.5s0.224,0.5,0.5,0.5h37.75c0.276,0,0.5-0.224,0.5-0.5    S69.165,54.876,68.889,54.876z"/><path d="M22.499,33.167c0,0.276,0.224,0.5,0.5,0.5h54.002c0.276,0,0.5-0.224,0.5-0.5s-0.224-0.5-0.5-0.5H22.999    C22.723,32.667,22.499,32.891,22.499,33.167z"/></g></g><text x="0" y="115" fill="#000000" font-size="5px" font-weight="bold" font-family="'Helvetica Neue', Helvetica, Arial-Unicode, Arial, Sans-serif">Created by Lea Lafleur</text><text x="0" y="120" fill="#000000" font-size="5px" font-weight="bold" font-family="'Helvetica Neue', Helvetica, Arial-Unicode, Arial, Sans-serif">from the Noun Project</text></svg>