<svg xmlns="http://www.w3.org/2000/svg" xmlns:xlink="http://www.w3.org/1999/xlink" version="1.1" x="0px" y="0px" viewBox="0 0 100 125" enable-background="new 0 0 100 100" xml:space="preserve"><g><g><path d="M84.416,49.646L50.475,15.705c-0.195-0.195-0.512-0.195-0.707,0L15.826,49.646c-0.195,0.195-0.195,0.512,0,0.707    l33.941,33.941c0.098,0.098,0.226,0.146,0.354,0.146s0.256-0.049,0.354-0.146l33.941-33.941    C84.611,50.158,84.611,49.842,84.416,49.646z M50.121,83.234L16.887,50l33.234-33.234L83.355,50L50.121,83.234z"/><path d="M49.768,20.458L20.579,49.646c-0.195,0.195-0.195,0.512,0,0.707l29.188,29.188c0.098,0.098,0.226,0.146,0.354,0.146    s0.256-0.049,0.354-0.146l29.188-29.188c0.195-0.195,0.195-0.512,0-0.707L50.475,20.458    C50.279,20.263,49.963,20.263,49.768,20.458z M78.603,50L50.121,78.481L21.64,50l28.481-28.481L78.603,50z"/><path d="M46.131,40.629l-4.354-2.739c-0.575-0.314-1.124-0.473-1.633-0.473c-1.991,0-2.568,2.279-2.575,2.32l-1.604,4.331    c-2.636,1.523-3.991,2.477-4.049,2.518c-0.164,0.115-0.243,0.317-0.201,0.514c1.815,8.444,5.574,13.21,9.225,15.902    c0.03,0.048,0.065,0.094,0.112,0.13c0.041,0.032,0.093,0.03,0.139,0.048c0.289,0.206,0.577,0.399,0.863,0.581    c0.029,0.041,0.061,0.082,0.104,0.114c0.048,0.035,0.104,0.036,0.158,0.052c4.107,2.508,7.732,2.567,7.805,2.567    c0.146,0,3.643-0.027,7.684-2.446c3.706-2.218,8.574-6.958,10.722-16.948c0.042-0.196-0.037-0.398-0.201-0.514    c-0.058-0.041-1.413-0.994-4.049-2.518l-1.587-4.275c-0.023-0.097-0.601-2.376-2.592-2.376c-0.509,0-1.058,0.158-1.66,0.488    l-4.326,2.724c-0.539-0.113-2.061-0.398-4.008-0.468C48.186,40.23,46.669,40.516,46.131,40.629z M44.467,64.037l0.453-0.614    c0.164-0.223,0.116-0.535-0.105-0.699s-0.535-0.117-0.699,0.105l-0.555,0.753c-0.133-0.071-0.266-0.148-0.398-0.226l0.569-0.772    c0.164-0.223,0.116-0.535-0.105-0.699s-0.535-0.116-0.699,0.105l-0.619,0.84c-0.086-0.057-0.171-0.108-0.258-0.167l0.8-1.028    c0.17-0.218,0.131-0.532-0.088-0.701c-0.217-0.17-0.532-0.132-0.701,0.088l-0.819,1.053c-0.257-0.197-0.515-0.408-0.772-0.63    c4.698-5.73,9.652-5.532,9.652-5.532s4.955-0.198,9.652,5.532c-0.222,0.19-0.443,0.371-0.665,0.544l-0.739-0.95    c-0.17-0.219-0.485-0.259-0.701-0.088c-0.219,0.169-0.258,0.483-0.088,0.701l0.725,0.932c-0.084,0.059-0.168,0.114-0.252,0.17    l-0.55-0.746c-0.163-0.223-0.477-0.271-0.699-0.105c-0.222,0.164-0.27,0.477-0.105,0.699l0.505,0.685    c-0.132,0.078-0.265,0.158-0.395,0.23l-0.494-0.67c-0.163-0.223-0.477-0.27-0.699-0.105c-0.222,0.164-0.27,0.477-0.105,0.699    l0.396,0.537c-3.07,1.466-5.547,1.517-5.785,1.518C49.887,65.493,47.476,65.442,44.467,64.037z M41.043,53.862    c0-0.703,0.57-1.273,1.274-1.273c0.703,0,1.273,0.57,1.273,1.273c0,0.704-0.57,1.274-1.273,1.274    C41.613,55.137,41.043,54.566,41.043,53.862z M56.651,54.006c0-0.703,0.57-1.273,1.274-1.273c0.703,0,1.273,0.57,1.273,1.273    c0,0.704-0.57,1.274-1.273,1.274C57.222,55.28,56.651,54.71,56.651,54.006z M54.471,41.584l4.473-2.817    c0.427-0.232,0.815-0.35,1.154-0.35c1.203,0,1.604,1.548,1.638,1.668l1.666,4.5c0.04,0.109,0.118,0.201,0.22,0.26    c2.02,1.162,3.323,2.015,3.855,2.372c-0.653,2.924-1.538,5.373-2.562,7.436c-1.479-1.136-7.158-5.074-14.793-5.074    s-13.313,3.938-14.793,5.074c-1.024-2.062-1.909-4.512-2.562-7.436c0.532-0.357,1.836-1.21,3.855-2.372    c0.102-0.059,0.18-0.15,0.22-0.26l1.683-4.556c0.005-0.017,0.406-1.612,1.621-1.612c0.339,0,0.728,0.117,1.127,0.334l4.5,2.833    c0.114,0.071,0.251,0.093,0.382,0.063c0.018-0.004,1.728-0.405,3.95-0.486c2.251,0.081,3.968,0.482,3.985,0.486    C54.217,41.677,54.355,41.655,54.471,41.584z"/><path d="M40.831,39.807c-1.78,0-1.937,3.342-1.949,4.012c-0.003,0.159,0.07,0.311,0.197,0.407    c0.088,0.067,0.194,0.103,0.303,0.103c0.048,0,0.095-0.007,0.142-0.021l3.954-1.168c0.151-0.045,0.272-0.158,0.327-0.306    s0.037-0.312-0.049-0.445C42.618,40.627,41.688,39.807,40.831,39.807z M39.926,43.146c0.117-1.134,0.451-2.34,0.905-2.34    c0.149,0,0.683,0.123,1.708,1.567L39.926,43.146z"/><path d="M56.791,42.431l3.656,1.904c0.073,0.038,0.152,0.057,0.231,0.057c0.076,0,0.151-0.018,0.222-0.052    c0.143-0.07,0.243-0.205,0.271-0.362c0.082-0.468,0.449-2.854-0.398-3.864c-0.259-0.309-0.608-0.472-1.011-0.472    c-0.802,0-1.786,0.636-3.1,1.999c-0.109,0.113-0.158,0.271-0.133,0.428C56.555,42.224,56.651,42.358,56.791,42.431z     M59.762,40.642c0.107,0,0.176,0.032,0.244,0.114c0.32,0.381,0.354,1.449,0.27,2.362l-2.416-1.259    C59.005,40.771,59.562,40.642,59.762,40.642z"/><path d="M50.304,58.24c-0.095,0-0.162,0.002-0.172,0.004c-0.031-0.002-0.1-0.004-0.193-0.004c-0.622,0-1.737,0.104-2.229,0.8    c-0.182,0.258-0.351,0.701-0.109,1.377c0.18,0.431,1.148,2.579,2.522,2.579c1.372,0,2.341-2.148,2.531-2.605    c0.23-0.649,0.062-1.093-0.12-1.351C52.041,58.344,50.926,58.24,50.304,58.24z M51.721,60.03    c-0.345,0.824-1.093,1.966-1.599,1.966H50.12c-0.504,0-1.252-1.142-1.588-1.939c-0.106-0.298-0.031-0.405-0.006-0.44    c0.159-0.225,0.727-0.376,1.412-0.376l0.212,0.003l0.153-0.003c0.686,0,1.253,0.151,1.412,0.376    C51.741,59.651,51.816,59.759,51.721,60.03z"/><path d="M31.527,43.19c0.128,0,0.256-0.049,0.354-0.146L43.306,31.62c0.195-0.195,0.195-0.512,0-0.707s-0.512-0.195-0.707,0    L31.174,42.337c-0.195,0.195-0.195,0.512,0,0.707C31.271,43.142,31.399,43.19,31.527,43.19z"/><path d="M68.359,57.021L56.935,68.445c-0.195,0.195-0.195,0.512,0,0.707c0.098,0.098,0.226,0.146,0.354,0.146    s0.256-0.049,0.354-0.146l11.425-11.424c0.195-0.195,0.195-0.512,0-0.707S68.555,56.826,68.359,57.021z"/><path d="M68.534,43.187c0.098,0.098,0.226,0.146,0.354,0.146s0.256-0.049,0.354-0.146c0.195-0.195,0.195-0.512,0-0.707    L57.817,31.054c-0.195-0.195-0.512-0.195-0.707,0s-0.195,0.512,0,0.707L68.534,43.187z"/><path d="M31.708,56.815c-0.195-0.195-0.512-0.195-0.707,0s-0.195,0.512,0,0.707l11.424,11.424    c0.098,0.098,0.226,0.146,0.354,0.146s0.256-0.049,0.354-0.146c0.195-0.195,0.195-0.512,0-0.707L31.708,56.815z"/></g></g><text x="0" y="115" fill="#000000" font-size="5px" font-weight="bold" font-family="'Helvetica Neue', Helvetica, Arial-Unicode, Arial, Sans-serif">Created by Lea Lafleur</text><text x="0" y="120" fill="#000000" font-size="5px" font-weight="bold" font-family="'Helvetica Neue', Helvetica, Arial-Unicode, Arial, Sans-serif">from the Noun Project</text></svg>