<svg xmlns="http://www.w3.org/2000/svg" xmlns:xlink="http://www.w3.org/1999/xlink" version="1.1" x="0px" y="0px" viewBox="0 0 100 125" enable-background="new 0 0 100 100" xml:space="preserve"><g><path d="M75.042,73.469c2.085-2.215,3.882-4.703,5.325-7.409c0.006-0.013,0.014-0.023,0.02-0.037   c2.556-4.804,4.01-10.278,4.01-16.089c0-1.465-0.103-2.906-0.281-4.323c0.003-0.053-0.007-0.104-0.02-0.153   c-0.12-0.918-0.271-1.825-0.463-2.719c-0.007-0.044-0.012-0.089-0.029-0.129c-0.653-2.998-1.699-5.848-3.08-8.499   c-0.019-0.08-0.057-0.15-0.108-0.212c-0.449-0.847-0.934-1.671-1.449-2.474c-0.026-0.086-0.075-0.158-0.14-0.218   c-3.678-5.639-8.96-10.137-15.199-12.837c-0.058-0.042-0.121-0.071-0.189-0.086c-1.86-0.792-3.808-1.415-5.818-1.871   c-0.062-0.028-0.13-0.044-0.198-0.046c-2.011-0.442-4.086-0.708-6.211-0.78c-0.092-0.029-0.186-0.032-0.277-0.007   c-0.304-0.008-0.604-0.023-0.91-0.023c-1.973,0-3.904,0.176-5.787,0.497c-0.051,0.003-0.103,0.009-0.149,0.026   c-1.102,0.193-2.186,0.438-3.249,0.732c-0.072,0.005-0.142,0.025-0.205,0.059c-1.039,0.296-2.058,0.639-3.055,1.027   c-0.079,0.013-0.154,0.039-0.218,0.086c-0.83,0.33-1.646,0.687-2.443,1.078c-0.077,0.019-0.147,0.055-0.207,0.106   c-1.917,0.958-3.732,2.086-5.426,3.371c-0.081,0.033-0.147,0.09-0.201,0.158c-0.76,0.586-1.499,1.197-2.207,1.844   c-0.073,0.039-0.13,0.099-0.176,0.167c-0.743,0.688-1.459,1.404-2.14,2.154c-0.049,0.039-0.089,0.085-0.12,0.14   c-0.73,0.813-1.422,1.661-2.073,2.542c-0.042,0.041-0.074,0.087-0.1,0.14c-0.847,1.158-1.624,2.37-2.324,3.632   c-0.032,0.041-0.059,0.084-0.077,0.134c-1.265,2.305-2.267,4.772-2.979,7.358c-0.032,0.062-0.051,0.127-0.056,0.195   c-0.285,1.057-0.519,2.133-0.702,3.227c-0.015,0.05-0.027,0.1-0.026,0.151c-0.295,1.809-0.455,3.661-0.455,5.552   c0,7.905,2.689,15.189,7.191,21.003c0.033,0.084,0.091,0.151,0.161,0.205c3.943,5.014,9.243,8.91,15.348,11.122   c0.089,0.07,0.19,0.12,0.303,0.12c0.01,0,0.019-0.008,0.029-0.008c3.554,1.246,7.369,1.932,11.344,1.932   c0.969,0,1.926-0.051,2.875-0.129c0.009,0,0.018,0.005,0.026,0.005c0.012,0,0.021-0.009,0.033-0.01   c0.872-0.074,1.736-0.178,2.589-0.316c0.001,0,0.002,0.001,0.003,0.001c0.003,0,0.006-0.003,0.009-0.003   c7.533-1.225,14.247-4.907,19.3-10.193C74.938,73.614,74.999,73.549,75.042,73.469z M56.396,82.69l2.204-4.93   c0.433-0.134,0.86-0.279,1.284-0.433l-1.744,4.977C57.564,82.449,56.982,82.576,56.396,82.69z M53.705,83.1l1.895-4.588   c0.588-0.114,1.171-0.244,1.746-0.394l-2.141,4.785C54.709,82.98,54.208,83.044,53.705,83.1z M50.49,83.296l2.436-4.385   c0.506-0.051,1.008-0.113,1.507-0.19l-1.85,4.479C51.891,83.252,51.193,83.286,50.49,83.296z M47.062,83.169l3.19-4.118   c0.495-0.004,0.988-0.02,1.478-0.049l-2.382,4.289C48.579,83.275,47.817,83.236,47.062,83.169z M43.188,82.602l4.52-3.619   c0.008-0.006,0.011-0.016,0.019-0.022c0.422,0.033,0.847,0.058,1.273,0.072l-3.106,4.011C44.98,82.93,44.077,82.787,43.188,82.602z    M36.972,80.648l4.781-2.691c0.033-0.019,0.057-0.048,0.084-0.072c0.55,0.161,1.105,0.305,1.668,0.434l-4.868,2.987   C38.074,81.101,37.52,80.882,36.972,80.648z M34.312,79.368l4.901-2.391c0.444,0.179,0.895,0.346,1.351,0.502l-4.722,2.657   C35.325,79.893,34.814,79.638,34.312,79.368z M31.422,77.63l5.743-1.515c0.018-0.005,0.03-0.017,0.047-0.022   c0.259,0.127,0.522,0.246,0.785,0.366l-4.742,2.312C32.633,78.408,32.019,78.032,31.422,77.63z M28.938,75.782l5.315-1.148   c0.074-0.016,0.14-0.05,0.196-0.094c0.479,0.304,0.964,0.596,1.461,0.872l-5.553,1.465C29.876,76.523,29.401,76.16,28.938,75.782z    M26.729,73.803l5.378-0.897c0.006-0.001,0.01-0.005,0.016-0.006c0.4,0.312,0.81,0.616,1.227,0.908l-5.229,1.13   c-0.042,0.009-0.075,0.03-0.112,0.049C27.571,74.603,27.145,74.209,26.729,73.803z M24.352,71.236l5.724-0.089c0,0,0,0,0.001,0   c0.332,0.312,0.672,0.616,1.019,0.913l-5.224,0.872C25.348,72.383,24.838,71.82,24.352,71.236z M22.776,69.174h5.387   c0.297,0.337,0.602,0.666,0.914,0.989l-5.51,0.085C23.297,69.896,23.034,69.537,22.776,69.174z M21.202,66.734l5.256,0.34   c0.006,0,0.011,0,0.017,0c0.272,0.374,0.554,0.74,0.844,1.1h-5.079c-0.046,0-0.087,0.015-0.129,0.026   C21.795,67.72,21.493,67.231,21.202,66.734z M19.725,63.907l5.071,0.947c0.031,0.006,0.062,0.009,0.093,0.009   c0.037,0,0.07-0.011,0.105-0.019c0.239,0.399,0.488,0.794,0.746,1.181l-4.94-0.319c-0.057-0.003-0.113,0.009-0.169,0.026   C20.31,65.136,20.011,64.525,19.725,63.907z M18.42,60.645l5.198,1.609c0.238,0.509,0.487,1.013,0.754,1.505L19.29,62.81   c-0.02-0.004-0.037,0.002-0.057,0.001C18.936,62.102,18.669,61.377,18.42,60.645z M18.593,38.713l2.968,4.955   c-0.09,0.412-0.171,0.828-0.244,1.247l-3.425-3.988C18.102,40.178,18.332,39.439,18.593,38.713z M20.241,34.895l1.996,5.753   c0.022,0.062,0.072,0.103,0.113,0.149c-0.163,0.492-0.313,0.989-0.45,1.492l-2.854-4.762C19.408,36.63,19.807,35.752,20.241,34.895   z M24.218,36.408l-0.979-6.365c0.404-0.543,0.827-1.069,1.263-1.586l0.721,6.19C24.867,35.222,24.533,35.809,24.218,36.408z    M23.449,37.985c-0.209,0.461-0.405,0.929-0.59,1.402l-1.978-5.699c0.475-0.848,0.98-1.676,1.524-2.477L23.449,37.985z    M16.687,51.514l4.587,3.197c0.076,0.456,0.161,0.909,0.258,1.358l-4.669-2.387C16.782,52.966,16.721,52.243,16.687,51.514z    M16.745,50.335c-0.027-0.02-0.06-0.026-0.09-0.039c-0.001-0.121-0.009-0.241-0.009-0.362c0-0.385,0.017-0.766,0.029-1.146   l4.281,3.223c0.032,0.453,0.073,0.902,0.126,1.35L16.745,50.335z M21.12,46.22c-0.075,0.583-0.133,1.17-0.173,1.763l-3.8-3.77   c0.123-0.711,0.268-1.415,0.436-2.11L21.12,46.22z M20.891,49.336c-0.005,0.199-0.016,0.397-0.016,0.598   c0,0.261,0.013,0.519,0.02,0.778l-4.135-3.113c-0.007-0.005-0.015-0.006-0.021-0.011c0.051-0.724,0.124-1.441,0.22-2.152   L20.891,49.336z M21.835,57.348c0.13,0.493,0.273,0.98,0.428,1.462l-4.883-2.211c-0.021-0.01-0.044-0.009-0.066-0.016   c-0.114-0.561-0.212-1.128-0.298-1.698L21.835,57.348z M22.704,60.106c0.003,0.001,0.006,0.001,0.009,0.002   c0.117,0.313,0.241,0.625,0.369,0.934l-4.987-1.545c-0.016-0.005-0.03-0.002-0.046-0.005c-0.168-0.562-0.32-1.129-0.459-1.702   L22.704,60.106z M44.943,78.609c0.453,0.079,0.911,0.148,1.371,0.207l-4.259,3.41c-0.033,0.026-0.055,0.062-0.079,0.095   c-0.712-0.177-1.416-0.376-2.109-0.599L44.943,78.609z M61.109,76.851c0.368-0.152,0.73-0.313,1.09-0.48l-1.273,5.046   c-0.005,0.019,0,0.036-0.003,0.054c-0.531,0.185-1.068,0.354-1.611,0.513L61.109,76.851z M63.376,75.792   c0.413-0.216,0.821-0.439,1.224-0.674l-0.894,5.23c-0.001,0.004,0.001,0.008,0,0.013c-0.546,0.246-1.099,0.479-1.659,0.696   L63.376,75.792z M65.733,74.423c0.455-0.294,0.903-0.599,1.341-0.916l-0.257,5.249c-0.656,0.384-1.326,0.747-2.01,1.087   L65.733,74.423z M68.113,72.715c0.363-0.289,0.719-0.586,1.066-0.892l0.42,5.115c-0.57,0.414-1.154,0.81-1.751,1.188L68.113,72.715   z M70.113,70.968c0.333-0.318,0.658-0.646,0.976-0.979l0.7,5.212c-0.407,0.352-0.822,0.692-1.246,1.023L70.113,70.968z    M67.312,72.074c-0.014,0.011-0.027,0.019-0.039,0.03c-4.771,3.726-10.765,5.953-17.272,5.953   c-15.509,0-28.126-12.616-28.126-28.124c0-2.127,0.245-4.195,0.694-6.188c0.008-0.024,0.013-0.047,0.017-0.071   c2.854-12.505,14.059-21.867,27.415-21.867c3.783,0,7.393,0.756,10.69,2.116c-0.793,1.281-3.354,4.767-7.773,4.817   c-1.504,0.018-4.007,0.052-6.74,0.368c-0.002,0-0.005,0-0.007,0.001c-1.734,0.2-3.554,0.521-5.28,1.023   c-0.005,0.001-0.01,0.003-0.016,0.004c-1.817,0.531-3.516,1.268-4.879,2.294c-0.025,0.017-0.051,0.031-0.072,0.051   c-0.367,0.282-0.716,0.578-1.027,0.904c-1.438,1.504-2.129,3.372-2.056,5.523c-0.003,0.131-0.036,2.834,2.592,4.937l-1.409-0.151   c-0.782-0.163-1.639-0.245-2.545-0.245c-2.075,0-3.716,0.425-3.84,0.462c-0.163,0.064-0.314,0.136-0.469,0.204   c-0.021,0.009-0.042,0.016-0.062,0.027c-1.888,0.852-3.188,2.063-3.857,3.615c-0.319,0.74-0.447,1.465-0.486,2.133   c-0.014,0.061-0.017,0.119-0.009,0.179c-0.048,1.489,0.379,2.619,0.4,2.671c0.095,0.276,0.216,0.527,0.324,0.79   c0.013,0.075,0.04,0.143,0.083,0.202c0.43,0.995,0.949,1.889,1.537,2.689c0.016,0.027,0.033,0.051,0.054,0.075   c3.934,5.281,10.613,6.504,10.956,6.563c0.569,0.091,1.146,0.16,1.72,0.24c0.059,0.022,0.12,0.037,0.183,0.037   c0.012,0,0.022-0.007,0.033-0.008c2.017,0.276,4.053,0.482,6.102,0.617c0.028,0.005,0.057,0.02,0.085,0.02   c0.015,0,0.027-0.011,0.043-0.012c1.884,0.12,3.775,0.197,5.669,0.197c0.001,0,0.001,0,0.002,0c0.798,0,1.561-0.014,2.304-0.033   c0.057,0.021,0.114,0.033,0.172,0.033c0.049,0,0.091-0.027,0.137-0.041c0.94-0.029,1.834-0.07,2.676-0.123   c0.003,0,0.007,0.002,0.01,0.002s0.005-0.003,0.008-0.003c0.875-0.054,1.693-0.117,2.45-0.188c0.001,0,0.002,0.001,0.003,0.001   s0.002-0.001,0.004-0.001c3.732-0.345,5.962-0.817,5.979-0.821c12.873-2.03,13.79-9.437,13.809-9.677   c0.312-1.194,0.395-2.266,0.341-3.241c0.008-0.058,0.007-0.112-0.006-0.167c-0.073-0.996-0.302-1.875-0.624-2.646   c-0.014-0.073-0.04-0.139-0.082-0.196c-0.411-0.922-0.943-1.687-1.485-2.291c-0.042-0.07-0.096-0.13-0.163-0.171   c-1.07-1.136-2.103-1.685-2.135-1.7c-0.922-0.424-1.864-0.765-2.808-1.065c-0.04-0.019-0.08-0.032-0.123-0.04   c-1.708-0.534-3.413-0.888-5.033-1.109c-0.019-0.002-0.036-0.008-0.055-0.008c-0.763-0.104-1.509-0.188-2.219-0.24   c-0.004,0-0.007-0.001-0.01-0.001c-1.073-0.08-2.077-0.111-2.97-0.111c-2.021,0-3.312,0.152-3.306,0.155   c-0.522,0-1.052,0.084-1.581,0.203c-0.069,0.002-0.135,0.017-0.197,0.045c-0.754,0.188-1.503,0.472-2.234,0.827   c-0.038,0.012-0.071,0.028-0.104,0.048c-0.748,0.371-1.474,0.803-2.155,1.265c-0.005,0.004-0.01,0.007-0.015,0.01   c-0.66,0.448-1.279,0.919-1.836,1.374c-1.484-0.676-3.47-0.753-4.293-0.753c-0.465,0-1.877,0.029-2.737,0.358   c-1.193-1.162-2.52-1.91-2.623-1.968c-1.595-0.766-2.21-1.795-2.442-2.564c-0.005-0.016-0.006-0.033-0.013-0.048   c-0.165-0.579-0.115-1.001-0.111-1.029c0.421-2.055,2.199-3.364,4.386-4.206c0.013-0.005,0.025-0.009,0.037-0.014   c3.423-1.306,7.838-1.465,9.685-1.465c0.037,0,0.064,0.001,0.102,0.001c0.044,0.012,0.089,0.022,0.133,0.022   c0.024,0,0.043-0.018,0.066-0.021c0.747,0.006,1.217,0.031,1.234,0.032c0.441,0.015,0.862-0.005,1.278-0.03   c0.002,0,0.004,0.002,0.007,0.003c0.041,0.011,0.082,0.016,0.122,0.016c0.025,0,0.045-0.021,0.07-0.023   c2.1-0.164,3.863-0.82,5.322-1.678c0.083-0.027,0.157-0.071,0.215-0.135c0.812-0.499,1.529-1.053,2.146-1.621   c0.049-0.031,0.093-0.067,0.128-0.113c1.42-1.34,2.298-2.69,2.701-3.388c7.958,4.636,13.449,13.059,13.974,22.786   c-0.005,0.049-0.002,0.097,0.008,0.146c0.022,0.459,0.035,0.921,0.035,1.385c0,3.136-0.523,6.15-1.476,8.97   c-0.017,0.033-0.026,0.067-0.035,0.104c-0.636,1.858-1.457,3.631-2.448,5.292c-0.002,0.004-0.005,0.008-0.007,0.012   c-0.413,0.691-0.857,1.362-1.326,2.014c-0.075,0.057-0.126,0.136-0.159,0.224C71.146,68.627,69.34,70.484,67.312,72.074z    M43.411,17.217l-2.244,4.963c-0.52,0.166-1.031,0.349-1.538,0.543l1.626-4.989C41.966,17.54,42.684,17.363,43.411,17.217z    M47.068,16.694l-2.822,4.686c-0.612,0.123-1.216,0.27-1.813,0.43l2.174-4.807C45.418,16.87,46.239,16.768,47.068,16.694z    M38.415,23.217c-0.364,0.158-0.728,0.321-1.085,0.494l0.773-4.946c0.655-0.251,1.316-0.49,1.991-0.7L38.415,23.217z    M36.229,24.275c-0.454,0.245-0.903,0.5-1.343,0.769l0.607-5.154c0.503-0.244,1.013-0.478,1.53-0.697L36.229,24.275z    M33.799,25.742c-0.445,0.299-0.881,0.61-1.308,0.933l0.313-5.323c0.529-0.319,1.07-0.622,1.618-0.913L33.799,25.742z    M31.44,27.505c-0.479,0.397-0.942,0.814-1.396,1.242l-0.07-5.479c0.581-0.438,1.18-0.853,1.789-1.253L31.44,27.505z    M29.058,29.723c-0.353,0.365-0.694,0.739-1.027,1.122l-0.404-5.636c0.441-0.4,0.896-0.786,1.358-1.162L29.058,29.723z    M53.434,16.729l-3.661,4.083c-0.473,0.004-0.942,0.017-1.409,0.043l2.938-4.267C52.018,16.616,52.73,16.658,53.434,16.729z    M56.359,17.168l-3.985,3.743c-0.424-0.034-0.85-0.061-1.278-0.077l3.544-3.95C55.218,16.964,55.791,17.058,56.359,17.168z    M59.176,17.844l-3.893,3.452c-0.526-0.097-1.058-0.18-1.594-0.247l3.859-3.626C58.097,17.55,58.639,17.69,59.176,17.844z    M65.62,20.438l-5.275,2.266c-0.003,0.001-0.004,0.004-0.007,0.005c-0.467-0.179-0.939-0.346-1.418-0.5l4.445-2.86   C64.132,19.685,64.885,20.048,65.62,20.438z M68.282,22.016l-5.37,1.819c-0.344-0.171-0.691-0.333-1.043-0.49l-0.226-0.111   l5.077-2.181C67.25,21.36,67.771,21.681,68.282,22.016z M71.071,24.056l-5.718,1.143c-0.366-0.229-0.739-0.448-1.116-0.661   c-0.028-0.022-0.053-0.049-0.087-0.065l5.162-1.749C69.913,23.149,70.501,23.591,71.071,24.056z M73.354,26.099l-5.514,0.836   c-0.424-0.329-0.855-0.648-1.297-0.955l5.497-1.098C72.488,25.276,72.928,25.682,73.354,26.099z M75.367,28.255l-5.298,0.487   c-0.032,0.003-0.061,0.019-0.091,0.027c-0.355-0.337-0.72-0.664-1.093-0.982l5.331-0.808C74.611,27.395,74.995,27.82,75.367,28.255   z M77.494,31.011l-5.52-0.32c-0.043-0.004-0.083,0.008-0.124,0.016c-0.312-0.353-0.63-0.697-0.957-1.035l5.141-0.473   c0.032-0.003,0.06-0.019,0.091-0.027C76.601,29.769,77.059,30.381,77.494,31.011z M82.893,55.67l-3.683-4.454   c-0.033-0.04-0.074-0.066-0.115-0.094c0.016-0.395,0.03-0.79,0.03-1.188c0-0.094-0.006-0.187-0.007-0.28l4.086,3.845   C83.126,54.23,83.018,54.953,82.893,55.67z M82.223,58.689l-3.416-4.466c0.083-0.558,0.146-1.121,0.196-1.688l3.646,4.409   C82.523,57.532,82.38,58.113,82.223,58.689z M81.32,61.517l-3.018-4.465c-0.014-0.021-0.034-0.031-0.05-0.049   c0.119-0.475,0.226-0.954,0.32-1.438l3.307,4.322C81.708,60.437,81.521,60.979,81.32,61.517z M79.963,64.657l-2.331-5.538   c0.096-0.287,0.189-0.575,0.276-0.866l2.905,4.299c0.02,0.028,0.049,0.042,0.073,0.064C80.601,63.309,80.293,63.989,79.963,64.657z    M78.467,67.368l-1.974-5.349c-0.001-0.002-0.002-0.003-0.003-0.005c0.228-0.496,0.44-0.999,0.641-1.51l2.236,5.314   C79.081,66.345,78.779,66.86,78.467,67.368z M76.801,69.829l-1.653-5.231c0.258-0.439,0.503-0.886,0.737-1.34l1.905,5.165   C77.472,68.899,77.143,69.369,76.801,69.829z M79.071,48.236c-0.033-0.584-0.088-1.161-0.155-1.735l4.467,2.906   c0.003,0.176,0.014,0.35,0.014,0.526c0,0.771-0.036,1.532-0.088,2.29L79.071,48.236z M78.732,45.189   c-0.075-0.458-0.16-0.912-0.257-1.362l4.671,2.091c0.091,0.752,0.165,1.51,0.205,2.276L78.732,45.189z M78.189,42.604   c-0.115-0.443-0.239-0.884-0.375-1.319l4.895,1.895c0.107,0.521,0.201,1.046,0.284,1.575L78.189,42.604z M77.396,40.051   c-0.16-0.442-0.331-0.88-0.512-1.312l5.089,1.562c0.169,0.562,0.322,1.129,0.463,1.702L77.396,40.051z M76.344,37.527   c-0.197-0.417-0.403-0.827-0.619-1.232l5.172,1.03c0.007,0.001,0.014,0.001,0.021,0.002c0.244,0.596,0.469,1.2,0.678,1.812   L76.344,37.527z M75.078,35.146c-0.259-0.437-0.527-0.867-0.808-1.29l5.417,0.815c0.262,0.506,0.511,1.021,0.747,1.542   L75.078,35.146z M73.487,32.729c-0.002,0-0.004,0.001-0.006,0c-0.247-0.337-0.504-0.668-0.766-0.993l5.465,0.316   c0.317,0.498,0.623,1.005,0.914,1.52L73.487,32.729z M61.46,27.519L61.324,24.8c0.114-0.174,0.216-0.334,0.293-0.465l1.618,0.798   C62.938,25.644,62.347,26.547,61.46,27.519z M56.93,30.749l0.225-2.079c0.396-0.209,0.769-0.438,1.113-0.681v2.104   C57.848,30.333,57.404,30.555,56.93,30.749z M52.594,31.595c-0.145,0-0.292-0.002-0.428-0.007c0,0-0.243-0.013-0.636-0.023   l0.645-1.814c0.273-0.004,0.526-0.007,0.755-0.01c0.233-0.003,0.457-0.022,0.681-0.041l-0.472,1.869   C52.957,31.577,52.781,31.595,52.594,31.595z M39.047,33.762v-1.923c0.454-0.195,0.921-0.375,1.404-0.535l-0.21,1.896   C39.826,33.369,39.428,33.556,39.047,33.762z M50.479,44.13l0.28,1.408c-0.384-0.279-0.797-0.551-1.13-0.761   C49.901,44.561,50.185,44.346,50.479,44.13z M54.662,41.859l-0.201,1.769c-0.349,0.118-0.687,0.249-1.006,0.396v-1.682   C53.854,42.157,54.256,41.992,54.662,41.859z M56.879,41.465c0.005,0,0.185-0.021,0.508-0.048l-0.512,1.715   c0,0.001,0,0.002,0,0.004c-0.476,0.037-0.936,0.103-1.374,0.201l0.198-1.746C56.095,41.516,56.489,41.466,56.879,41.465z    M64.564,41.569l-0.812,1.691c-0.438-0.042-0.869-0.077-1.286-0.104l0.882-1.704C63.747,41.485,64.148,41.521,64.564,41.569z    M67.021,41.958l-1.211,1.561c-0.336-0.053-0.671-0.1-1.004-0.141l0.799-1.664C66.07,41.783,66.543,41.866,67.021,41.958z    M72.062,43.441l-1.813,1.175c-0.335-0.124-0.678-0.239-1.028-0.345l1.252-1.419C71.005,43.028,71.534,43.226,72.062,43.441z    M55.95,62.939l0.54-1.655c0.511-0.045,1.006-0.092,1.48-0.141l-0.624,1.685C56.901,62.867,56.437,62.904,55.95,62.939z    M53.186,63.09l0.644-1.607c0.539-0.032,1.065-0.069,1.579-0.108l-0.533,1.634C54.332,63.04,53.77,63.067,53.186,63.09z    M50.53,63.147l0.707-1.542c0.504-0.017,1.001-0.037,1.491-0.062l-0.633,1.579C51.587,63.136,51.065,63.144,50.53,63.147z    M41.852,62.762l0.939-1.355c0.596,0.053,1.205,0.099,1.83,0.135l-0.685,1.393C43.239,62.885,42.546,62.826,41.852,62.762z    M36.274,62.073c-0.01-0.002-0.143-0.027-0.341-0.072l1.705-1.351c0.423,0.091,0.855,0.176,1.299,0.254l-1.123,1.384   C37.301,62.216,36.784,62.155,36.274,62.073z M57.439,44.092c0.008,0,0.717-0.04,1.842-0.04c3.405,0,14.552,0.427,15.008,5.96   c0.011,0.069,0.999,6.956-10.181,9.298c-0.072,0.014-7.387,1.343-15.523,1.343c-9.69,0-16.605-1.883-19.982-5.428   c-0.022-0.026-2.312-2.714-1.807-5.004c0.226-1.022,1.003-1.841,2.3-2.427c0.012-0.005,1.281-0.526,3.5-0.526   c0.998,0,2.043,0.104,3.147,0.317c0.042,0.005,0.518,0.054,1.161,0.106c0.003,0.002,0.005,0.006,0.008,0.008   c0.081,0.05,0.171,0.073,0.26,0.073c0.062,0,0.12-0.023,0.178-0.046c1.041,0.079,2.325,0.149,3.007,0.083   c0.513,0.77,0.667,1.325,0.676,1.355c0.026,0.08,0.67,1.967,3.112,2.135c0.03,0.007,0.19,0.039,0.452,0.039   c0.001,0,0.003,0.001,0.004,0.001c0.022,0.003,0.046,0.005,0.068,0.005c0.018,0,0.032-0.007,0.05-0.009   c0.549-0.021,1.452-0.191,2.546-0.889c0.02-0.01,0.036-0.021,0.054-0.033c0.463-0.301,0.958-0.691,1.476-1.212   c0.49,0.375,0.804,0.662,0.811,0.662c2.312,3.048,3.88,1.823,3.952,1.771c0.64-0.409,0.832-0.927,0.881-1.288   c0.141-1.037-0.685-1.988-0.754-2.063c-0.518-0.672-1.188-1.351-2-2.022C53.02,45.229,54.99,44.149,57.439,44.092z M76.673,52.35   l-1.364-1.708c0.014-0.465-0.027-0.744-0.028-0.751c-0.001-0.009-0.003-0.018-0.004-0.027l1.561,0.498   C76.854,50.977,76.804,51.638,76.673,52.35z M44.475,48.571l-0.237,1.734c-0.633-0.057-1.1-0.247-1.437-0.476l1.191-1.36   C44.14,48.525,44.302,48.557,44.475,48.571z M52.1,48.002c0.3,0.306,0.577,0.611,0.815,0.92c0.049,0.055,0.125,0.16,0.205,0.282   l-1.961,0.909c-0.248-0.232-0.519-0.53-0.815-0.919c-0.006-0.005-0.05-0.046-0.119-0.108L52.1,48.002z M53.447,50.212   c-0.031,0.226-0.171,0.415-0.446,0.591c-0.006,0.004-0.135,0.085-0.371,0.085c-0.125,0-0.3-0.029-0.515-0.117l1.327-0.615   C53.441,50.174,53.449,50.193,53.447,50.212z M45.509,48.385c0.199-0.088,0.399-0.197,0.603-0.344   c0.029-0.021,0.056-0.044,0.08-0.071c0.002-0.002,0.062-0.067,0.158-0.171l0.174,1.939c-0.502,0.295-0.931,0.447-1.271,0.525   L45.509,48.385z M47.466,49.055l-0.074-0.829c0.187,0.106,0.38,0.225,0.584,0.366C47.802,48.761,47.632,48.916,47.466,49.055z    M43.167,47.896l-1.062,1.212c-0.077-0.13-0.11-0.219-0.113-0.225c-0.005-0.02-0.089-0.323-0.317-0.787l1.231-0.524   C42.981,47.682,43.07,47.789,43.167,47.896z M50.569,46.65c0.003,0.002,0.006,0.003,0.009,0.005   c0.001,0.001,0.002,0.003,0.003,0.004c0.27,0.209,0.521,0.417,0.761,0.627l-1.943,1.123c-0.117-0.091-0.232-0.18-0.368-0.277   c-0.001-0.001-0.002-0.001-0.003-0.001c-0.227-0.182-0.449-0.338-0.666-0.48l1.69-1.39C50.236,46.392,50.416,46.524,50.569,46.65z    M45.28,47.39c-0.521,0.297-0.949,0.226-1.261-0.048l0.646-0.047C44.861,47.31,45.066,47.341,45.28,47.39z M42.423,46.618   c0.002,0.006,0.014,0.039,0.021,0.062l-1.28,0.546c-0.055-0.081-0.107-0.162-0.169-0.247c0,0-0.001,0-0.001-0.001   c-0.097-0.175-0.205-0.341-0.32-0.501l1.406-0.562C42.218,46.144,42.337,46.378,42.423,46.618z M39.69,46.837   c-0.028,0-0.05,0.001-0.081,0.001c-0.467,0-1.017-0.026-1.551-0.061l0.573-0.939C38.993,46.108,39.367,46.441,39.69,46.837z    M37.378,45.062c0.073,0.034,0.22,0.11,0.419,0.225l-0.857,1.407c-0.601-0.051-1.04-0.097-1.047-0.097   c-0.211-0.041-0.417-0.059-0.627-0.093l0.696-1.597L37.378,45.062z M34.241,46.354c-0.552-0.056-1.096-0.084-1.628-0.085   l0.539-1.694c0.24,0.032,0.481,0.059,0.716,0.106l1.053,0.114L34.241,46.354z M31.551,46.309c-0.585,0.042-1.082,0.113-1.494,0.193   l0.423-2.015c0.318-0.022,0.649-0.038,0.999-0.038c0.225,0,0.437,0.02,0.654,0.03L31.551,46.309z M28.979,46.774   c-0.17,0.056-0.268,0.097-0.284,0.104c-0.234,0.105-0.45,0.221-0.657,0.34l-0.16-2.327c0.024-0.01,0.047-0.021,0.071-0.031   c0.01-0.002,0.598-0.152,1.488-0.271L28.979,46.774z M26.905,45.351l0.177,2.553c-0.217,0.193-0.406,0.4-0.57,0.618l-1.396-1.812   C25.593,46.189,26.195,45.736,26.905,45.351z M24.174,48.144c0.091-0.209,0.199-0.409,0.318-0.604l1.369,1.776   c0.038,0.05,0.088,0.082,0.139,0.112c-0.074,0.188-0.138,0.38-0.182,0.58c-0.046,0.209-0.069,0.418-0.082,0.628L23.775,49.7   C23.825,49.202,23.944,48.672,24.174,48.144z M25.807,51.776c0.07,0.404,0.181,0.798,0.319,1.172h-1.803   c-0.074-0.188-0.163-0.361-0.229-0.556c-0.005-0.012-0.246-0.663-0.321-1.586L25.807,51.776z M26.567,53.948   c0.269,0.518,0.555,0.958,0.791,1.292l-1.587,0.372c-0.369-0.518-0.715-1.065-1.016-1.664H26.567z M28.074,56.101   c0.33,0.329,0.685,0.643,1.065,0.942l-1.417,0.761c-0.445-0.404-0.876-0.841-1.281-1.32L28.074,56.101z M30.039,57.694   c0.334,0.222,0.681,0.436,1.047,0.639l-1.36,1.017c-0.398-0.26-0.793-0.544-1.184-0.852L30.039,57.694z M32.077,58.841   c0.449,0.213,0.918,0.415,1.409,0.604l-1.567,1.136c-0.415-0.197-0.842-0.422-1.275-0.669L32.077,58.841z M34.629,59.853   c0.563,0.185,1.157,0.351,1.768,0.507l-1.665,1.319c-0.501-0.153-1.101-0.361-1.756-0.628L34.629,59.853z M40.074,61.093   c0.513,0.075,1.038,0.143,1.575,0.203l-0.938,1.354c-0.581-0.062-1.161-0.126-1.739-0.199L40.074,61.093z M45.711,61.591   c0.553,0.022,1.114,0.038,1.688,0.047l-0.813,1.448c-0.522-0.02-1.043-0.06-1.564-0.089L45.711,61.591z M48.537,61.651   c0.017,0,0.031,0.001,0.048,0.001c0.517,0,1.03-0.006,1.539-0.016l-0.689,1.506c-0.572-0.004-1.144-0.02-1.716-0.034L48.537,61.651   z M59.081,61.024c0.57-0.065,1.108-0.13,1.601-0.193l-0.571,1.701c-0.503,0.063-1.056,0.128-1.658,0.189L59.081,61.024z    M61.786,60.683c0.647-0.091,1.188-0.173,1.597-0.238l-0.726,1.71c-0.369,0.064-0.849,0.143-1.442,0.229L61.786,60.683z    M64.56,60.231c0.527-0.115,1.028-0.242,1.506-0.377l-0.448,1.735c-0.562,0.129-1.16,0.244-1.783,0.349L64.56,60.231z    M67.188,59.508c0.531-0.18,1.024-0.372,1.488-0.574l-0.312,1.87c-0.514,0.181-1.062,0.351-1.641,0.509L67.188,59.508z    M69.777,58.411c0.466-0.246,0.893-0.503,1.284-0.767l-0.06,2.004c-0.477,0.256-0.993,0.502-1.555,0.736L69.777,58.411z    M72.086,56.871c0.248-0.209,0.479-0.421,0.69-0.635l0.275,2.088c-0.314,0.246-0.658,0.489-1.031,0.729L72.086,56.871z    M73.958,57.54l-0.307-2.32c0.195-0.263,0.37-0.523,0.522-0.782l0.549,2.289C74.497,56.994,74.243,57.266,73.958,57.54z    M75.498,55.669l-0.643-2.681c0.12-0.34,0.21-0.663,0.276-0.965l1.28,1.604C76.291,54.086,76.033,54.817,75.498,55.669z    M75.047,48.74c-0.105-0.319-0.239-0.621-0.404-0.906h1.712c0.167,0.441,0.295,0.924,0.381,1.444L75.047,48.74z M73.922,46.834   c-0.012,0-0.021,0.006-0.032,0.007c-0.237-0.252-0.499-0.487-0.783-0.707l1.928-0.548c0.302,0.358,0.594,0.775,0.857,1.248H73.922z    M71.994,45.409c-0.204-0.113-0.414-0.222-0.63-0.324l1.783-1.156c0.242,0.151,0.647,0.434,1.099,0.841L71.994,45.409z    M68.146,43.978c-0.403-0.099-0.811-0.188-1.22-0.267l1.184-1.525c0.439,0.103,0.88,0.209,1.321,0.335L68.146,43.978z    M61.372,43.097c-0.431-0.019-0.84-0.03-1.222-0.037l0.786-1.685c0.007-0.016,0.006-0.032,0.012-0.048   c0.42,0.009,0.857,0.026,1.312,0.051L61.372,43.097z M59.05,43.053c-0.455,0.002-0.835,0.01-1.112,0.019l0.512-1.72   c0.407-0.019,0.88-0.032,1.411-0.035L59.05,43.053z M52.455,44.542c-0.274,0.159-0.532,0.323-0.776,0.491l-0.304-1.522   c0.352-0.23,0.711-0.45,1.08-0.658V44.542z M48.523,45.271c0.039,0.022,0.306,0.183,0.66,0.408l-1.748,1.437   c-0.589-0.293-1.007-0.421-1.037-0.43c-0.002,0-0.003,0-0.005,0c-0.074-0.027-0.146-0.043-0.219-0.067l1.35-1.735   C47.903,44.992,48.244,45.121,48.523,45.271z M45.107,46.362c-0.146-0.021-0.29-0.056-0.438-0.065l-1.152,0.08l1.014-1.887   c0.674,0.006,1.32,0.06,1.913,0.154L45.107,46.362z M42.93,45.357c-0.146-0.23-0.306-0.468-0.486-0.697   c0.241-0.053,0.557-0.098,0.931-0.13L42.93,45.357z M39.979,45.676c-0.282-0.273-0.573-0.516-0.853-0.718l1.634-0.595   c0.244,0.224,0.484,0.463,0.707,0.719L39.979,45.676z M38.055,44.284c-0.167-0.089-0.283-0.145-0.315-0.159   c-0.151-0.091-0.303-0.18-0.468-0.268c-0.143-0.076-0.271-0.156-0.401-0.235l2.301-0.49c0.201,0.133,0.438,0.298,0.696,0.492   L38.055,44.284z M35.788,42.83c-0.316-0.283-0.585-0.573-0.807-0.862l2.002-0.26c0.256,0.233,0.558,0.46,0.905,0.675L35.788,42.83z    M36.01,33.722l0.613,1.993c-0.06,0.074-0.124,0.146-0.181,0.223l-1.328-1.261c0.155-0.206,0.321-0.408,0.505-0.601   C35.739,33.95,35.88,33.84,36.01,33.722z M34.569,35.537l1.353,1.283c-0.095,0.2-0.17,0.413-0.24,0.629l-1.587-0.718   C34.213,36.314,34.371,35.916,34.569,35.537z M33.841,38.905c-0.014-0.403,0.009-0.79,0.055-1.168l1.575,0.714   c0.001,0.142,0.011,0.316,0.038,0.517h-1.668C33.841,38.937,33.841,38.915,33.841,38.905z M34.398,41.034   c-0.193-0.389-0.321-0.752-0.403-1.066h1.776c0.105,0.269,0.248,0.548,0.436,0.832L34.398,41.034z M37.414,34.887l-0.565-1.838   c0.376-0.266,0.774-0.511,1.198-0.734v2.012c0,0.018,0.008,0.032,0.01,0.049C37.83,34.536,37.618,34.708,37.414,34.887z    M41.492,30.992c0.525-0.145,1.057-0.277,1.596-0.39l-0.375,1.802c-0.482,0.118-0.957,0.255-1.423,0.407L41.492,30.992z    M44.151,30.403c0.5-0.086,1-0.165,1.496-0.229l-0.346,1.733c-0.502,0.071-1.01,0.159-1.519,0.26L44.151,30.403z M46.69,30.053   c0.566-0.06,1.118-0.107,1.654-0.146l-0.506,1.737c-0.479,0.032-0.979,0.078-1.491,0.133L46.69,30.053z M49.407,29.84   c0.605-0.031,1.173-0.053,1.697-0.066l-0.632,1.779c-0.466,0.001-0.995,0.011-1.575,0.034L49.407,29.84z M54.677,29.556   c0.503-0.102,0.974-0.245,1.421-0.414l-0.214,1.98c-0.531,0.158-1.1,0.271-1.69,0.353L54.677,29.556z M59.268,27.189   c0.427-0.384,0.799-0.772,1.118-1.146l0.121,2.427c-0.377,0.341-0.787,0.678-1.239,0.996V27.189z M57.654,21.834   c-0.38-0.104-0.763-0.197-1.148-0.285l3.756-3.331c0.013-0.011,0.018-0.026,0.028-0.038c0.66,0.214,1.309,0.45,1.95,0.703   L57.654,21.834z M74.455,65.722l1.581,5.006c0.006,0.018,0.022,0.025,0.029,0.041c-0.384,0.479-0.779,0.95-1.188,1.407l-1.2-5.313   C73.944,66.488,74.204,66.108,74.455,65.722z M50.108,16.559l-3.027,4.395c-0.513,0.052-1.021,0.115-1.525,0.192l2.737-4.544   c0.573-0.029,1.149-0.045,1.729-0.045C50.051,16.557,50.079,16.559,50.108,16.559z M26.687,26.102l0.42,5.859   c-0.355,0.452-0.699,0.913-1.028,1.387l-0.688-5.91C25.809,26.979,26.243,26.536,26.687,26.102z M72.689,74.399l-0.701-5.223   c-0.006-0.046-0.026-0.085-0.044-0.126c0.324-0.372,0.639-0.752,0.944-1.141l1.163,5.148   C73.609,73.518,73.157,73.966,72.689,74.399z"/></g><text x="0" y="115" fill="#000000" font-size="5px" font-weight="bold" font-family="'Helvetica Neue', Helvetica, Arial-Unicode, Arial, Sans-serif">Created by Lea Lafleur</text><text x="0" y="120" fill="#000000" font-size="5px" font-weight="bold" font-family="'Helvetica Neue', Helvetica, Arial-Unicode, Arial, Sans-serif">from the Noun Project</text></svg>