<svg xmlns="http://www.w3.org/2000/svg" xmlns:xlink="http://www.w3.org/1999/xlink" version="1.1" x="0px" y="0px" viewBox="0 0 100 125" enable-background="new 0 0 100 100" xml:space="preserve"><g><g><path d="M24.927,46.391c2.932,0,5.229-1.383,5.229-3.148c0-1.765-2.297-3.147-5.229-3.147s-5.229,1.383-5.229,3.147    C19.698,45.008,21.995,46.391,24.927,46.391z M24.927,41.095c2.529,0,4.229,1.11,4.229,2.147s-1.699,2.148-4.229,2.148    s-4.229-1.111-4.229-2.148S22.397,41.095,24.927,41.095z"/><path d="M84.329,51.872c-0.052-0.17-0.19-0.3-0.364-0.341c-13.049-3.075-31.051-4.535-31.23-4.549    c-0.006,0-0.013,0.003-0.019,0.002c-0.008,0-0.014-0.004-0.021-0.004H34.446v-2.428c0-0.413-0.036-0.804-0.088-1.184    c0-0.008,0.002-0.017,0.002-0.025c0-0.902-0.318-1.757-0.874-2.527c-1.406-2.295-4.327-3.521-8.56-3.521    c-3.826,0-6.568,1.021-8.079,2.942c-0.854,0.909-1.354,1.97-1.354,3.106c0,0.15,0.019,0.297,0.035,0.444    c-0.021,0.249-0.035,0.502-0.035,0.765v8.676c0,5.226,4.251,9.477,9.477,9.477c4.851,0,8.855-3.665,9.406-8.37h18.318    c0.012,0,0.021-0.006,0.032-0.007c0.01,0,0.021,0.004,0.03,0.003c3.438-0.433,6.876-0.652,10.216-0.652    c12.213,0,19.558,2.935,19.631,2.964c0.061,0.025,0.125,0.037,0.188,0.037c0.123,0,0.244-0.045,0.338-0.132    C85.154,54.692,84.363,51.986,84.329,51.872z M17.954,40.508c1.52-1.335,4.077-2.213,6.973-2.213c3.215,0,6.013,1.083,7.436,2.671    c0.493,0.655,0.841,1.464,0.992,2.452c-0.067,2.749-3.819,4.973-8.428,4.973c-4.377,0-7.982-2.006-8.393-4.562    C16.665,42.393,17.187,41.313,17.954,40.508z M24.97,61.705c-4.674,0-8.477-3.803-8.477-8.477v-7.191    c1.549,1.984,4.742,3.354,8.434,3.354c3.762,0,7.006-1.422,8.52-3.468v1.558v5.748C33.446,57.902,29.644,61.705,24.97,61.705z     M34.446,53.229V47.98h17.748v5.354H34.446V53.229z M82.668,55.596c-1.543-0.572-8.547-2.917-19.695-2.917    c-3.199,0-6.486,0.199-9.778,0.591v-5.245c3.069,0.266,18.565,1.696,30.239,4.409C83.543,53.027,83.675,54.48,82.668,55.596z"/></g></g><text x="0" y="115" fill="#000000" font-size="5px" font-weight="bold" font-family="'Helvetica Neue', Helvetica, Arial-Unicode, Arial, Sans-serif">Created by Lea Lafleur</text><text x="0" y="120" fill="#000000" font-size="5px" font-weight="bold" font-family="'Helvetica Neue', Helvetica, Arial-Unicode, Arial, Sans-serif">from the Noun Project</text></svg>