<svg xmlns="http://www.w3.org/2000/svg" xmlns:xlink="http://www.w3.org/1999/xlink" version="1.1" x="0px" y="0px" viewBox="0 0 100 125" enable-background="new 0 0 100 100" xml:space="preserve"><g><g><path d="M83.928,43.39c-0.125-0.128-3.123-3.175-8.885-6.259c-5.305-2.841-14.042-6.227-25.536-6.227    c-22.006,0-34.299,12.36-34.421,12.485c-0.091,0.093-0.142,0.219-0.142,0.349v26.5c0,0.276,0.224,0.5,0.5,0.5h68.125    c0.276,0,0.5-0.224,0.5-0.5v-26.5C84.069,43.608,84.019,43.482,83.928,43.39z M83.069,69.738H15.944v-25.79    c1.411-1.351,13.234-12.044,33.562-12.044c20.308,0,32.15,10.694,33.562,12.044V69.738z"/><path d="M17.455,44.65v23.088c0,0.013,0.006,0.022,0.007,0.035c0.002,0.034,0.01,0.066,0.02,0.1c0.008,0.03,0.017,0.06,0.03,0.088    c0.014,0.027,0.033,0.052,0.052,0.076c0.021,0.027,0.041,0.053,0.067,0.075c0.009,0.009,0.014,0.02,0.024,0.027    c0.009,0.007,0.021,0.004,0.031,0.011c0.078,0.051,0.166,0.088,0.266,0.088c0,0,0.001,0,0.001,0l0,0c0,0,0,0,0,0h63.157    c0.276,0,0.5-0.224,0.5-0.5V44.65c0-0.136-0.055-0.266-0.152-0.359c-0.113-0.109-11.518-10.886-31.926-10.886    c-20.407,0-31.812,10.776-31.925,10.886C17.51,44.385,17.455,44.515,17.455,44.65z M21.934,52.679l1.815,1.904    c0.094,0.1,0.225,0.155,0.362,0.155c0,0,0.001,0,0.002,0c0.138-0.001,0.269-0.058,0.363-0.158l2.133-2.273l1.035,1.106    c0.072,0.077,0.165,0.117,0.26,0.138l-9.449,12.68v-8.861L21.934,52.679z M22.538,51.864l1.617-2.181l1.769,1.891l-1.816,1.937    L22.538,51.864z M37.935,46.389l2.721,1.924c0.086,0.062,0.188,0.092,0.289,0.092c0.098,0,0.196-0.029,0.281-0.087l2.872-1.954    l6.539,7.897l-5.345,7.441L35.179,50.229L37.935,46.389z M38.518,45.577l2.288-3.188l2.65,3.201l-2.507,1.705L38.518,45.577z     M51.544,47.299h6.361l7.434,8.165l-3.891,5.298l-8.13-9.188c-0.101-0.114-0.249-0.188-0.399-0.168    c-0.152,0.008-0.292,0.084-0.381,0.207l-1.299,1.808l-2.172-2.622L51.544,47.299z M52.251,46.299l2.075-2.932l2.669,2.932H52.251z     M68.736,46.736h5.708c0.088,0,0.167-0.029,0.239-0.069l5.928,5.457v5.065l-2.319-2.113l0,0l-7.178-6.541    c-0.105-0.096-0.243-0.142-0.387-0.128c-0.141,0.014-0.27,0.087-0.354,0.201l-4.431,6.032l-1.485-1.631L68.736,46.736z     M69.418,45.736l1.641-2.405l2.613,2.405H69.418z M76.647,54.93h-9.675l3.879-5.281L76.647,54.93z M50.17,67.238l-4.201-4.766    l2.623-3.651h9.805l2.445,2.764l-4.151,5.653H50.17z M26.53,57.068l1.858,2.315c0.098,0.122,0.243,0.188,0.391,0.188    c0.083,0,0.168-0.021,0.245-0.064l2.18-1.229l1.232,1.158c0.1,0.095,0.236,0.142,0.373,0.135c0.138-0.009,0.266-0.073,0.354-0.18    l0.896-1.079l1.96,1.188c0.179,0.109,0.406,0.093,0.57-0.036l3.17-2.524l9.077,10.3H18.951L26.53,57.068z M52.985,52.705    l4.527,5.116h-8.202L52.985,52.705z M39.097,56.187l-2.858,2.276l-2.031-1.229c-0.212-0.128-0.485-0.082-0.644,0.108l-0.832,1.001    l-1.113-1.046c-0.158-0.15-0.397-0.177-0.588-0.071l-2.13,1.201l-1.755-2.187l5.497-7.376L39.097,56.187z M57.933,67.238    l8.306-11.309h11.507l2.866,2.612v8.696H57.933z M49.533,34.405c18.72,0,29.676,9.212,31.079,10.465v5.894l-9.301-8.561    c-0.106-0.098-0.25-0.144-0.396-0.129c-0.145,0.017-0.274,0.096-0.356,0.215l-6.793,9.96l-9.118-10.015    c-0.103-0.112-0.246-0.175-0.4-0.162c-0.151,0.009-0.29,0.087-0.378,0.21L48.407,50l-7.244-8.748    c-0.099-0.119-0.263-0.192-0.402-0.181c-0.155,0.006-0.299,0.082-0.389,0.208L34.5,49.458l-1.514-1.718    c-0.1-0.112-0.239-0.167-0.396-0.169c-0.15,0.007-0.291,0.08-0.38,0.201l-3.772,5.062c-0.02-0.036-0.035-0.073-0.064-0.104    l-3.898-4.167c-0.102-0.108-0.246-0.171-0.394-0.157c-0.148,0.008-0.285,0.082-0.373,0.201l-5.255,7.085V44.87    C19.857,43.617,30.814,34.405,49.533,34.405z"/></g></g><text x="0" y="115" fill="#000000" font-size="5px" font-weight="bold" font-family="'Helvetica Neue', Helvetica, Arial-Unicode, Arial, Sans-serif">Created by Lea Lafleur</text><text x="0" y="120" fill="#000000" font-size="5px" font-weight="bold" font-family="'Helvetica Neue', Helvetica, Arial-Unicode, Arial, Sans-serif">from the Noun Project</text></svg>