<svg xmlns="http://www.w3.org/2000/svg" xmlns:xlink="http://www.w3.org/1999/xlink" version="1.1" x="0px" y="0px" viewBox="0 0 100 125" enable-background="new 0 0 100 100" xml:space="preserve"><g><path d="M83.926,43.307h-67.81c-0.276,0-0.5,0.224-0.5,0.5v21.5c0,0.216,0.139,0.407,0.344,0.475   c0.181,0.06,18.184,6.127,22.552,18.719c0.07,0.201,0.26,0.336,0.473,0.336h22c0.213,0,0.402-0.135,0.473-0.336   c4.365-12.584,22.442-18.658,22.625-18.719c0.205-0.067,0.344-0.259,0.344-0.475v-21.5C84.426,43.53,84.202,43.307,83.926,43.307z    M74.561,69.128h-8.576v-5.654h9.333v5.22C75.066,68.835,74.814,68.979,74.561,69.128z M69.816,72.307h-3.832v-2.179h6.939   C71.917,70.771,70.867,71.5,69.816,72.307z M63.479,78.641h-7.328v-5.334h8.833v3.466C64.457,77.37,63.954,77.993,63.479,78.641z    M33.984,75.683v-2.376h8.167v5.334h-5.657C35.724,77.588,34.878,76.602,33.984,75.683z M16.616,53.974h3.868v2.167h-3.868V53.974z    M21.484,53.974h8.033v2.167h-8.033V53.974z M30.518,53.974h2.467v2.167h-2.467V53.974z M64.984,52.974h-8.833v-5h8.833V52.974z    M65.984,47.974h9.333v5h-9.333V47.974z M42.151,56.141h-8.167v-2.167h8.167V56.141z M43.151,53.974h8.5v2.167h-8.5V53.974z    M42.151,57.141v5.333h-8.167v-5.333H42.151z M42.151,63.474v5.654h-8.167v-5.654H42.151z M43.151,63.474h8.5v5.654h-8.5V63.474z    M43.151,62.474v-5.333h8.5v5.333H43.151z M52.651,57.141h2.5v5.333h-2.5V57.141z M52.651,56.141v-2.167h2.5v2.167H52.651z    M56.151,53.974h8.833v2.167h-8.833V53.974z M55.151,52.974h-2.5v-5h2.5V52.974z M51.651,52.974h-8.5v-5h8.5V52.974z    M42.151,52.974h-8.167v-5h8.167V52.974z M32.984,52.974h-2.467v-5h2.467V52.974z M32.984,57.141v5.333h-2.467v-5.333H32.984z    M32.984,63.474v5.654h-2.467v-5.654H32.984z M32.984,70.128v2.179h-2.467v-2.179H32.984z M33.984,70.128h8.167v2.179h-8.167   V70.128z M43.151,70.128h8.5v2.179h-8.5V70.128z M52.651,70.128h2.5v2.179h-2.5V70.128z M52.651,69.128v-5.654h2.5v5.654H52.651z    M56.151,63.474h8.833v5.654h-8.833V63.474z M56.151,62.474v-5.333h8.833v5.333H56.151z M65.984,57.141h9.333v5.333h-9.333V57.141z    M65.984,56.141v-2.167h9.333v2.167H65.984z M76.317,53.974h2.167v2.167h-2.167V53.974z M79.484,53.974h3.941v2.167h-3.941V53.974z    M83.426,52.974h-3.941v-5h3.941V52.974z M78.484,52.974h-2.167v-5h2.167V52.974z M76.317,46.974v-2.667h2.167v2.667H76.317z    M75.317,46.974h-9.333v-2.667h9.333V46.974z M64.984,46.974h-8.833v-2.667h8.833V46.974z M55.151,46.974h-2.5v-2.667h2.5V46.974z    M51.651,46.974h-8.5v-2.667h8.5V46.974z M42.151,46.974h-8.167v-2.667h8.167V46.974z M32.984,46.974h-2.467v-2.667h2.467V46.974z    M29.518,46.974h-8.033v-2.667h8.033V46.974z M29.518,47.974v5h-8.033v-5H29.518z M20.484,52.974h-3.868v-5h3.868V52.974z    M16.616,57.141h3.868v5.333h-3.868V57.141z M21.484,57.141h8.033v5.333h-8.033V57.141z M29.518,63.474v5.654h-4.07   c-1.399-0.822-2.749-1.526-3.963-2.111v-3.543H29.518z M29.518,70.128v1.682c-0.826-0.61-1.646-1.174-2.439-1.682H29.518z    M32.984,73.307v1.391c-0.514-0.484-1.036-0.948-1.564-1.391H32.984z M43.151,73.307h8.5v5.334h-8.5V73.307z M51.651,79.641v4.195   h-8.5v-4.195H51.651z M52.651,79.641h2.5v4.195h-2.5V79.641z M52.651,78.641v-5.334h2.5v5.334H52.651z M56.151,72.307v-2.179h8.833   v2.179H56.151z M76.317,63.474h2.167v3.568c-0.685,0.33-1.412,0.697-2.167,1.102V63.474z M76.317,62.474v-5.333h2.167v5.333H76.317   z M79.484,57.141h3.941v5.333h-3.941V57.141z M83.426,46.974h-3.941v-2.667h3.941V46.974z M20.484,44.307v2.667h-3.868v-2.667   H20.484z M16.616,63.474h3.868v3.074c-1.834-0.842-3.249-1.374-3.868-1.597V63.474z M37.188,79.641h4.963v4.195h-2.814   C38.786,82.341,38.046,80.946,37.188,79.641z M60.632,83.836h-4.48v-4.195h6.632C61.924,80.946,61.184,82.341,60.632,83.836z    M65.984,75.695v-2.389h2.584C67.685,74.044,66.816,74.841,65.984,75.695z M79.484,66.573v-3.1h3.941v1.478   C82.798,65.175,81.354,65.717,79.484,66.573z"/></g><text x="0" y="115" fill="#000000" font-size="5px" font-weight="bold" font-family="'Helvetica Neue', Helvetica, Arial-Unicode, Arial, Sans-serif">Created by Lea Lafleur</text><text x="0" y="120" fill="#000000" font-size="5px" font-weight="bold" font-family="'Helvetica Neue', Helvetica, Arial-Unicode, Arial, Sans-serif">from the Noun Project</text></svg>