<svg xmlns="http://www.w3.org/2000/svg" xmlns:xlink="http://www.w3.org/1999/xlink" version="1.1" x="0px" y="0px" viewBox="0 0 100 125" enable-background="new 0 0 100 100" xml:space="preserve"><g><g><path d="M62.864,45.918h11.438c0.276,0,0.5-0.224,0.5-0.5v-2.75c0-0.276-0.224-0.5-0.5-0.5H62.864c-0.276,0-0.5,0.224-0.5,0.5    v2.75C62.364,45.694,62.588,45.918,62.864,45.918z M63.364,43.168h10.438v1.75H63.364V43.168z"/><path d="M74.385,71.375H62.947c-0.276,0-0.5,0.224-0.5,0.5v2.75c0,0.276,0.224,0.5,0.5,0.5h11.438c0.276,0,0.5-0.224,0.5-0.5    v-2.75C74.885,71.599,74.661,71.375,74.385,71.375z M73.885,74.125H63.447v-1.75h10.438V74.125z"/><path d="M74.385,66.625H62.947c-0.276,0-0.5,0.224-0.5,0.5v2.75c0,0.276,0.224,0.5,0.5,0.5h11.438c0.276,0,0.5-0.224,0.5-0.5    v-2.75C74.885,66.849,74.661,66.625,74.385,66.625z M73.885,69.375H63.447v-1.75h10.438V69.375z"/><path d="M74.385,61.844H62.947c-0.276,0-0.5,0.224-0.5,0.5v2.75c0,0.276,0.224,0.5,0.5,0.5h11.438c0.276,0,0.5-0.224,0.5-0.5    v-2.75C74.885,62.067,74.661,61.844,74.385,61.844z M73.885,64.594H63.447v-1.75h10.438V64.594z"/><path d="M62.864,59.125h11.438c0.276,0,0.5-0.224,0.5-0.5V47.417c0-0.276-0.224-0.5-0.5-0.5H62.864c-0.276,0-0.5,0.224-0.5,0.5    v11.208C62.364,58.901,62.588,59.125,62.864,59.125z M63.364,47.917h10.438v10.208H63.364V47.917z"/><circle cx="61.604" cy="56.844" r="0.531"/><path d="M61.604,59.174c-0.276,0-0.5,0.224-0.5,0.5v1.5c0,0.276,0.224,0.5,0.5,0.5s0.5-0.224,0.5-0.5v-1.5    C62.104,59.397,61.88,59.174,61.604,59.174z"/><path d="M24.495,62.844H35.87c0.276,0,0.5-0.224,0.5-0.5V41.709c0-0.276-0.224-0.5-0.5-0.5H24.495c-0.276,0-0.5,0.224-0.5,0.5    v20.634C23.995,62.62,24.219,62.844,24.495,62.844z M31.839,47.333v4.708h-3.312v-4.708H31.839z M28.526,46.333v-4.124h3.312    v4.124H28.526z M28.526,57.25v-4.209h3.312v4.209H28.526z M24.995,57.25v-4.209h2.531v4.209H24.995z M32.839,53.041h2.531v4.209    h-2.531V53.041z M35.37,52.041h-2.531v-4.708h2.531V52.041z M27.526,52.041h-2.531v-4.708h2.531V52.041z M24.995,61.844V58.25    H35.37v3.594H24.995z M35.37,46.333h-2.531v-4.124h2.531V46.333z M27.526,42.209v4.124h-2.531v-4.124H27.526z"/><path d="M40.214,62.844h11.375c0.276,0,0.5-0.224,0.5-0.5V41.709c0-0.276-0.224-0.5-0.5-0.5H40.214c-0.276,0-0.5,0.224-0.5,0.5    v20.634C39.714,62.62,39.938,62.844,40.214,62.844z M47.558,47.333v4.708h-3.312v-4.708H47.558z M44.245,46.333v-4.124h3.312    v4.124H44.245z M44.245,57.25v-4.209h3.312v4.209H44.245z M40.714,57.25v-4.209h2.531v4.209H40.714z M48.558,53.041h2.531v4.209    h-2.531V53.041z M51.089,52.041h-2.531v-4.708h2.531V52.041z M43.245,52.041h-2.531v-4.708h2.531V52.041z M40.714,61.844V58.25    h10.375v3.594H40.714z M51.089,46.333h-2.531v-4.124h2.531V46.333z M43.245,42.209v4.124h-2.531v-4.124H43.245z"/><path d="M88.587,29.904c-1.402,0-2.606,0.837-3.159,2.033h-0.865v-1.656V27c0-0.276-0.224-0.5-0.5-0.5H55.604v-2.25    c0-0.176-0.093-0.339-0.243-0.429c-0.742-0.443-1.52-0.668-2.311-0.668c-1.353,0-2.269,0.667-2.307,0.695    c-0.127,0.095-0.202,0.244-0.202,0.402v2.25H17.33V5.75c0-0.276-0.224-0.5-0.5-0.5s-0.5,0.224-0.5,0.5v0.998    c-2.734,1.95-3.016,6.134-3.037,7.299c-0.028,0.017-0.056,0.037-0.084,0.055c-0.005,0.002-0.009,0.007-0.015,0.01    c-0.456,0.296-0.885,0.68-1.232,1.189c-0.018,0.025-0.027,0.056-0.045,0.082c-0.047,0.054-0.08,0.117-0.101,0.187    c-1.11,1.906-0.82,4.747,0.896,8.473c0.063,0.137,0.186,0.239,0.332,0.275c0.041,0.01,0.081,0.015,0.122,0.015    c0.107,0,0.214-0.035,0.302-0.101l2.861-2.165V26.5h-0.268c-0.276,0-0.5,0.224-0.5,0.5v3.281v50.375v3.281    c0,0.276,0.224,0.5,0.5,0.5h68c0.276,0,0.5-0.224,0.5-0.5v-3.281V34.75h0.814c0.531,1.249,1.77,2.127,3.21,2.127    c1.923,0,3.486-1.564,3.486-3.486S90.51,29.904,88.587,29.904z M14.797,21.974c-1.504-2.576-1.909-5.425-1.989-6.132    c0.077-0.111,0.16-0.216,0.248-0.313c0.227,1.416,0.853,4.104,2.468,5.896L14.797,21.974z M14.764,10.949    c0.197-0.154,0.757-0.494,1.566-0.289v0.74c-0.67-0.099-1.266,0.023-1.729,0.192C14.647,11.381,14.701,11.167,14.764,10.949z     M16.33,17.754c-0.646-1.278-0.974-2.717-1.105-3.416c0.429-0.102,0.82-0.145,1.105-0.163V17.754z M13.966,14.814    c0.1-0.055,0.199-0.107,0.301-0.153c0.214,1.096,0.793,3.395,2.063,4.932v1.22l-0.004,0.003    C14.602,18.962,14.087,15.794,13.966,14.814z M16.33,8.058v1.573c-0.404-0.07-0.768-0.05-1.08,0.019    C15.523,9.068,15.878,8.52,16.33,8.058z M14.395,12.793c0.311-0.193,1.052-0.553,1.936-0.366v0.745    c-0.479,0.022-1.227,0.11-2.011,0.389C14.334,13.34,14.358,13.08,14.395,12.793z M13.367,23.055    c-0.894-2.067-1.296-3.792-1.213-5.163c0.304,1.31,0.857,3.039,1.841,4.688L13.367,23.055z M80.416,80.156V79.75h0.377v0.406    H80.416z M76.541,83.438H60.666v-0.641h15.875V83.438z M77.041,81.797H60.166c-0.276,0-0.5,0.224-0.5,0.5v1.141h-1.75v-2.281h21.5    v2.281h-1.875v-1.141C77.541,82.021,77.317,81.797,77.041,81.797z M20.625,30.781v1.172h-1.293v-1.172H20.625z M80.793,30.781    v1.156h-1.418v-1.156H80.793z M46.916,76.875H19.332V76h37.584v0.875H46.916z M60.916,76.86V41.25h15.375v35.61H60.916z     M76.791,40.25H60.416c-0.276,0-0.5,0.224-0.5,0.5v36.11h-2V62.445c0.007-0.034,0.021-0.065,0.021-0.102s-0.014-0.067-0.021-0.102    v-23.68h21.5V76.86h-2.125V40.75C77.291,40.474,77.067,40.25,76.791,40.25z M20.625,35.688h-1.293v-0.875h1.293V35.688z     M21.291,40.375v0.875h-1.959v-0.875H21.291z M21.291,42.25v0.875h-1.959V42.25H21.291z M21.291,44.125V45h-1.959v-0.875H21.291z     M21.291,46v0.875h-1.959V46H21.291z M21.291,47.875v0.875h-1.959v-0.875H21.291z M21.291,49.75v0.875h-1.959V49.75H21.291z     M21.291,51.625V52.5h-1.959v-0.875H21.291z M21.291,53.5v0.875h-1.959V53.5H21.291z M21.291,55.375v0.875h-1.959v-0.875H21.291z     M21.291,57.25v0.875h-1.959V57.25H21.291z M21.291,59.125V60h-1.959v-0.875H21.291z M21.291,61v0.875H21.02h-1.688V61H21.291z     M19.818,62.875c-0.041,0.149-0.068,0.307-0.068,0.477c0,0.14,0.026,0.271,0.063,0.398h-0.481v-0.875H19.818z M21.125,64.75    h33.834h1.957v0.875H19.332V64.75H21.125z M54.791,56.291v-0.834h2.125v0.834H54.791z M56.916,57.291v0.834h-2.125v-0.834H56.916z     M54.791,54.457v-0.976h2.125v0.976H54.791z M54.791,52.481v-0.835h2.125v0.835H54.791z M54.791,50.646V49.75h2.125v0.896H54.791z     M54.791,48.75v-0.853h2.125v0.853H54.791z M54.791,46.897v-0.936h2.125v0.936H54.791z M54.791,44.962v-0.854h2.125v0.854H54.791z     M54.791,43.108v-0.895h2.125v0.895H54.791z M54.791,59.125h2.125v0.834h-2.125V59.125z M56.916,41.213h-2.125v-0.838h2.125    V41.213z M54.791,60.959h2.125v0.885h-1.919h-0.206V60.959z M56.916,62.844v0.906h-0.646c0.037-0.127,0.063-0.259,0.063-0.398    c0-0.183-0.028-0.351-0.072-0.508H56.916z M56.916,66.625V67.5H19.332v-0.875H56.916z M56.916,68.5v0.875H19.332V68.5H56.916z     M56.916,70.375v0.875H19.332v-0.875H56.916z M56.916,72.25v0.875H19.332V72.25H56.916z M56.916,39.375h-0.65    c0.04-0.132,0.068-0.269,0.068-0.414c0-0.139-0.026-0.271-0.063-0.398h0.646V39.375z M55.334,38.961    c0,0.22-0.168,0.399-0.375,0.399h-0.668c-0.276,0-0.5,0.224-0.5,0.5v22.484c0,0.276,0.224,0.5,0.5,0.5h0.021h0.686    c0.278,0,0.337,0.276,0.337,0.508c0,0.22-0.168,0.398-0.375,0.398H21.125c-0.207,0-0.375-0.179-0.375-0.398    c0-0.23,0.108-0.477,0.27-0.477h0.771c0.276,0,0.5-0.224,0.5-0.5V39.86c0-0.276-0.224-0.5-0.5-0.5h-0.666    c-0.207,0-0.375-0.179-0.375-0.399c0-0.22,0.168-0.398,0.375-0.398h33.834C55.166,38.562,55.334,38.741,55.334,38.961z     M19.818,39.375h-0.486v-0.812h0.481c-0.037,0.127-0.063,0.259-0.063,0.398C19.75,39.106,19.778,39.243,19.818,39.375z     M19.332,74.125h37.584V75H19.332V74.125z M80.793,38.562v0.79h-0.377v-0.79H80.793z M80.416,74.125h0.377V75h-0.377V74.125z     M80.416,73.125v-0.874h0.377v0.874H80.416z M80.416,71.251v-0.832h0.377v0.832H80.416z M80.416,69.419v-0.915h0.377v0.915H80.416    z M80.416,67.504v-0.915h0.377v0.915H80.416z M80.416,65.589v-0.831h0.377v0.831H80.416z M80.416,63.758v-0.914h0.377v0.914    H80.416z M80.416,61.844v-0.92h0.377v0.92H80.416z M80.416,59.924v-0.779h0.377v0.779H80.416z M80.416,58.145V57.29h0.377v0.854    H80.416z M80.416,56.29v-0.855h0.377v0.855H80.416z M80.416,54.435v-0.979h0.377v0.979H80.416z M80.416,52.456v-0.834h0.377v0.834    H80.416z M80.416,50.622v-0.876h0.377v0.876H80.416z M80.416,48.746v-0.853h0.377v0.853H80.416z M80.416,46.893v-0.937h0.377    v0.937H80.416z M80.416,44.957v-0.856h0.377v0.856H80.416z M80.416,43.101v-0.874h0.377v0.874H80.416z M80.416,41.227v-0.875    h0.377v0.875H80.416z M80.416,76h0.377v0.875h-0.377V76z M79.375,34.75h1.418v0.875h-1.418V34.75z M80.793,33.75h-1.418v-0.812    h1.418V33.75z M78.875,37c0.232,0,0.418-0.161,0.475-0.375h1.443v0.938h-0.877h-22.5h-2.457H21.125h-1.793v-0.875h1.331    C20.737,36.871,20.915,37,21.125,37H78.875z M20.625,33.812h-1.293v-0.859h1.293V33.812z M57.916,77.86h2.428    c0.024,0.004,0.047,0.015,0.072,0.015s0.048-0.011,0.072-0.015h16.23c0.024,0.004,0.047,0.015,0.072,0.015    s0.048-0.011,0.072-0.015h2.553v2.296h-21.5V77.86z M80.416,77.875h0.377v0.875h-0.377V77.875z M78.375,36h-56.75v-5.219h56.75V36    z M18.332,76.875h-1.77V30.781h1.77V76.875z M16.562,77.875h1.77v2.281h-1.77V77.875z M19.332,77.875h27.084v2.281H19.332V77.875z     M47.416,77.875h9.5v5.562h-9.5V77.875z M81.793,30.781h1.77v49.375h-1.77V30.781z M83.562,29.781h-2.27h-2.418h-57.75h-2.293    h-2.27V27.5h34.479h4.062h28.459V29.781z M51.541,24.531c0.278-0.148,0.82-0.378,1.509-0.378c0.523,0,1.045,0.131,1.554,0.392    V26.5h-3.062V24.531z M16.562,81.156h2.27h27.584v2.281H16.562V81.156z M80.416,83.438v-2.281h0.877h2.27v2.281H80.416z     M84.562,33.75v-0.812h0.584c-0.02,0.15-0.046,0.298-0.046,0.453c0,0.123,0.023,0.24,0.036,0.359H84.562z M88.587,35.877    c-1.371,0-2.486-1.115-2.486-2.486s1.115-2.486,2.486-2.486s2.486,1.115,2.486,2.486S89.958,35.877,88.587,35.877z"/><path d="M88.587,31.92c-0.81,0-1.469,0.659-1.469,1.469s0.659,1.469,1.469,1.469s1.469-0.659,1.469-1.469    S89.396,31.92,88.587,31.92z M88.587,33.858c-0.259,0-0.469-0.21-0.469-0.469s0.21-0.469,0.469-0.469s0.469,0.21,0.469,0.469    S88.846,33.858,88.587,33.858z"/></g></g><text x="0" y="115" fill="#000000" font-size="5px" font-weight="bold" font-family="'Helvetica Neue', Helvetica, Arial-Unicode, Arial, Sans-serif">Created by Lea Lafleur</text><text x="0" y="120" fill="#000000" font-size="5px" font-weight="bold" font-family="'Helvetica Neue', Helvetica, Arial-Unicode, Arial, Sans-serif">from the Noun Project</text></svg>