<svg xmlns="http://www.w3.org/2000/svg" xmlns:xlink="http://www.w3.org/1999/xlink" version="1.1" x="0px" y="0px" viewBox="0 0 100 125" enable-background="new 0 0 100 100" xml:space="preserve"><g><g><path d="M71.67,41.721H56.087c-0.067,0-0.131,0.014-0.189,0.038c-0.021,0.009-0.037,0.024-0.057,0.036    c-0.035,0.02-0.07,0.039-0.099,0.066c-0.019,0.018-0.03,0.04-0.045,0.06c-0.023,0.029-0.047,0.058-0.062,0.092    c-0.011,0.025-0.015,0.053-0.021,0.079c-0.008,0.028-0.021,0.055-0.024,0.086c-0.001,0.012,0,0.026-0.001,0.038    c0,0.001-0.001,0.003-0.001,0.005v0.04c-0.013,0.189-0.013,0.399,0,0.626v16.917c0,0.276,0.224,0.5,0.5,0.5H71.67    c0.276,0,0.5-0.224,0.5-0.5V42.888c0.013-0.227,0.013-0.438,0-0.627v-0.04c0-0.002-0.001-0.003-0.001-0.005    c-0.001-0.012,0-0.026-0.001-0.038c-0.003-0.031-0.017-0.058-0.024-0.086c-0.007-0.026-0.011-0.054-0.021-0.079    c-0.016-0.034-0.039-0.062-0.062-0.092c-0.015-0.02-0.026-0.042-0.045-0.06c-0.028-0.027-0.063-0.047-0.099-0.066    c-0.02-0.012-0.036-0.027-0.057-0.036C71.801,41.734,71.737,41.721,71.67,41.721z M71.17,42.721v0.114    c-0.049,0.923-0.376,2.665-2.153,2.972c-0.091,0.011-2.243,0.266-3.386,0.793c-0.939,0.433-1.711,0.453-1.752,0.454    c-0.042-0.001-0.814-0.021-1.753-0.454c-1.143-0.527-3.295-0.782-3.358-0.789c-1.799-0.31-2.131-2.056-2.181-2.978v-0.112H71.17z     M71.17,59.304H56.587V45.642c0.466,0.557,1.113,1,2.038,1.159c0.021,0.002,2.084,0.246,3.083,0.707    c1.171,0.54,2.131,0.546,2.171,0.546s0.999-0.006,2.17-0.546c0.999-0.461,3.062-0.705,3.11-0.711    c0.91-0.157,1.55-0.596,2.011-1.147V59.304z"/><circle cx="63.878" cy="45.301" r="1.145"/><path d="M67.837,48.884h-7.916c-0.276,0-0.5,0.224-0.5,0.5v8.834c0,0.276,0.224,0.5,0.5,0.5h7.916c0.276,0,0.5-0.224,0.5-0.5    v-8.834C68.337,49.107,68.113,48.884,67.837,48.884z M67.337,49.884v6h-6.916v-6H67.337z M60.421,57.718v-0.834h6.916v0.834    H60.421z"/><path d="M60.903,53.65c0.06,0.078,1.48,1.903,2.807,1.992c0.005,0.001,0.011,0.001,0.017,0.001s0.012,0,0.017-0.001    c1.326-0.089,2.747-1.914,2.825-2.021c0.554-0.969,0.135-1.777-0.238-2.153c0.073-0.469,0.026-0.797-0.143-1.001    c-0.081-0.099-0.231-0.216-0.485-0.216c-0.331,0-0.695,0.206-0.864,0.314c-0.526-0.091-1.079-0.109-1.119-0.11    c-0.025,0.001-0.577,0.02-1.104,0.11c-0.169-0.108-0.533-0.314-0.864-0.314c-0.254,0-0.404,0.117-0.485,0.216    c-0.169,0.204-0.216,0.532-0.143,1.001C60.75,51.845,60.333,52.656,60.903,53.65z M63.727,55.143    c-0.402-0.033-0.849-0.298-1.254-0.618c0.353-0.447,1.31-1.349,2.49,0.014C64.561,54.854,64.123,55.11,63.727,55.143z     M62.415,53.331c0-0.138,0.112-0.25,0.25-0.25s0.25,0.112,0.25,0.25s-0.112,0.25-0.25,0.25S62.415,53.469,62.415,53.331z     M64.79,53.581c-0.138,0-0.25-0.112-0.25-0.25s0.112-0.25,0.25-0.25s0.25,0.112,0.25,0.25S64.928,53.581,64.79,53.581z     M61.55,51.755c0.071-0.058,0.105-0.151,0.088-0.242c-0.104-0.534-0.016-0.691,0.014-0.727c0.009-0.012,0.027-0.034,0.1-0.034    c0.197,0,0.511,0.173,0.662,0.281c0.056,0.04,0.125,0.056,0.193,0.043c0.516-0.099,1.122-0.12,1.112-0.12    c0.006,0,0.612,0.021,1.128,0.12c0.067,0.013,0.138-0.003,0.193-0.043c0.151-0.108,0.465-0.281,0.662-0.281    c0.072,0,0.091,0.022,0.1,0.034c0.029,0.035,0.117,0.192,0.014,0.727c-0.018,0.09,0.017,0.184,0.087,0.241    c0.032,0.027,0.781,0.659,0.251,1.592c-0.028,0.037-0.069,0.086-0.106,0.131c-2.29-1.675-4.102-0.487-4.661-0.021    c-0.021-0.026-0.05-0.06-0.067-0.082C60.77,52.413,61.519,51.781,61.55,51.755z"/><path d="M63.727,54.375v-0.002c0,0-0.004,0.001-0.005,0.001s-0.005-0.001-0.005-0.001v0.002c-0.05,0.007-0.438,0.07-0.262,0.357    c0,0,0.082,0.193,0.262,0.22v0.004c0.002,0,0.003-0.002,0.005-0.002s0.003,0.002,0.005,0.002v-0.004    c0.18-0.026,0.262-0.22,0.262-0.22C64.164,54.445,63.776,54.382,63.727,54.375z"/><path d="M62.064,51.414c0.177-0.159,0.125-0.219,0.125-0.219c-0.516-0.391-0.328,0.219-0.328,0.219S61.908,51.555,62.064,51.414z"/><path d="M65.615,51.414c0,0,0.188-0.609-0.328-0.219c0,0-0.052,0.06,0.125,0.219C65.568,51.555,65.615,51.414,65.615,51.414z"/><path d="M44.486,42.313v-0.04c0-0.002-0.001-0.003-0.001-0.005c-0.001-0.012,0-0.026-0.001-0.038    c-0.003-0.031-0.017-0.058-0.024-0.086c-0.007-0.026-0.011-0.054-0.021-0.079c-0.016-0.034-0.039-0.062-0.062-0.092    c-0.015-0.02-0.026-0.042-0.045-0.06c-0.028-0.027-0.063-0.047-0.099-0.066c-0.02-0.012-0.036-0.027-0.057-0.036    c-0.059-0.024-0.122-0.038-0.189-0.038H28.403c-0.067,0-0.131,0.014-0.189,0.038c-0.021,0.009-0.037,0.024-0.057,0.036    c-0.035,0.02-0.07,0.039-0.099,0.066c-0.019,0.018-0.03,0.04-0.045,0.06c-0.023,0.029-0.047,0.058-0.062,0.092    c-0.011,0.025-0.015,0.053-0.021,0.079c-0.008,0.028-0.021,0.055-0.024,0.086c-0.001,0.012,0,0.026-0.001,0.038    c0,0.001-0.001,0.003-0.001,0.005v0.04c-0.013,0.189-0.013,0.399,0,0.626v16.917c0,0.276,0.224,0.5,0.5,0.5h15.583    c0.276,0,0.5-0.224,0.5-0.5V42.94C44.499,42.714,44.499,42.503,44.486,42.313z M43.486,42.773v0.114    c-0.049,0.923-0.376,2.665-2.153,2.972c-0.091,0.011-2.243,0.266-3.386,0.793c-0.939,0.433-1.711,0.453-1.752,0.454    c-0.042-0.001-0.814-0.021-1.753-0.454c-1.143-0.527-3.295-0.782-3.358-0.789c-1.799-0.31-2.131-2.056-2.181-2.978v-0.112H43.486z     M43.486,59.356H28.903V45.694c0.466,0.557,1.113,1,2.038,1.159c0.021,0.002,2.084,0.246,3.083,0.707    c1.171,0.54,2.131,0.546,2.171,0.546s0.999-0.006,2.17-0.546c0.999-0.461,3.062-0.705,3.11-0.711    c0.91-0.157,1.55-0.596,2.011-1.147V59.356z"/><circle cx="36.194" cy="45.354" r="1.145"/><path d="M63.907,36.184c-3.575,0-6.053,1.318-6.156,1.375c-0.161,0.087-0.262,0.256-0.262,0.439v1.869    c0,0.176,0.093,0.339,0.244,0.43c0.153,0.091,0.341,0.094,0.494,0.01c0.022-0.013,2.355-1.254,5.68-1.254    c1.952,0,3.852,0.427,5.646,1.268c0.067,0.031,0.14,0.047,0.212,0.047c0.094,0,0.187-0.026,0.269-0.078    c0.144-0.092,0.231-0.251,0.231-0.422v-1.869c0-0.194-0.112-0.37-0.288-0.453C68.049,36.642,66.007,36.184,63.907,36.184z     M69.266,39.104c-1.717-0.697-3.516-1.051-5.358-1.051c-2.471,0-4.417,0.63-5.418,1.037v-0.778    c0.701-0.318,2.746-1.128,5.418-1.128c1.848,0,3.648,0.382,5.358,1.137V39.104z"/><path d="M67.057,64.813l-1.886-0.272l-0.845-1.71c-0.168-0.34-0.729-0.341-0.896,0.001l-0.844,1.71l-1.888,0.275    c-0.188,0.028-0.345,0.16-0.403,0.341s-0.01,0.38,0.127,0.513l1.366,1.33l-0.321,1.88c-0.032,0.188,0.046,0.377,0.199,0.488    c0.088,0.063,0.19,0.096,0.294,0.096c0.08,0,0.16-0.02,0.233-0.058l1.687-0.889l1.688,0.886c0.073,0.039,0.153,0.058,0.232,0.058    c0.008,0,0.015,0.001,0.02,0c0.276,0,0.5-0.224,0.5-0.5c0-0.078-0.018-0.152-0.05-0.219l-0.301-1.745l1.365-1.332    c0.136-0.133,0.185-0.331,0.126-0.513C67.401,64.973,67.245,64.841,67.057,64.813z M65.083,66.467    c-0.117,0.114-0.171,0.28-0.144,0.442l0.196,1.139l-1.023-0.537c-0.145-0.076-0.319-0.076-0.466,0l-1.023,0.539l0.195-1.14    c0.027-0.162-0.026-0.327-0.145-0.442l-0.829-0.807l1.146-0.167c0.163-0.024,0.304-0.126,0.376-0.274l0.512-1.037l0.513,1.037    c0.073,0.147,0.214,0.25,0.377,0.273l1.144,0.165L65.083,66.467z"/><path d="M36.341,51.25H36.05c-1.928,0-3.84,0.958-4.65,2.331c-0.045,0.077-0.069,0.164-0.069,0.254v4.291    c0,0.276,0.224,0.5,0.5,0.5h8.729c0.276,0,0.5-0.224,0.5-0.5v-4.291c0-0.09-0.024-0.178-0.069-0.255    C40.179,52.208,38.267,51.25,36.341,51.25z M36.05,52.25h0.291c1.511,0,3.047,0.721,3.719,1.729v2.851l-0.328-0.59    c-0.003-0.005-0.001-0.011-0.005-0.016c-0.001-0.001-0.003-0.001-0.005-0.002l-0.468-0.843c-0.044-0.08-0.128-0.129-0.219-0.129    h-0.001c-0.092,0-0.175,0.051-0.219,0.131l-0.261,0.479l-0.719-1.469c-0.084-0.17-0.365-0.171-0.449,0.001l-0.734,1.502    l-0.286-0.516c-0.044-0.08-0.128-0.129-0.219-0.129h-0.001c-0.092,0-0.175,0.051-0.219,0.131l-0.25,0.46l-0.751-1.493    c-0.043-0.084-0.129-0.138-0.224-0.138h-0.001c-0.095,0-0.182,0.055-0.224,0.14l-0.739,1.501l-0.262-0.472    c-0.044-0.08-0.128-0.129-0.219-0.129h-0.001c-0.092,0-0.175,0.051-0.219,0.131l-0.709,1.303v-2.705    C33.001,52.971,34.538,52.25,36.05,52.25z M37.279,55.75h0.665l0.317,0.649l-0.657,1.208l-0.656-1.181L37.279,55.75z     M37.523,55.25l0.088-0.18l0.088,0.18H37.523z M34.347,55.75h0.725l0.315,0.626l-0.67,1.231l-0.682-1.225L34.347,55.75z     M34.593,55.25l0.112-0.229l0.115,0.229H34.593z M32.848,56.778l0.265,0.225c0.047,0.04,0.104,0.06,0.162,0.06    c0.06,0,0.118-0.021,0.166-0.062l0.245-0.217l0.469,0.843h-1.768L32.848,56.778z M33.092,56.33l0.169-0.312l0.176,0.316    l-0.166,0.146L33.092,56.33z M35.739,56.772l0.271,0.23c0.047,0.04,0.104,0.06,0.162,0.06c0.06,0,0.118-0.021,0.166-0.062    l0.238-0.211l0.466,0.837h-1.768L35.739,56.772z M35.983,56.324l0.166-0.306l0.179,0.322l-0.159,0.141L35.983,56.324z     M38.627,56.772l0.272,0.23c0.046,0.04,0.104,0.06,0.161,0.06c0.06,0,0.118-0.021,0.166-0.062l0.238-0.211l0.466,0.837h-1.768    L38.627,56.772z M38.871,56.324l0.166-0.306l0.179,0.322l-0.159,0.141L38.871,56.324z"/><path d="M33.646,53.871c0.021-0.018,2.195-1.755,5.127,0.021c0.041,0.024,0.086,0.036,0.13,0.036c0.084,0,0.167-0.043,0.214-0.12    c0.071-0.118,0.033-0.272-0.084-0.344c-3.235-1.958-5.681,0.002-5.705,0.021c-0.106,0.088-0.122,0.245-0.034,0.353    C33.381,53.941,33.537,53.959,33.646,53.871z"/><circle cx="49.963" cy="56.765" r="0.547"/><circle cx="49.963" cy="66.599" r="0.547"/><circle cx="49.963" cy="76.433" r="0.547"/><path d="M79.967,31.492c-2.034-1.11-4.03-1.228-4.472-1.24L74.861,30l0.278-0.791c0.089-0.252-0.036-0.529-0.284-0.63    l-9.304-3.766c-0.245-0.099-0.526,0.011-0.64,0.25l-0.388,0.819l-0.658-0.262c-0.572-3.667-3.523-5.357-3.659-5.434    c-0.173-0.095-0.382-0.082-0.539,0.034s-0.233,0.312-0.193,0.504c1.464,7.098-7.104,9.438-7.946,9.649h-3.085    c-0.74-0.192-9.399-2.61-7.947-9.649c0.04-0.191-0.036-0.388-0.193-0.504c-0.158-0.116-0.367-0.129-0.539-0.034    c-0.136,0.076-3.105,1.775-3.664,5.452l-0.797,0.308l-0.372-0.786c-0.112-0.236-0.386-0.344-0.63-0.254l-9.375,3.562    c-0.254,0.097-0.384,0.378-0.294,0.634l0.3,0.854l-0.768,0.297c-0.967,0.05-8.602,0.736-8.602,10.018l-0.135,38.977    c0,0.133,0.052,0.261,0.146,0.354c0.094,0.095,0.222,0.147,0.354,0.147h8.342h51.123h8.54c0.275,0,0.499-0.223,0.5-0.498    l0.13-39.031C84.562,35.08,82.063,32.637,79.967,31.492z M74.893,78.75H52.088V55.272c0.229-0.926,2.617-10.915,0.609-17.562    h0.954c0.276,0,0.5-0.224,0.5-0.5v-1.202c9.39-3.006,9.814-8.358,9.815-9.27l10.926,4.351V78.75z M48.881,78.75V53.044    c0.863,1.396,1.771,2.138,2.209,2.439V78.75H48.881z M46.819,36.125h1.562h3.207h1.562v0.585h-6.332V36.125z M51.329,54.098    c-2.688-3.934,0.178-9.938,0.209-10.002c0.404-0.828,0.676-1.613,0.86-2.343C52.778,46.564,51.792,51.932,51.329,54.098z     M48.078,41.704l2.052,2.411c0.065,0.077,0.152,0.12,0.243,0.146c-0.102,0.246-0.222,0.559-0.349,0.927l-2.051-2.411    C48.001,42.429,48.036,42.071,48.078,41.704z M51.609,37.71c0.154,0.812,0.375,2.971-0.826,5.629l-2.522-2.965    c0.133-0.842,0.305-1.729,0.521-2.664H51.609z M49.677,46.322c-0.407,1.509-0.714,3.472-0.365,5.394    c-0.162-0.325-0.318-0.683-0.465-1.071c-0.005-0.012-0.008-0.024-0.013-0.037c-0.582-1.56-0.996-3.644-0.936-6.375L49.677,46.322z     M65.614,25.918l8.424,3.409l-0.106,0.303l-8.477-3.376L65.614,25.918z M60.622,21.727c0.935,0.822,2.267,2.426,2.343,4.928    c0.012,0.224,0.178,5.511-9.327,8.471h-1.549v-3.87C53.855,30.729,61.081,28.175,60.622,21.727z M51.089,35.125h-2.207v-3.75    h2.207V35.125z M39.349,21.726c-0.459,6.448,6.767,9.003,8.533,9.529v3.87h-1.549c-9.505-2.96-9.339-8.247-9.326-8.484    C37.082,24.147,38.414,22.547,39.349,21.726z M25.737,29.231l8.487-3.225l0.143,0.303l-8.502,3.287L25.737,29.231z M16.562,40.273    c0-7.634,5.491-8.807,7.207-8.988V78.75h-7.34L16.562,40.273z M24.77,31.093l11.235-4.343c0.008,0.988,0.502,6.276,9.814,9.258    v1.202c0,0.276,0.224,0.5,0.5,0.5h1.438c-1.422,6.289-0.906,10.515,0.126,13.274V78.75H24.77V31.093z M83.435,78.75h-7.542V31.283    c0.729,0.07,2.157,0.302,3.596,1.087c2.703,1.476,4.074,4.117,4.074,7.849L83.435,78.75z"/></g></g><text x="0" y="115" fill="#000000" font-size="5px" font-weight="bold" font-family="'Helvetica Neue', Helvetica, Arial-Unicode, Arial, Sans-serif">Created by Lea Lafleur</text><text x="0" y="120" fill="#000000" font-size="5px" font-weight="bold" font-family="'Helvetica Neue', Helvetica, Arial-Unicode, Arial, Sans-serif">from the Noun Project</text></svg>