<svg xmlns="http://www.w3.org/2000/svg" xmlns:xlink="http://www.w3.org/1999/xlink" version="1.1" x="0px" y="0px" viewBox="0 0 100 125" enable-background="new 0 0 100 100" xml:space="preserve"><g><g><path d="M32.601,39.344c0-0.276-0.224-0.5-0.5-0.5h-2.019c-0.276,0-0.5,0.224-0.5,0.5s0.224,0.5,0.5,0.5h2.019    C32.377,39.844,32.601,39.62,32.601,39.344z"/><path d="M34.119,40.996h-2.019c-0.276,0-0.5,0.224-0.5,0.5s0.224,0.5,0.5,0.5h2.019c0.276,0,0.5-0.224,0.5-0.5    S34.396,40.996,34.119,40.996z"/><path d="M36.138,34.426h-2.019c-0.276,0-0.5,0.224-0.5,0.5s0.224,0.5,0.5,0.5h2.019c0.276,0,0.5-0.224,0.5-0.5    S36.414,34.426,36.138,34.426z"/><path d="M31.092,27.374h2.018c0.277,0,0.5-0.224,0.5-0.5s-0.223-0.5-0.5-0.5h-2.018c-0.277,0-0.5,0.224-0.5,0.5    S30.814,27.374,31.092,27.374z"/><path d="M37.186,28.039c0,0.276,0.223,0.5,0.5,0.5h2.018c0.277,0,0.5-0.224,0.5-0.5s-0.223-0.5-0.5-0.5h-2.018    C37.408,27.539,37.186,27.763,37.186,28.039z"/><path d="M46.807,29.789c0,0.276,0.224,0.5,0.5,0.5h2.019c0.276,0,0.5-0.224,0.5-0.5s-0.224-0.5-0.5-0.5h-2.019    C47.03,29.289,46.807,29.513,46.807,29.789z"/><path d="M61.387,25.444h2.019c0.276,0,0.5-0.224,0.5-0.5s-0.224-0.5-0.5-0.5h-2.019c-0.276,0-0.5,0.224-0.5,0.5    S61.11,25.444,61.387,25.444z"/><path d="M52.824,27.374h2.019c0.276,0,0.5-0.224,0.5-0.5s-0.224-0.5-0.5-0.5h-2.019c-0.276,0-0.5,0.224-0.5,0.5    S52.548,27.374,52.824,27.374z"/><path d="M44.75,25.444h2.019c0.276,0,0.5-0.224,0.5-0.5s-0.224-0.5-0.5-0.5H44.75c-0.276,0-0.5,0.224-0.5,0.5    S44.474,25.444,44.75,25.444z"/><path d="M36.676,25.444h2.019c0.276,0,0.5-0.224,0.5-0.5s-0.224-0.5-0.5-0.5h-2.019c-0.276,0-0.5,0.224-0.5,0.5    S36.399,25.444,36.676,25.444z"/><path d="M40.713,45.392h-2.019c-0.276,0-0.5,0.224-0.5,0.5s0.224,0.5,0.5,0.5h2.019c0.276,0,0.5-0.224,0.5-0.5    S40.989,45.392,40.713,45.392z"/><path d="M42.731,37.632h-2.019c-0.276,0-0.5,0.224-0.5,0.5s0.224,0.5,0.5,0.5h2.019c0.276,0,0.5-0.224,0.5-0.5    S43.008,37.632,42.731,37.632z"/><path d="M44.75,35.075h-2.019c-0.276,0-0.5,0.224-0.5,0.5s0.224,0.5,0.5,0.5h2.019c0.276,0,0.5-0.224,0.5-0.5    S45.026,35.075,44.75,35.075z"/><path d="M49.825,43.483c0-0.276-0.224-0.5-0.5-0.5h-2.019c-0.276,0-0.5,0.224-0.5,0.5s0.224,0.5,0.5,0.5h2.019    C49.602,43.983,49.825,43.76,49.825,43.483z"/><path d="M62.236,43.483c0-0.276-0.224-0.5-0.5-0.5h-2.019c-0.276,0-0.5,0.224-0.5,0.5s0.224,0.5,0.5,0.5h2.019    C62.013,43.983,62.236,43.76,62.236,43.483z"/><path d="M65.081,38.844h-2.019c-0.276,0-0.5,0.224-0.5,0.5s0.224,0.5,0.5,0.5h2.019c0.276,0,0.5-0.224,0.5-0.5    S65.357,38.844,65.081,38.844z"/><path d="M70.163,42.983h-2.019c-0.276,0-0.5,0.224-0.5,0.5s0.224,0.5,0.5,0.5h2.019c0.276,0,0.5-0.224,0.5-0.5    S70.439,42.983,70.163,42.983z"/><path d="M69.938,37.825c0.276,0,0.5-0.224,0.5-0.5s-0.224-0.5-0.5-0.5H67.92c-0.276,0-0.5,0.224-0.5,0.5s0.224,0.5,0.5,0.5H69.938    z"/><path d="M67.92,27.374h2.019c0.276,0,0.5-0.224,0.5-0.5s-0.224-0.5-0.5-0.5H67.92c-0.276,0-0.5,0.224-0.5,0.5    S67.644,27.374,67.92,27.374z"/><path d="M63.405,45.392h-2.019c-0.276,0-0.5,0.224-0.5,0.5s0.224,0.5,0.5,0.5h2.019c0.276,0,0.5-0.224,0.5-0.5    S63.682,45.392,63.405,45.392z"/><path d="M57.772,35.883h-2.019c-0.276,0-0.5,0.224-0.5,0.5s0.224,0.5,0.5,0.5h2.019c0.276,0,0.5-0.224,0.5-0.5    S58.049,35.883,57.772,35.883z"/><path d="M69.429,34.364c0-0.276-0.224-0.5-0.5-0.5H66.91c-0.276,0-0.5,0.224-0.5,0.5s0.224,0.5,0.5,0.5h2.019    C69.205,34.864,69.429,34.641,69.429,34.364z"/><path d="M62.995,28.039c0,0.276,0.224,0.5,0.5,0.5h2.019c0.276,0,0.5-0.224,0.5-0.5s-0.224-0.5-0.5-0.5h-2.019    C63.219,27.539,62.995,27.763,62.995,28.039z"/><path d="M51.617,40.996H49.6c-0.277,0-0.5,0.224-0.5,0.5s0.223,0.5,0.5,0.5h2.018c0.276,0,0.5-0.224,0.5-0.5    S51.894,40.996,51.617,40.996z"/><path d="M51.617,45.392H49.6c-0.277,0-0.5,0.224-0.5,0.5s0.223,0.5,0.5,0.5h2.018c0.276,0,0.5-0.224,0.5-0.5    S51.894,45.392,51.617,45.392z"/><path d="M50.609,20.775c-11.605,0-23.939,2.138-23.939,6.099V43.99c0,0.038,0.004,0.076,0.014,0.113    c0.057,0.245,1.642,5.99,22.971,5.99l1.117-0.004c1.092,0,6.657-0.041,12.134-0.832v26.338c0,2.645,2.152,4.797,4.798,4.797    c2.645,0,4.797-2.152,4.797-4.797V47.781c0-0.429-0.062-0.861-0.187-1.291c0.103-0.055,0.208-0.114,0.326-0.186    c0.924-0.63,1.553-1.345,1.87-2.126c0.024-0.06,0.037-0.124,0.037-0.188V26.874C74.547,22.913,62.214,20.775,50.609,20.775z     M50.609,21.775c13.518,0,22.938,2.688,22.938,5.099s-9.42,5.098-22.938,5.098c-13.519,0-22.939-2.687-22.939-5.098    S37.091,21.775,50.609,21.775z M71.402,46.993c0.059,0.265,0.098,0.527,0.098,0.788v3.799h-7.595v-2.49    C65.242,48.825,69.463,47.94,71.402,46.993z M63.905,62.695v-4.558H71.5v4.558H63.905z M71.5,63.695v4.557h-7.595v-4.557H71.5z     M63.905,57.138V52.58H71.5v4.558H63.905z M63.905,69.252H71.5v4.558h-7.595V69.252z M67.703,79.393    c-2.094,0-3.798-1.703-3.798-3.797V74.81H71.5v0.786C71.5,77.689,69.797,79.393,67.703,79.393z M72.102,45.462    c-0.135,0.081-0.268,0.151-0.4,0.222l-0.236,0.126c-0.011,0.006-0.017,0.016-0.027,0.022c-0.008,0.005-0.017,0.005-0.024,0.011    c-1.256,0.909-6.25,1.996-8.086,2.341c-5.584,0.863-11.438,0.906-12.556,0.906l-1.117,0.004c-19.374,0-21.797-4.729-21.984-5.183    V28.723c3.153,2.771,13.295,4.249,22.939,4.249s19.784-1.478,22.938-4.249v15.165C73.292,44.452,72.799,44.986,72.102,45.462z"/></g></g><text x="0" y="115" fill="#000000" font-size="5px" font-weight="bold" font-family="'Helvetica Neue', Helvetica, Arial-Unicode, Arial, Sans-serif">Created by Lea Lafleur</text><text x="0" y="120" fill="#000000" font-size="5px" font-weight="bold" font-family="'Helvetica Neue', Helvetica, Arial-Unicode, Arial, Sans-serif">from the Noun Project</text></svg>