<svg xmlns="http://www.w3.org/2000/svg" xmlns:xlink="http://www.w3.org/1999/xlink" version="1.1" x="0px" y="0px" viewBox="0 0 100 125" enable-background="new 0 0 100 100" xml:space="preserve"><g><path d="M84.384,79.503V64.17v-6.932c0-0.102-0.031-0.2-0.089-0.284l-9.801-14.189V16.164c0-0.276-0.224-0.5-0.5-0.5h-4.197   c-0.276,0-0.5,0.224-0.5,0.5v26.635L49.996,70.743L30.374,42.472V16.164c0-0.276-0.224-0.5-0.5-0.5h-4.197   c-0.276,0-0.5,0.224-0.5,0.5v26.914l-9.584,13.876c-0.058,0.084-0.089,0.183-0.089,0.284v6.932c0,0.016,0.013,0.027,0.014,0.043   c-0.001,0.016-0.014,0.028-0.014,0.045l0.058,15.383c0,0.047,0.015,0.09,0.027,0.133v4.062c0,0.276,0.224,0.5,0.5,0.5h67.822   c0.276,0,0.5-0.224,0.5-0.5v-4.197C84.411,79.591,84.396,79.547,84.384,79.503z M55.823,79.139l-2.749-3.979l18.857-27.355   l11.452,16.522v14.812H55.823z M70.208,43.239c0.058-0.083,0.089-0.183,0.089-0.284V16.664h3.197v26.257   c0,0.102,0.031,0.2,0.089,0.284l9.801,14.189v5.168L72.376,46.594c-0.149-0.215-0.46-0.251-0.677-0.123   c-0.039,0.02-0.068,0.055-0.101,0.084c-0.015,0.016-0.035,0.021-0.047,0.039l-0.005,0.007c-0.01,0.012-0.025,0.018-0.035,0.031   L52.466,74.279l-1.849-2.677L70.208,43.239z M16.504,57.395l9.583-13.875c0.059-0.084,0.09-0.184,0.09-0.285v-26.57h3.197v25.964   c0,0.102,0.031,0.201,0.089,0.285l25.142,36.226h-3.631L28.447,46.526c-0.093-0.135-0.247-0.216-0.411-0.216   s-0.317,0.08-0.411,0.215l-0.039,0.057c-0.004,0.005-0.011,0.007-0.015,0.013l-1.057,1.532L16.504,62.571V57.395z M16.505,64.411   L27.362,48.66l0.624-0.9l21.77,31.379H16.56L16.505,64.411z M83.411,83.336H16.589v-3.197h34.122h0.02h4.83h27.851V83.336z"/></g><text x="0" y="115" fill="#000000" font-size="5px" font-weight="bold" font-family="'Helvetica Neue', Helvetica, Arial-Unicode, Arial, Sans-serif">Created by Lea Lafleur</text><text x="0" y="120" fill="#000000" font-size="5px" font-weight="bold" font-family="'Helvetica Neue', Helvetica, Arial-Unicode, Arial, Sans-serif">from the Noun Project</text></svg>