<svg xmlns="http://www.w3.org/2000/svg" xmlns:xlink="http://www.w3.org/1999/xlink" version="1.1" x="0px" y="0px" viewBox="0 0 100 125" enable-background="new 0 0 100 100" xml:space="preserve"><g><path d="M75.977,27.028v-0.989c0-0.276-0.224-0.5-0.5-0.5h-6.621c-0.276,0-0.5,0.224-0.5,0.5V27h-7.943   c0.016-0.074,0.026-0.15,0.026-0.229c0-0.69-0.646-1.23-1.469-1.23h-1.061l-2.684-3.396c-0.095-0.119-0.239-0.189-0.393-0.189   h-9.584c-0.153,0-0.298,0.07-0.393,0.189l-2.684,3.395h-1.101c-0.823,0-1.469,0.541-1.469,1.231c0,0.079,0.011,0.155,0.027,0.229   H31.81v-0.938c0-0.276-0.224-0.5-0.5-0.5h-6.621c-0.276,0-0.5,0.224-0.5,0.5v0.962c-4.74,0.253-8.522,4.177-8.522,8.979v31.992   c0,4.811,3.795,8.74,8.547,8.98c0.188,1.093,0.995,2.148,2.031,2.148h3.473c1.029,0,1.83-1.041,2.026-2.125h36.659   c0.196,1.084,0.997,2.125,2.026,2.125h3.473c1.037,0,1.845-1.058,2.032-2.151c4.722-0.272,8.482-4.188,8.482-8.978V36.004   C84.416,31.229,80.678,27.322,75.977,27.028z M69.355,26.539h5.621v0.336h-5.621V26.539z M59.438,26.771   c0,0.078-0.18,0.227-0.461,0.229h-0.812v-0.46h0.804C59.256,26.54,59.438,26.691,59.438,26.771z M45.491,22.955h9.1l2.535,3.207V27   H56.54l-2.288-3.014c-0.095-0.124-0.242-0.197-0.398-0.197h-7.625c-0.156,0-0.304,0.073-0.398,0.197L43.542,27h-0.626v-0.787   L45.491,22.955z M55.284,27H44.798l1.679-2.211h7.129L55.284,27z M40.604,26.771c0-0.079,0.183-0.231,0.469-0.231h0.844V27h-0.844   C40.786,27,40.604,26.85,40.604,26.771z M25.188,26.562h5.621V27h-5.621V26.562z M29.717,78.125h-3.473   c-0.411,0-0.842-0.519-1.005-1.125h5.482C30.559,77.606,30.128,78.125,29.717,78.125z M73.901,78.125h-3.473   c-0.411,0-0.842-0.519-1.005-1.125h5.482C74.743,77.606,74.312,78.125,73.901,78.125z M83.416,67.996   c0,4.413-3.591,8.004-8.004,8.004h-6.558H31.291H24.67c-4.413,0-8.004-3.591-8.004-8.004V36.004c0-4.413,3.591-8.004,8.004-8.004   h0.019h6.621h9.763h1.344h1.374h12.502h1.329c0.002,0,0.003,0.001,0.005,0.001h1.344c0.004,0,0.008-0.001,0.012-0.001h16.431   c4.413,0,8.004,3.591,8.004,8.004V67.996z"/></g><text x="0" y="115" fill="#000000" font-size="5px" font-weight="bold" font-family="'Helvetica Neue', Helvetica, Arial-Unicode, Arial, Sans-serif">Created by Lea Lafleur</text><text x="0" y="120" fill="#000000" font-size="5px" font-weight="bold" font-family="'Helvetica Neue', Helvetica, Arial-Unicode, Arial, Sans-serif">from the Noun Project</text></svg>