<svg xmlns="http://www.w3.org/2000/svg" xmlns:xlink="http://www.w3.org/1999/xlink" version="1.1" x="0px" y="0px" viewBox="0 0 100 125" enable-background="new 0 0 100 100" xml:space="preserve"><g><path d="M84.287,52.956c-0.086-0.165-0.257-0.269-0.443-0.269H73.748v-4.464c0.002-0.035,0.002-0.068,0.002-0.102   s0-0.067-0.002-0.102v-4.706h-0.031c-0.069-0.466-0.458-0.81-0.599-0.912c-3.091-1.743-11.9-2.244-15.429-2.376v-8.464   c0-0.229-0.156-0.43-0.379-0.485l-0.18-0.045l-5.225-3.348v-2.356c0.004-0.124,0.021-1.226-0.643-1.911   c-0.649-0.67-1.878-0.67-2.527,0c-0.646,0.667-0.646,1.724-0.642,1.892c0,0.001,0,0.001,0,0.002v2.373l-5.215,3.342l-0.196,0.053   c-0.218,0.059-0.369,0.257-0.369,0.482v8.487c-0.317,0.01-0.51,0.017-0.523,0.018c-12.22,0.578-14.674,2.053-15.148,2.519   c-0.318,0.23-0.401,0.505-0.413,0.699c-0.004,0.06,0.014,0.11,0.021,0.165v9.238H16.062c-0.186,0-0.357,0.104-0.443,0.269   c-0.086,0.165-0.073,0.364,0.033,0.518l1.438,2.062c0.093,0.134,0.247,0.214,0.41,0.214h1.751V57c0,0.232,0.16,0.434,0.385,0.486   c0.7,0.165,1.774,0.619,1.883,1.01c0.001,0.004,0.005,0.005,0.006,0.009s0,0.008,0.001,0.012c0.028,0.087,0.722,2.135,2.438,2.708   c1.1,0.366,1.154,1.189,1.156,1.275V74v8.938c0,0.276,0.224,0.5,0.5,0.5h48.627c0.276,0,0.5-0.224,0.5-0.5V74V62.751   c0.044-0.073,0.077-0.153,0.08-0.244c0.003-0.093,0.057-0.916,1.156-1.282c1.48-0.494,2.198-2.079,2.386-2.563   c0.043-0.052,0.095-0.098,0.113-0.165c0.11-0.394,1.165-0.839,1.884-1.01c0.226-0.053,0.385-0.255,0.385-0.486v-1.25h1.654   c0.163,0,0.316-0.08,0.41-0.214l1.438-2.062C84.36,53.32,84.373,53.121,84.287,52.956z M68.715,52.688v-2.948   c2.098-0.226,3.321-0.464,4.033-0.699v3.647H68.715z M47,52.688v-2.205c0.989,0.011,1.987,0.018,3,0.018   c0.906,0,1.801-0.006,2.688-0.014v2.201H47z M42.5,52.688v-2.289c1.138,0.031,2.306,0.056,3.5,0.072v2.217H42.5z M38.001,52.688   v-2.458c1.12,0.055,2.286,0.102,3.499,0.14v2.318H38.001z M27.25,44.507c0.987,0.474,2.437,0.848,4.033,1.14v0.857   c-2.098,0.226-3.321,0.465-4.033,0.7V44.507z M43.313,31.986L46,31.245v2.52l-2.687-1.063V31.986z M56.689,31.987v0.705   l-3.002,1.094v-2.583l1.706,0.426L56.689,31.987z M52.688,31.085V34H47v-2.912l2.996-0.025L52.688,31.085z M47,35h5.688v4.892   c-1.88-0.016-3.898,0.005-5.688,0.039V35z M52.688,40.892v0.737c-0.929-0.068-1.864-0.116-2.808-0.116   c-1.042,0-2.003,0.043-2.879,0.108v-0.691C48.789,40.897,50.808,40.876,52.688,40.892z M72.748,47.204   c-0.712-0.235-1.936-0.474-4.033-0.699v-0.841c2.234-0.445,3.485-0.904,4.033-1.143V47.204z M50,46.744   c0.923,0,1.813,0.005,2.688,0.013v2.729C51.813,49.495,50.923,49.5,50,49.5c-1.035,0-2.027-0.007-3-0.017v-2.723   C47.973,46.751,48.965,46.744,50,46.744z M47,45.761v-3.133c0.876-0.068,1.836-0.114,2.879-0.114c0.944,0,1.879,0.047,2.808,0.118   v3.126c-0.887-0.008-1.781-0.014-2.688-0.014C48.987,45.744,47.989,45.751,47,45.761z M53.688,46.769   c1.265,0.016,2.474,0.04,3.625,0.071v2.565c-1.151,0.031-2.36,0.055-3.625,0.071V46.769z M58.312,46.867   c1.308,0.041,2.539,0.09,3.684,0.146v2.219c-1.145,0.056-2.376,0.105-3.684,0.146V46.867z M62.996,47.067   c1.803,0.1,3.389,0.216,4.719,0.343v1.424c-1.33,0.127-2.916,0.243-4.719,0.343V47.067z M68.715,47.513   c1.795,0.196,3.039,0.408,3.672,0.609c-0.633,0.201-1.877,0.413-3.672,0.609V47.513z M67.715,46.403   c-0.387-0.036-0.796-0.072-1.234-0.107c-0.396-0.032-0.815-0.061-1.232-0.09c0.912-0.111,1.734-0.231,2.467-0.358V46.403z    M56.804,45.744c-0.09,0.001-0.169,0.033-0.241,0.076c-0.939-0.022-1.901-0.038-2.875-0.051v-3.06   c1.229,0.127,2.441,0.316,3.625,0.568v2.453C57.139,45.734,56.98,45.741,56.804,45.744z M53.688,41.71v-0.806   c0.898,0.015,1.749,0.039,2.493,0.078c0.015,0,0.199,0.004,0.509,0.013v1.152C55.703,41.963,54.703,41.813,53.688,41.71z    M46,41.707c-1.094,0.11-2.001,0.25-2.687,0.376v-1.064c0.712-0.021,1.636-0.046,2.687-0.069V41.707z M42.5,43.269   c0.579-0.13,1.816-0.375,3.5-0.552v3.056c-1.194,0.017-2.362,0.041-3.5,0.072V43.269z M46,46.772v2.699   c-1.222-0.017-2.386-0.042-3.5-0.072v-2.555C43.614,46.814,44.778,46.789,46,46.772z M41.5,49.372   c-1.239-0.04-2.407-0.086-3.499-0.141v-2.218c1.091-0.054,2.259-0.101,3.499-0.141V49.372z M35.038,46.185   c-0.521,0.035-1.031,0.072-1.518,0.111c-0.439,0.036-0.849,0.071-1.237,0.108v-0.586C33.196,45.963,34.132,46.083,35.038,46.185z    M31.283,47.513v1.219c-1.793-0.196-3.037-0.409-3.669-0.609C28.246,47.921,29.489,47.709,31.283,47.513z M32.283,47.41   c1.33-0.127,2.917-0.243,4.719-0.343v2.109c-1.802-0.1-3.389-0.216-4.719-0.343V47.41z M33.52,49.948   c1.078,0.087,2.246,0.164,3.482,0.231v2.508h-4.719V49.84C32.67,49.877,33.081,49.913,33.52,49.948z M53.688,50.475   c1.236-0.016,2.447-0.039,3.625-0.07v2.283h-3.625V50.475z M58.312,50.375c1.278-0.039,2.507-0.088,3.684-0.146v2.458h-3.684   V50.375z M62.996,50.18c1.237-0.067,2.405-0.145,3.484-0.231c0.438-0.035,0.848-0.071,1.234-0.107v2.847h-4.719V50.18z    M72.748,43.376V43.4c-0.015,0.013-0.043,0.035-0.119,0.074c-0.029,0.017-2.5,1.334-9.633,1.96v-4.081   c3.662,0.312,7.784,0.875,9.572,1.882C72.623,43.277,72.702,43.369,72.748,43.376z M61.996,41.274v4.239   c-1.121,0.083-2.346,0.148-3.684,0.19v-2.828c0-0.234-0.162-0.437-0.391-0.488c-0.076-0.017-0.155-0.028-0.232-0.045V41.03   C58.756,41.071,60.291,41.146,61.996,41.274z M56.216,39.983c-0.754-0.04-1.617-0.064-2.528-0.079V34.85l3.002-1.094v6.238   C56.432,39.987,56.266,39.984,56.216,39.983z M49.094,27.458v-1.753l0.024-0.006l0.382-0.094v1.853H49.094z M50.5,25.606   l0.164,0.04l0.243,0.06v1.753H50.5V25.606z M50.543,24.112c0.137,0.141,0.225,0.342,0.28,0.542l-0.704-0.172   c-0.004-0.001-0.008,0-0.013-0.001c-0.001,0-0.002,0-0.003,0c-0.034-0.007-0.068-0.012-0.103-0.012   c-0.019,0-0.038,0.004-0.056,0.007c-0.014,0.001-0.027,0.002-0.04,0.005c-0.007,0.001-0.015,0-0.022,0.002l-0.704,0.172   c0.055-0.2,0.142-0.401,0.278-0.541C49.728,23.831,50.269,23.831,50.543,24.112z M48.74,28.458h2.52l2.722,1.744l-0.333-0.092   c-0.042-0.012-0.085-0.018-0.129-0.018l-0.157-0.001l-0.054-0.013c-0.021-0.005-0.04,0-0.061-0.003   c-0.021-0.002-0.039-0.012-0.061-0.012H46.5c-0.028,0-0.052,0.012-0.079,0.016c-0.018,0.003-0.035-0.002-0.052,0.002l-0.277,0.075   L48.74,28.458z M43.313,33.777L46,34.84v5.11c-1.047,0.023-1.971,0.047-2.687,0.069V33.777z M41.832,41.066   c0.012,0,0.187-0.006,0.481-0.016v1.235c-0.261,0.059-0.416,0.1-0.443,0.107c-0.218,0.059-0.37,0.257-0.37,0.483v3   c-0.029,0-0.059,0.001-0.087,0.002c-0.085-0.133-0.224-0.228-0.394-0.234c-0.037-0.001-1.28-0.053-3.018-0.186v-4.158   C39.154,41.212,40.421,41.133,41.832,41.066z M27.343,43.296c0.058-0.056,1.341-1.209,9.658-1.917v3.996   c-3.434-0.299-8.071-0.89-9.71-1.975c-0.004-0.004-0.015-0.015-0.027-0.029C27.298,43.349,27.313,43.337,27.343,43.296z    M27.25,49.04c0.711,0.235,1.935,0.474,4.033,0.7v2.948H27.25V49.04z M31.549,63h0.467v6.875h-0.467V63z M31.049,70.875h1.467   c0.276,0,0.5-0.224,0.5-0.5V63h9.677v7.375c0,0.276,0.224,0.5,0.5,0.5h1.467c0.276,0,0.5-0.224,0.5-0.5V63h9.676v7.375   c0,0.276,0.224,0.5,0.5,0.5h1.468c0.276,0,0.5-0.224,0.5-0.5V63h9.676v7.375c0,0.276,0.224,0.5,0.5,0.5h1.468   c0.276,0,0.5-0.224,0.5-0.5V63h4.3v10.5H26.121V63h4.428v7.375C30.549,70.651,30.773,70.875,31.049,70.875z M43.693,63h0.467v6.875   h-0.467V63z M55.837,63h0.468v6.875h-0.468V63z M67.98,63h0.468v6.875H67.98V63z M73.748,82.438H26.121V74.5h47.627V82.438z    M75.668,60.275c-1.19,0.397-1.61,1.199-1.759,1.725h-4.961H67.48H56.805h-1.468H44.661h-1.467H32.517h-1.467h-5.009   c-0.148-0.525-0.569-1.327-1.759-1.725c-0.724-0.241-1.216-0.903-1.502-1.415h54.392C76.885,59.372,76.392,60.034,75.668,60.275z    M79.752,56.617c-0.596,0.181-1.62,0.573-2.062,1.243H22.313c-0.442-0.67-1.466-1.062-2.062-1.243V55.75h59.501V56.617z    M82.146,54.75h-1.894H19.751h-1.99l-0.74-1.062H42h15.812h25.073L82.146,54.75z"/></g><text x="0" y="115" fill="#000000" font-size="5px" font-weight="bold" font-family="'Helvetica Neue', Helvetica, Arial-Unicode, Arial, Sans-serif">Created by Lea Lafleur</text><text x="0" y="120" fill="#000000" font-size="5px" font-weight="bold" font-family="'Helvetica Neue', Helvetica, Arial-Unicode, Arial, Sans-serif">from the Noun Project</text></svg>