<svg xmlns="http://www.w3.org/2000/svg" xmlns:xlink="http://www.w3.org/1999/xlink" version="1.1" x="0px" y="0px" viewBox="0 0 100 125" enable-background="new 0 0 100 100" xml:space="preserve"><g><g><path d="M84.403,77.081c0-0.079-0.018-0.153-0.05-0.22l-3.713-21.445v-1.21h0.5c0.276,0,0.5-0.224,0.5-0.5v-1.875    c0-0.276-0.224-0.5-0.5-0.5h-0.569l-2.803-18.923l0.292,0.13c0.153,0.068,0.334,0.055,0.476-0.038    c0.142-0.092,0.228-0.25,0.228-0.419v-1.583c0-0.196-0.114-0.374-0.293-0.455c-0.065-0.03-4.106-1.823-10.042-2.101v-3.944h0.712    c0.276,0,0.5-0.224,0.5-0.5v-1.917v-3.125c0-0.276-0.224-0.5-0.5-0.5h-0.712v-1.874c0-0.276-0.224-0.5-0.5-0.5H56.766    c-0.276,0-0.5,0.224-0.5,0.5v1.874h-0.875c-0.276,0-0.5,0.224-0.5,0.5v3.125v1.417h-2.812h-4.156h-2.812V21.5v-3.125    c0-0.276-0.224-0.5-0.5-0.5h-0.875v-1.874c0-0.276-0.224-0.5-0.5-0.5H32.071c-0.276,0-0.5,0.224-0.5,0.5v1.874h-0.712    c-0.276,0-0.5,0.224-0.5,0.5V21.5v1.998c0,0.276,0.224,0.5,0.5,0.5h0.712v3.864c-5.937,0.277-9.978,2.07-10.042,2.1    c-0.179,0.081-0.293,0.259-0.293,0.455V32c0,0.169,0.086,0.327,0.228,0.419c0.141,0.093,0.321,0.105,0.476,0.038l0.292-0.13    L19.429,51.25h-0.569c-0.276,0-0.5,0.224-0.5,0.5v1.875c0,0.276,0.224,0.5,0.5,0.5h0.5v1.21l-3.735,21.58    c-0.002,0.013,0.003,0.025,0.002,0.038c-0.002,0.016-0.01,0.03-0.01,0.047v4.938c0,2.398,2.081,2.398,3.918,2.398h15.157    c1.926,0,3.918,0,3.918-2.03V77c0-0.016-0.008-0.028-0.009-0.043s0.005-0.028,0.002-0.042L34.859,55.29v-1.165h8.875    c0.276,0,0.5-0.224,0.5-0.5V51.75c0-0.276-0.224-0.5-0.5-0.5v-1h3.688v1.5c0,0.276,0.224,0.5,0.5,0.5h4.156    c0.276,0,0.5-0.224,0.5-0.5v-1.5h3.688v1.081c-0.276,0-0.5,0.224-0.5,0.5v1.875c0,0.276,0.224,0.5,0.5,0.5h8.875v1.165    l-3.743,21.625c-0.003,0.014,0.003,0.027,0.002,0.042s-0.009,0.027-0.009,0.043v5.306c0,2.03,1.992,2.03,3.918,2.03h15.157    c1.837,0,3.918,0,3.918-2.398v-4.841C84.391,77.146,84.403,77.115,84.403,77.081z M62.391,77.581h20.993v1.125H62.391V77.581z     M77.764,31.312l-0.42-0.188c-0.001,0-0.001,0-0.002,0c-0.263-0.129-3.764-1.766-9.738-1.766c-3.556,0-7.252,0.588-10.986,1.745    c-0.008,0.002-0.012,0.011-0.02,0.014c-0.014,0.005-0.027,0.004-0.041,0.01l-0.377,0.174v-0.459    c10.569-3.99,19.841-0.705,21.584-0.011V31.312z M48.422,49.25v-1.877V36.377v-1.796h3.156v1.877v10.996v1.796H48.422z     M44.111,32.454c0.066,0.03,0.138,0.046,0.209,0.046c0.094,0,0.188-0.026,0.27-0.079c0.144-0.092,0.23-0.25,0.23-0.421v-1.583    c0-0.206-0.126-0.391-0.318-0.466c-0.257-0.101-0.512-0.19-0.768-0.282v-3.294h1.344V32c0,0.276,0.224,0.5,0.5,0.5h1.844v1h-3.688    v-1.22L44.111,32.454z M49.5,26.375V31.5h-0.484v-5.125H49.5z M50.984,26.375V31.5H50.5v-5.125H50.984z M52.578,23.998h2.812    h0.875v1.377h-1.844h-1.844V23.998z M55.498,30.032c-0.192,0.075-0.318,0.26-0.318,0.466v1.583c0,0.171,0.087,0.329,0.23,0.421    c0.082,0.053,0.176,0.079,0.27,0.079c0.071,0,0.143-0.016,0.209-0.046l0.377-0.174v1.22h-3.688V32.5h1.844    c0.276,0,0.5-0.224,0.5-0.5v-5.625h1.344v3.375C56.01,29.842,55.755,29.932,55.498,30.032z M43.734,34.5h3.688v1.377h-3.688V34.5z     M51.578,32.5v1h-3.156v-1H51.578z M53.922,26.375V31.5h-0.453v-5.125H53.922z M52.578,34.581h3.688v1.377h-3.688V34.581z     M52.078,26.375h0.391V31.5h-0.391h-0.094v-5.125H52.078z M47.922,26.375h0.094V31.5h-0.094h-0.391v-5.125H47.922z M46.531,31.5    h-0.453v-5.125h0.453V31.5z M43.734,36.877h3.688v9.996h-3.688V36.877z M52.578,36.958h3.688v9.996h-3.688V36.958z M57.266,29.409    v-3.534v-1.796h10.163v3.831C64.394,27.861,60.923,28.23,57.266,29.409z M68.641,21.081H68v-2.125h0.641V21.081z M65.009,21.081    v-2.125h0.496v2.125H65.009z M63.514,21.081v-2.125h0.495v2.125H63.514z M62.018,21.081v-2.125h0.496v2.125H62.018z     M60.522,21.081v-2.125h0.495v2.125H60.522z M59.026,21.081v-2.125h0.496v2.125H59.026z M57.531,21.081v-2.125h0.495v2.125H57.531    z M66.505,18.956H67v2.125h-0.495V18.956z M57.266,16.582h10.163v1.329c-0.055,0.008-0.106,0.021-0.153,0.045h-10.01V16.582z     M55.891,18.956h0.641v2.125h-0.641V18.956z M55.891,22.081h0.943c0.061,0.026,0.127,0.041,0.197,0.041s0.137-0.015,0.197-0.041    h1.101c0.061,0.026,0.127,0.041,0.197,0.041s0.137-0.015,0.197-0.041h1.102c0.061,0.026,0.127,0.041,0.197,0.041    s0.137-0.015,0.197-0.041h1.101c0.061,0.026,0.127,0.041,0.197,0.041s0.137-0.015,0.197-0.041h1.102    c0.061,0.026,0.127,0.041,0.197,0.041s0.137-0.015,0.197-0.041h1.101c0.061,0.026,0.127,0.041,0.197,0.041    s0.137-0.015,0.197-0.041h1.102c0.061,0.026,0.127,0.041,0.197,0.041s0.137-0.015,0.197-0.041h2.438v0.917H56.766h-0.875V22.081z     M51.578,25.375h-3.156v-1.377h3.156V25.375z M47.422,25.375h-1.844h-1.844v-1.377h0.875h2.812V25.375z M44.109,21h-0.656v-2.125    h0.656V21z M41.958,21v-2.125h0.495V21H41.958z M40.462,21v-2.125h0.496V21H40.462z M38.967,21v-2.125h0.495V21H38.967z     M37.471,21v-2.125h0.496V21H37.471z M35.976,21v-2.125h0.495V21H35.976z M34.479,21v-2.125h0.496V21H34.479z M32.984,21v-2.125    h0.495V21H32.984z M32.571,16.501h10.163v1.374H32.571V16.501z M31.359,18.875h0.625V21h-0.625V18.875z M31.359,22h0.854    c0.079,0.053,0.169,0.091,0.271,0.091s0.192-0.038,0.271-0.091h0.952c0.079,0.053,0.169,0.091,0.271,0.091    s0.192-0.038,0.271-0.091h0.953c0.079,0.053,0.169,0.091,0.271,0.091s0.192-0.038,0.271-0.091h0.952    c0.079,0.053,0.169,0.091,0.271,0.091s0.192-0.038,0.271-0.091h0.953c0.079,0.053,0.169,0.091,0.271,0.091    s0.192-0.038,0.271-0.091h0.952c0.079,0.053,0.169,0.091,0.271,0.091s0.192-0.038,0.271-0.091h0.953    c0.079,0.053,0.169,0.091,0.271,0.091S41.65,22.053,41.729,22h1.18c0.016,0.001,0.028,0.009,0.044,0.009s0.028-0.008,0.044-0.009    h1.112v0.998h-0.875H32.071h-0.712V22z M32.571,23.998h10.163v1.877v3.453c-3.657-1.178-7.128-1.547-10.163-1.498V23.998z     M22.236,30.75c1.742-0.693,11.013-3.979,21.584,0.011v0.459l-0.377-0.174c-0.014-0.006-0.028-0.005-0.042-0.01    c-0.007-0.003-0.011-0.012-0.019-0.014c-3.734-1.157-7.431-1.745-10.986-1.745c-5.975,0-9.476,1.637-9.738,1.766    c-0.001,0-0.001,0-0.002,0l-0.42,0.188V30.75z M37.609,78.625H16.616V77.5h20.993V78.625z M34.691,83.336H19.534    c-2.161,0-2.918-0.114-2.918-1.398v-2.312h20.993v2.681C37.609,83.201,36.952,83.336,34.691,83.336z M37.517,76.5H16.71    l3.57-20.625h13.666L37.517,76.5z M33.859,54.875h-13.5v-0.75h13.5V54.875z M43.234,53.125h-8.875h-14.5h-0.5V52.25h0.5h23.375    V53.125z M20.438,51.25l2.875-19.404c0.868-0.365,4.11-1.568,9.083-1.568c3.344,0,6.819,0.536,10.338,1.593V34v2.377v10.996v2.377    v1.5H20.438z M43.734,47.873h3.688v1.377h-3.688V47.873z M51.578,51.25h-3.156v-1h3.156V51.25z M52.578,49.25v-1.296h3.688v1.296    H52.578z M57.266,49.75v-2.296V36.458v-2.377v-2.13c3.519-1.057,6.994-1.593,10.338-1.593c4.973,0,8.215,1.203,9.083,1.568    l2.875,19.404H57.266V49.75z M56.766,52.331h23.375h0.5v0.875h-0.5h-14.5h-8.875V52.331z M79.641,54.206v0.75h-13.5v-0.75H79.641z     M66.054,55.956H79.72l3.57,20.625H62.483L66.054,55.956z M80.466,83.417H65.309c-2.261,0-2.918-0.135-2.918-1.03v-2.681h20.993    v2.312C83.384,83.303,82.627,83.417,80.466,83.417z"/><path d="M76.393,45.495c0.272-0.041,0.461-0.296,0.419-0.569l-1.667-11.001c-0.041-0.272-0.3-0.458-0.569-0.419    c-0.272,0.041-0.461,0.296-0.419,0.569l1.667,11.001c0.037,0.247,0.25,0.425,0.493,0.425    C76.342,45.501,76.367,45.499,76.393,45.495z"/><path d="M77.136,46.607c-0.041-0.272-0.298-0.457-0.569-0.419c-0.272,0.041-0.461,0.296-0.419,0.569l0.162,1.069    c0.037,0.247,0.25,0.425,0.493,0.425c0.025,0,0.051-0.002,0.076-0.006c0.272-0.041,0.461-0.296,0.419-0.569L77.136,46.607z"/><path d="M80.161,70.888c0.272-0.041,0.461-0.296,0.419-0.569l-1.667-11.001c-0.041-0.272-0.299-0.457-0.569-0.419    c-0.272,0.041-0.461,0.296-0.419,0.569l1.667,11.001c0.037,0.247,0.25,0.425,0.493,0.425    C80.11,70.894,80.136,70.892,80.161,70.888z"/><path d="M80.904,72c-0.04-0.272-0.297-0.455-0.569-0.419c-0.272,0.041-0.461,0.296-0.419,0.569l0.162,1.069    c0.037,0.247,0.25,0.425,0.493,0.425c0.025,0,0.051-0.002,0.076-0.006c0.272-0.041,0.461-0.296,0.419-0.569L80.904,72z"/></g></g><text x="0" y="115" fill="#000000" font-size="5px" font-weight="bold" font-family="'Helvetica Neue', Helvetica, Arial-Unicode, Arial, Sans-serif">Created by Lea Lafleur</text><text x="0" y="120" fill="#000000" font-size="5px" font-weight="bold" font-family="'Helvetica Neue', Helvetica, Arial-Unicode, Arial, Sans-serif">from the Noun Project</text></svg>