<svg xmlns="http://www.w3.org/2000/svg" xmlns:xlink="http://www.w3.org/1999/xlink" version="1.1" x="0px" y="0px" viewBox="0 0 100 125" enable-background="new 0 0 100 100" xml:space="preserve"><g><g><path d="M84.311,53.167l-9.105-25.295c-0.071-0.199-0.26-0.331-0.471-0.331H23.152c-0.103,0-0.195,0.041-0.277,0.098    c-0.012,0.007-0.02,0.016-0.029,0.023c-0.027,0.022-0.061,0.037-0.083,0.065c-0.037,0.046-0.057,0.101-0.075,0.155    c-0.004,0.009-0.014,0.013-0.017,0.022l-7.168,25.417c-0.042,0.15-0.012,0.312,0.083,0.438s0.242,0.198,0.398,0.198h2.333v29.668    c0,0.276,0.224,0.5,0.5,0.5h9.917h3.752h7.664h40.834c0.276,0,0.5-0.224,0.5-0.5V53.958h2.399c0.008,0,0.016,0,0.02,0    c0.276,0,0.5-0.224,0.5-0.5C84.403,53.35,84.369,53.249,84.311,53.167z M23.092,30.097l0.176,0.8l0.549,2.498l-5.38,19.563h-1.792    L23.092,30.097z M19.317,53.527l4.959-18.035l3.958,18.02v29.614h-1.688c0.062-0.083,0.104-0.181,0.104-0.292V53.458    c0-0.276-0.224-0.5-0.5-0.5h-2.998c-0.276,0-0.5,0.224-0.5,0.5v29.668h-3.335V53.527z M25.755,83.126h-2.103V53.958h1.998v28.876    C25.65,82.945,25.693,83.043,25.755,83.126z M32.982,72.459h6.668v1.5h-6.667L32.982,72.459z M33.021,71.459    c0.072-0.453,0.246-1.007,0.655-1.468c0.56-0.63,1.448-0.949,2.642-0.949c1.189,0,2.077,0.317,2.637,0.943    c0.407,0.456,0.582,1.012,0.656,1.474H33.021z M37.902,83.126h-3.167v-0.584h3.167V83.126z M38.902,83.126v-1.084    c0-0.276-0.224-0.5-0.5-0.5h-4.167c-0.276,0-0.5,0.224-0.5,0.5v1.084h-0.749l-0.003-8.167h6.667v8.167H38.902z M80.484,83.126    H40.65l-0.003-8.617c0.002-0.018,0.01-0.032,0.01-0.05s-0.009-0.032-0.01-0.05l-0.001-1.976c0.003-0.021,0.019-0.203,0.014-0.465    c0-0.004,0.002-0.007,0.002-0.01c0-0.005-0.002-0.008-0.003-0.013c-0.014-0.623-0.159-1.727-0.951-2.619    c-0.758-0.853-1.897-1.285-3.39-1.285s-2.632,0.433-3.39,1.285c-0.806,0.908-0.942,2.035-0.954,2.631v0.001c0,0,0,0,0,0.001    c-0.004,0.246,0.011,0.411,0.012,0.415v2.05c-0.001,0.012-0.007,0.022-0.007,0.034s0.006,0.022,0.007,0.034v8.633h-2.752V53.958    h51.25V83.126z M80.984,52.958H29.137l-5.362-24.417h50.608l8.79,24.417H80.984z"/></g></g><text x="0" y="115" fill="#000000" font-size="5px" font-weight="bold" font-family="'Helvetica Neue', Helvetica, Arial-Unicode, Arial, Sans-serif">Created by Lea Lafleur</text><text x="0" y="120" fill="#000000" font-size="5px" font-weight="bold" font-family="'Helvetica Neue', Helvetica, Arial-Unicode, Arial, Sans-serif">from the Noun Project</text></svg>