<svg xmlns="http://www.w3.org/2000/svg" xmlns:xlink="http://www.w3.org/1999/xlink" version="1.1" x="0px" y="0px" viewBox="0 0 100 125" enable-background="new 0 0 100 100" xml:space="preserve"><g><path d="M84.279,74.297c-1.569-2.035-3.072-3.879-4.513-5.563c-0.019-0.037-0.021-0.079-0.05-0.111l-1.612-1.843   c-0.042-0.048-0.093-0.087-0.148-0.116C66.927,54.347,60.178,52.205,59.229,51.955l-1.69-1.245   c-0.03-0.022-0.067-0.018-0.101-0.032l-5.292-6.583l20.562-25.578c0.173-0.216,0.139-0.53-0.076-0.703l-1.734-1.395   c-0.216-0.173-0.528-0.14-0.702,0.075L50.002,41.428L29.891,16.411c-0.083-0.104-0.204-0.169-0.336-0.184   c-0.132-0.014-0.264,0.025-0.367,0.107l-1.734,1.395c-0.215,0.173-0.249,0.487-0.076,0.703l20.63,25.662l-5.36,6.667   c-0.033,0.015-0.07,0.01-0.101,0.032l-1.69,1.245c-0.949,0.25-7.698,2.392-18.728,14.708c-0.056,0.029-0.106,0.068-0.148,0.116   l-1.612,1.843c-0.028,0.032-0.031,0.074-0.05,0.111c-1.44,1.685-2.943,3.528-4.513,5.563c-0.167,0.216-0.13,0.524,0.082,0.695   l11.277,9.065c0.093,0.074,0.203,0.11,0.313,0.11c0.143,0,0.284-0.061,0.383-0.179c1.679-2.003,3.177-3.896,4.53-5.69   c0.001-0.003,0.004-0.004,0.006-0.006l0.147-0.2c0.431-0.574,0.847-1.138,1.247-1.69l0.059-0.08   c0.001-0.001,0.001-0.003,0.002-0.005c9.757-13.51,10.405-20.609,10.446-21.595l0.853-1.92c0.015-0.033,0.002-0.068,0.009-0.103   l4.917-6.115l4.849,6.031c0.007,0.034-0.006,0.069,0.009,0.103l0.853,1.92c0.041,0.985,0.689,8.085,10.446,21.595   c0.001,0.002,0.001,0.004,0.002,0.005l0.059,0.08c0.4,0.553,0.816,1.116,1.247,1.69l0.147,0.2c0.002,0.002,0.005,0.003,0.006,0.006   c1.354,1.795,2.852,3.688,4.53,5.69c0.099,0.118,0.24,0.179,0.383,0.179c0.11,0,0.221-0.036,0.313-0.11l11.277-9.065   C84.409,74.821,84.446,74.513,84.279,74.297z M67.549,76.42c-0.132-0.181-0.264-0.36-0.392-0.538l0.94-7.86   c0.017-0.135-0.022-0.271-0.108-0.375c-0.086-0.105-0.211-0.171-0.346-0.183l-6.205-0.524l-0.523-0.974l6.855,0.672   c0.266,0.016,0.513-0.169,0.545-0.438l0.818-6.839l0.814,0.7c0.007,0.007,0.015,0.014,0.022,0.021l-0.82,6.171   c-0.018,0.134,0.021,0.27,0.104,0.376s0.208,0.174,0.343,0.188l7.833,0.767c0.224,0.251,0.448,0.503,0.676,0.763l-8.658-0.73   c-0.282-0.024-0.502,0.168-0.538,0.432l-1.152,8.657L67.549,76.42z M66.296,74.672c-1.721-2.449-3.136-4.68-4.29-6.681l5.038,0.426   L66.296,74.672z M76.434,66.479L70.21,65.87l0.662-4.979C72.566,62.438,74.427,64.289,76.434,66.479z M56.004,52.748l0.749-0.602   l0.502-0.403l0.937,0.69l-1.715,1.378L56.004,52.748z M70.658,17.511l0.956,0.769l-20.11,25.018l-0.506-0.629l-0.355-0.442   L70.658,17.511z M29.425,17.428l20.186,25.11l0,0l0.208,0.258l6.661,8.287l-0.955,0.768l-5.059-6.293l0,0l-1.428-1.776   l-0.001-0.001L28.47,18.195L29.425,17.428z M43.607,53.896l-1.715-1.378l0.937-0.69l0.502,0.403l0.749,0.602L43.607,53.896z    M31.769,66.283c0.032,0.27,0.275,0.446,0.545,0.438l6.855-0.672l-0.523,0.974l-6.205,0.524c-0.135,0.012-0.26,0.077-0.346,0.183   c-0.086,0.104-0.125,0.24-0.108,0.375l0.94,7.86c-0.128,0.178-0.26,0.357-0.392,0.538l-0.209,0.283l-1.152-8.657   c-0.034-0.25-0.247-0.434-0.496-0.434c-0.014,0-0.027,0.001-0.042,0.002l-8.656,0.73c0.228-0.26,0.453-0.513,0.677-0.763   l7.83-0.767c0.135-0.014,0.259-0.081,0.343-0.188s0.122-0.242,0.104-0.376l-0.819-6.162c0.284-0.251,0.562-0.491,0.837-0.725   L31.769,66.283z M33.04,68.501l5.038-0.426c-1.154,2.001-2.569,4.231-4.29,6.681L33.04,68.501z M29.213,60.982l0.661,4.972   l-6.22,0.608C25.659,64.377,27.519,62.529,29.213,60.982z M27.408,83.055l-10.513-8.45c1.438-1.853,2.819-3.54,4.148-5.093   l9.201-0.777l1.225,9.202C30.245,79.56,28.9,81.263,27.408,83.055z M39.754,64.987l-7.051,0.691l-0.838-6.996   c5.071-4.158,8.257-5.363,9.096-5.631l1.162,0.935l1.162,0.934C43.205,55.795,42.714,59.156,39.754,64.987z M44.56,51.935   l-0.955-0.768l5.044-6.274l0.786,0.979L44.56,51.935z M57.692,54.118l1.432-1.151c0.838,0.263,4.017,1.454,9.096,5.622   l-0.839,7.006l-7.051-0.691c-2.96-5.831-3.451-9.192-3.531-10.067L57.692,54.118z M72.676,82.971   c-1.492-1.792-2.837-3.495-4.062-5.118l1.225-9.202l9.203,0.777c1.327,1.552,2.708,3.239,4.146,5.093L72.676,82.971z"/></g><text x="0" y="115" fill="#000000" font-size="5px" font-weight="bold" font-family="'Helvetica Neue', Helvetica, Arial-Unicode, Arial, Sans-serif">Created by Lea Lafleur</text><text x="0" y="120" fill="#000000" font-size="5px" font-weight="bold" font-family="'Helvetica Neue', Helvetica, Arial-Unicode, Arial, Sans-serif">from the Noun Project</text></svg>