<svg xmlns="http://www.w3.org/2000/svg" xmlns:xlink="http://www.w3.org/1999/xlink" version="1.1" x="0px" y="0px" viewBox="0 0 100 125" enable-background="new 0 0 100 100" xml:space="preserve"><g><g><path d="M70.75,68.558h-4.626V30.807h4.375c0.276,0,0.5-0.224,0.5-0.5v-14.25c0-0.276-0.224-0.5-0.5-0.5h-41.5    c-0.276,0-0.5,0.224-0.5,0.5v14.25c0,0.276,0.224,0.5,0.5,0.5h4.375v37.751H29.25c-0.276,0-0.5,0.224-0.5,0.5v14.25    c0,0.276,0.224,0.5,0.5,0.5h41.5c0.276,0,0.5-0.224,0.5-0.5v-14.25C71.25,68.781,71.026,68.558,70.75,68.558z M65.124,68.558    h-1.125V30.807h1.125V68.558z M57.501,68.558l-2.46-18.521c0.005-0.069-0.004-0.14-0.028-0.207l-1.041-7.839    c-0.031-0.233-0.221-0.405-0.451-0.427c-0.014-0.001-0.026-0.007-0.041-0.007c-0.001,0-0.003-0.001-0.004-0.001h-3.727h-3.727    c-0.005,0-0.009,0.002-0.014,0.003c-0.024,0-0.047,0.009-0.07,0.013c-0.039,0.007-0.077,0.013-0.112,0.027    c-0.02,0.009-0.036,0.022-0.055,0.033c-0.036,0.021-0.07,0.044-0.1,0.073c-0.006,0.007-0.015,0.009-0.021,0.016    c-0.011,0.013-0.015,0.028-0.024,0.041c-0.022,0.031-0.043,0.062-0.059,0.099c-0.011,0.025-0.019,0.051-0.025,0.078    c-0.004,0.018-0.014,0.033-0.017,0.052l-1.004,7.557c-0.015,0.051-0.022,0.102-0.021,0.153l-0.013,0.098    c-0.04,0.089-0.052,0.183-0.037,0.277l-1.275,9.602c-0.015,0.051-0.022,0.102-0.021,0.153l-1.159,8.727h-5.373V30.807h26.375    v37.751H57.501z M49.749,42.557h2.41l-2.418,2.177l-2.417-2.177H49.749z M54.162,51.017l0.998,7.515l-4.672-4.206L54.162,51.017z     M49.741,53.652l-4.204-3.786l4.204-3.787l4.205,3.787L49.741,53.652z M53.814,48.402l-3.326-2.996l2.615-2.355L53.814,48.402z     M46.393,43.062l2.603,2.344l-3.31,2.98L46.393,43.062z M45.335,51.028l3.66,3.297l-4.654,4.191L45.335,51.028z M44.138,60.045    l5.604-5.047l5.621,5.062l1.129,8.498H43.007L44.138,60.045z M29.499,16.557h40.5v13.25h-4.375h-31.75h-4.375V16.557z     M34.374,30.807h1.25v37.751h-1.25V30.807z M70.25,82.808h-40.5v-13.25h4.124h31.75h4.626V82.808z"/><path d="M68.812,28.345V18.019c0-0.276-0.224-0.5-0.5-0.5H31.187c-0.276,0-0.5,0.224-0.5,0.5v10.326c0,0.276,0.224,0.5,0.5,0.5    h37.125C68.588,28.845,68.812,28.621,68.812,28.345z M67.812,27.845H31.687v-9.326h36.125V27.845z"/><path d="M30.687,71.02v10.326c0,0.276,0.224,0.5,0.5,0.5h37.125c0.276,0,0.5-0.224,0.5-0.5V71.02c0-0.276-0.224-0.5-0.5-0.5    H31.187C30.91,70.52,30.687,70.743,30.687,71.02z M31.687,71.52h36.125v9.326H31.687V71.52z"/><path d="M48.188,33.635l-1.048,0.501l-0.996-2.185c-0.098-0.213-0.334-0.33-0.558-0.281c-0.229,0.048-0.394,0.248-0.397,0.481    l-0.074,4.936c-0.003,0.175,0.086,0.338,0.234,0.432c0.147,0.093,0.333,0.102,0.489,0.023l0.713-0.356l0.665,2.697    c0.055,0.225,0.257,0.381,0.485,0.381c0.01,0,0.02,0,0.029-0.001c0.241-0.015,0.438-0.198,0.467-0.438l0.702-5.678    c0.022-0.182-0.056-0.36-0.204-0.468C48.548,33.575,48.354,33.557,48.188,33.635z M47.539,37.011l-0.166-0.672    c-0.036-0.148-0.138-0.271-0.275-0.335c-0.067-0.03-0.139-0.046-0.21-0.046c-0.077,0-0.153,0.018-0.224,0.053l-0.536,0.269    l0.028-1.894l0.286,0.629c0.056,0.122,0.158,0.216,0.284,0.262c0.127,0.047,0.266,0.039,0.387-0.019l0.683-0.327L47.539,37.011z"/><path d="M41.957,35.995c-0.112-0.144-0.294-0.216-0.476-0.185c-0.181,0.03-0.33,0.156-0.39,0.328l-0.383,1.097l-2.252-0.833    c-0.221-0.083-0.466,0-0.593,0.196c-0.128,0.196-0.103,0.454,0.062,0.622l3.449,3.531c0.121,0.125,0.298,0.178,0.471,0.138    c0.17-0.04,0.307-0.165,0.361-0.331l0.25-0.757l2.382,1.431c0.08,0.048,0.169,0.071,0.258,0.071c0.003,0,0.007,0,0.011,0    c0.297,0.012,0.509-0.222,0.509-0.5c0-0.162-0.076-0.306-0.195-0.397L41.957,35.995z M42.436,38.622    c-0.131-0.078-0.291-0.092-0.432-0.04c-0.143,0.053-0.254,0.168-0.301,0.312l-0.188,0.569l-1.321-1.354l0.646,0.239    c0.128,0.046,0.266,0.042,0.387-0.017c0.122-0.057,0.215-0.16,0.259-0.287l0.25-0.715l1.293,1.646L42.436,38.622z"/><path d="M54.649,37.519c0.148-0.094,0.237-0.257,0.234-0.432l-0.074-4.936c-0.004-0.233-0.169-0.434-0.397-0.481    c-0.228-0.048-0.46,0.068-0.558,0.281l-0.996,2.185l-1.048-0.501c-0.165-0.078-0.359-0.061-0.508,0.045    c-0.148,0.107-0.227,0.286-0.204,0.468l0.702,5.678c0.029,0.239,0.226,0.423,0.467,0.438c0.01,0.001,0.02,0.001,0.029,0.001    c0.229,0,0.431-0.156,0.485-0.381l0.665-2.697l0.713,0.356C54.316,37.62,54.502,37.611,54.649,37.519z M53.335,36.011    c-0.136-0.067-0.296-0.07-0.434-0.007s-0.239,0.187-0.275,0.335l-0.166,0.672l-0.257-2.08l0.683,0.327    c0.122,0.058,0.26,0.066,0.387,0.019c0.126-0.046,0.229-0.14,0.284-0.262l0.286-0.629l0.028,1.894L53.335,36.011z"/><path d="M62.135,36.599c-0.126-0.196-0.369-0.279-0.593-0.196l-2.252,0.833l-0.383-1.097c-0.06-0.172-0.209-0.298-0.39-0.328    c-0.18-0.032-0.362,0.041-0.476,0.185l-3.533,4.5c-0.148,0.189-0.141,0.459,0.019,0.64c0.098,0.11,0.235,0.169,0.375,0.169    c0.089,0,0.178-0.023,0.258-0.071l2.382-1.431l0.25,0.757c0.055,0.166,0.191,0.291,0.361,0.331c0.176,0.04,0.35-0.013,0.471-0.138    l3.449-3.531C62.237,37.053,62.263,36.795,62.135,36.599z M58.484,39.464l-0.188-0.569c-0.047-0.145-0.158-0.26-0.301-0.312    c-0.056-0.021-0.115-0.031-0.174-0.031c-0.09,0-0.179,0.024-0.258,0.071l-0.592,0.355l1.293-1.646l0.25,0.715    c0.044,0.127,0.137,0.23,0.259,0.287c0.12,0.058,0.259,0.062,0.387,0.017l0.646-0.239L58.484,39.464z"/><path d="M36.124,23.682h27.375c0.276,0,0.5-0.224,0.5-0.5s-0.224-0.5-0.5-0.5H36.124c-0.276,0-0.5,0.224-0.5,0.5    S35.848,23.682,36.124,23.682z"/><path d="M63.688,75.683H36.312c-0.276,0-0.5,0.224-0.5,0.5s0.224,0.5,0.5,0.5h27.375c0.276,0,0.5-0.224,0.5-0.5    S63.964,75.683,63.688,75.683z"/></g></g><text x="0" y="115" fill="#000000" font-size="5px" font-weight="bold" font-family="'Helvetica Neue', Helvetica, Arial-Unicode, Arial, Sans-serif">Created by Lea Lafleur</text><text x="0" y="120" fill="#000000" font-size="5px" font-weight="bold" font-family="'Helvetica Neue', Helvetica, Arial-Unicode, Arial, Sans-serif">from the Noun Project</text></svg>