<svg xmlns="http://www.w3.org/2000/svg" xmlns:xlink="http://www.w3.org/1999/xlink" version="1.1" x="0px" y="0px" viewBox="0 0 100 125" enable-background="new 0 0 100 100" xml:space="preserve"><g><g><path d="M84.683,52.163L56.12,20.79c-0.01-0.019-0.03-0.029-0.043-0.047l-0.044-0.049c-0.002-0.002-0.003-0.002-0.005-0.004    c-0.025-0.026-0.043-0.06-0.074-0.079l-4.342-4.603c-0.445-0.425-0.938-0.641-1.468-0.641c-0.866,0-1.471,0.583-1.545,0.659    l-4.397,4.661c-0.001,0.001-0.001,0.001-0.001,0.002c-0.002,0.002-0.004,0.002-0.006,0.004L15.546,52.163    c-0.084,0.093-0.131,0.214-0.13,0.339l0.142,31.128c0.001,0.275,0.225,0.498,0.5,0.498h68.113c0.275,0,0.499-0.223,0.5-0.498    l0.142-31.128C84.813,52.377,84.767,52.256,84.683,52.163z M50.066,21.531h0.041c0.086,0.005,0.197,0.009,0.325,0.012v61.585    h-0.637V21.542C49.905,21.539,49.999,21.535,50.066,21.531z M49.315,16.725c0.003-0.003,0.371-0.356,0.829-0.356    c0.267,0,0.521,0.119,0.759,0.345l3.601,3.818h-8.779L49.315,16.725z M16.417,52.692l28.367-31.158    c0.654,0.007,2.634,0.027,4.012,0.021v61.572h-32.24L16.417,52.692z M83.812,52.692l-0.139,30.436h-32.24V21.555    c1.403,0.007,3.354-0.014,4.012-0.021"/><path d="M52.498,55.44c-0.084,0.106-0.121,0.242-0.103,0.377"/></g></g><text x="0" y="115" fill="#000000" font-size="5px" font-weight="bold" font-family="'Helvetica Neue', Helvetica, Arial-Unicode, Arial, Sans-serif">Created by Lea Lafleur</text><text x="0" y="120" fill="#000000" font-size="5px" font-weight="bold" font-family="'Helvetica Neue', Helvetica, Arial-Unicode, Arial, Sans-serif">from the Noun Project</text></svg>