<svg xmlns="http://www.w3.org/2000/svg" xmlns:xlink="http://www.w3.org/1999/xlink" version="1.1" x="0px" y="0px" viewBox="0 0 100 125" enable-background="new 0 0 100 100" xml:space="preserve"><g><g><path d="M62.513,82.857V76.1c0-0.028-0.012-0.054-0.017-0.081c-0.003-0.021-0.006-0.04-0.012-0.061    c-0.026-0.086-0.068-0.162-0.133-0.222c-0.002-0.002-0.002-0.006-0.005-0.009c-0.024-0.022-0.492-0.438-1.324-1.013    c4.888-2.596,3.876-7.864,3.871-7.877L62.72,47.122c-0.007-0.033-0.017-0.062-0.024-0.093c0.028-0.021,0.061-0.034,0.084-0.062    c0.084-0.095,2.043-2.39,0.474-8.11c-0.009-0.022-0.834-2.258-0.098-6.261c0.099-0.401,2.376-9.877-1.714-15.33    c-0.157-0.218-3.92-5.298-11.166-5.368c-0.012,0-0.021-0.006-0.032-0.006c-0.02,0-0.038,0.002-0.058,0.003    c-0.02-0.001-0.038-0.003-0.058-0.003c-0.011,0-0.021,0.006-0.032,0.006c-7.246,0.07-11.008,5.15-11.16,5.361    c-4.096,5.46-1.818,14.936-1.727,15.308c0.743,4.032-0.082,6.268-0.106,6.338c-1.353,4.939,0.223,7.741,0.713,8.456l-2.139,19.433    c-0.011,0.055-0.998,5.288,4.007,7.967c-0.791,0.551-1.232,0.946-1.256,0.968c-0.002,0.002-0.002,0.006-0.004,0.008    c-0.064,0.06-0.107,0.137-0.133,0.223c-0.006,0.021-0.009,0.039-0.012,0.061c-0.005,0.027-0.017,0.052-0.017,0.08v6.758    c-1.239,0.041-2.237,1.055-2.237,2.305c0,1.275,1.037,2.312,2.312,2.312h24.1c1.275,0,2.312-1.037,2.312-2.312    C64.75,83.912,63.753,82.898,62.513,82.857z M61.513,77.226h-22.25V76.6h22.25V77.226z M39.263,78.226h22.25v4.624h-22.25V78.226z     M38.187,32.356c-0.022-0.094-2.265-9.412,1.554-14.504c0.035-0.05,3.644-4.929,10.445-4.957    c6.781,0.028,10.409,4.908,10.45,4.964c3.81,5.079,1.571,14.404,1.542,14.526c-0.799,4.34,0.104,6.733,0.126,6.783    c1.036,3.784,0.39,5.874-0.018,6.707c-1.003-1.953-3.072-2.199-4.026-2.199c-0.422,0-0.709,0.042-0.771,0.052    c-0.006-0.001-0.011-0.004-0.017-0.004h-0.227v-3.188c0-0.147-0.065-0.287-0.178-0.383c-0.066-0.056-1.458-1.186-4.91-1.521    v-0.472h3.606c0.205,0,0.39-0.125,0.465-0.315s0.027-0.408-0.122-0.549c-0.747-0.703-1.63-1.149-2.48-1.438    c0-0.004,0.002-0.008,0.002-0.012v-1.936c0-0.04-0.005-0.08-0.015-0.119c-0.197-0.802-1.155-2.318-3.371-2.318    s-3.175,1.517-3.372,2.318c-0.01,0.039-0.014,0.079-0.014,0.119v2.071c-0.749,0.29-1.506,0.7-2.158,1.314    c-0.149,0.141-0.197,0.358-0.122,0.549s0.26,0.315,0.465,0.315h3.372v0.462c-3.518,0.324-4.93,1.474-4.996,1.53    c-0.113,0.096-0.178,0.235-0.178,0.383v3.188h-0.189c-0.098-0.014-0.367-0.048-0.748-0.048c-0.971,0-3.096,0.253-4.082,2.329    c-0.504-1.155-1.09-3.42-0.17-6.787C38.09,39.119,38.992,36.726,38.187,32.356z M59.9,64.975l-0.085,0.001    c-0.074-0.012-0.735-0.105-1.203,0.274c-0.178,0.145-0.394,0.412-0.416,0.868c-0.002,0.041,0.001,0.085,0.01,0.126    c0.035,0.173,0.084,0.728-0.144,0.998c-0.026,0.032-0.094,0.106-0.245,0.152c-0.193-0.346-0.548-0.589-0.971-0.589h-0.045    c1.304-1.255,1.461-3.507,1.461-5.667c0-2.121-0.004-4.431-1.259-5.697c0.544-0.08,0.969-0.529,0.969-1.095    c0-0.621-0.505-1.126-1.126-1.126h-0.66v-4.246h1.627c0.142,0,0.272-0.033,0.399-0.074L59.9,64.975z M60.147,67.33    c0.159,3.234-2.774,4.331-4.628,4.701c-0.044-0.014-0.088-0.022-0.133-0.036c0.087-0.728,0.118-1.891-0.484-2.393v-0.545h1.944    c0.454,0,0.842-0.273,1.02-0.662c0.486-0.08,0.794-0.308,0.967-0.516c0.504-0.607,0.413-1.479,0.366-1.761    c0.011-0.065,0.033-0.084,0.042-0.092c0.084-0.068,0.298-0.08,0.495-0.058h0.269L60.147,67.33z M50.243,32.475    c1.794,0,2.299,1.243,2.386,1.509v1.604c-0.932-0.201-1.729-0.239-2.104-0.239l-0.104,0.002l-0.141-0.002    c-0.418,0-1.354,0.039-2.424,0.31v-1.673C47.947,33.711,48.454,32.475,50.243,32.475z M50.281,36.348l0.141,0.002l0.104-0.002    c0.403,0,2.103,0.049,3.638,0.814h-7.52C48.178,36.396,49.878,36.348,50.281,36.348z M51.158,38.162v0.4    c-0.253-0.012-0.513-0.02-0.785-0.022c-0.019-0.002-0.038-0.003-0.058-0.003h-0.145c-0.02,0-0.039,0.001-0.058,0.003    c-0.242,0.002-0.473,0.011-0.699,0.02v-0.397H51.158z M50.174,39.54c0.017,0,0.032-0.001,0.048-0.003c0.013,0,0.026,0,0.041,0    c0.017,0.002,0.032,0.003,0.05,0.003c3.606,0.023,5.397,0.928,5.934,1.259v2.926H44.24V40.8    C44.78,40.466,46.57,39.563,50.174,39.54z M58.042,47.849c0,0.044-0.087,0.126-0.229,0.126h-2.127H45.009h-2.321    c-0.131,0-0.205-0.067-0.219-0.113c0.033-0.053,0.184-0.139,0.545-0.139H57.55c0.233,0,0.374,0.037,0.459,0.083    C58.021,47.82,58.042,47.837,58.042,47.849z M54.402,68.058h-4.015h-0.04h-4.015H43.85c-0.07,0-0.127-0.057-0.127-0.126    s0.057-0.126,0.127-0.126H47h6.916h2.931c0.069,0,0.126,0.057,0.126,0.126s-0.057,0.126-0.126,0.126H54.402z M45.639,66.6    c-1.308-0.459-1.936-1.734-2.086-4.164l5.601,2.559L45.639,66.6z M50.357,65.545l2.761,1.261h-5.521L50.357,65.545z     M55.121,66.621l-3.56-1.627l5.674-2.593C57.125,64.723,56.616,66.154,55.121,66.621z M57.26,61.29l-6.902,3.154l-6.842-3.126    c0-0.062-0.002-0.117-0.002-0.18c0-3.525,0.206-5.666,3.068-5.666h7.667c2.717,0,3.014,1.814,3.014,5.666    C57.263,61.192,57.26,61.237,57.26,61.29z M56.847,54.473h-2.598h-7.667H43.85c-0.07,0-0.127-0.057-0.127-0.126    s0.057-0.126,0.127-0.126h1.159h10.678h1.16c0.069,0,0.126,0.057,0.126,0.126S56.916,54.473,56.847,54.473z M55.187,53.221h-9.678    v-4.246h9.678V53.221z M43.514,44.725h0.227h13.006h0.227v1.998H43.514V44.725z M42.348,48.912c0.11,0.029,0.22,0.062,0.34,0.062    h1.821v4.246H43.85c-0.621,0-1.127,0.505-1.127,1.126c0,0.604,0.48,1.088,1.076,1.116c-1.283,1.3-1.285,3.654-1.285,5.676    c0,0.154,0.002,0.31,0.005,0.464c-0.001,0.019,0,0.036,0.001,0.056c0.039,2.024,0.342,4.003,1.568,5.147H43.85    c-0.422,0-0.777,0.243-0.97,0.587c-0.146-0.046-0.221-0.119-0.247-0.15c-0.227-0.271-0.178-0.825-0.143-0.996    c0.008-0.042,0.012-0.085,0.01-0.128c-0.023-0.457-0.239-0.724-0.417-0.868c-0.468-0.378-1.13-0.285-1.124-0.28h-0.295    L42.348,48.912z M40.561,65.967l0.477-0.003c0.082-0.014,0.322-0.014,0.416,0.063c0.01,0.008,0.033,0.026,0.043,0.093    c-0.047,0.281-0.138,1.152,0.365,1.759c0.174,0.208,0.481,0.437,0.968,0.517c0.178,0.389,0.565,0.662,1.021,0.662h1.983v0.544    c-0.604,0.505-0.571,1.677-0.482,2.404c-0.04,0.012-0.079,0.02-0.118,0.032c-1.924-0.388-4.973-1.509-4.818-4.681L40.561,65.967z     M46.33,71.737c-0.061-0.69,0.01-1.283,0.146-1.368c0.211-0.063,0.356-0.258,0.356-0.479v-0.833h3.515h0.04h3.515v0.833    c0,0.221,0.144,0.415,0.355,0.479c0.137,0.085,0.207,0.672,0.148,1.358C51.705,71.067,49.033,71.07,46.33,71.737z M36.664,66.947    l2.159-19.624c0.447-2.188,2.14-2.646,3.479-2.646c0.076,0,0.146,0.001,0.211,0.004v2.074c-0.462,0.063-0.834,0.348-0.979,0.744    c-0.066,0.167-0.076,0.297-0.074,0.298l-2.043,19.484c-0.145,2.938,1.951,5.039,5.75,5.764c0.082,0.016,0.166,0.01,0.246-0.015    c3.336-1.068,6.591-1.068,9.925-0.008c0.078,0.025,0.162,0.029,0.243,0.015c3.683-0.689,5.71-2.788,5.562-5.783l-2.039-19.393    c0.002-0.065-0.005-0.408-0.301-0.712c-0.03-0.031-0.074-0.051-0.108-0.079c-0.027-0.025-0.062-0.043-0.093-0.066    c-0.057-0.038-0.11-0.079-0.176-0.109c-0.116-0.062-0.24-0.103-0.377-0.128v-2.086c0.064-0.003,0.135-0.004,0.21-0.004    c1.341,0,3.033,0.459,3.473,2.601l2.174,19.716c0.043,0.206,0.979,5.088-4.096,7.188c-0.173,0.071-0.291,0.233-0.307,0.42    s0.074,0.366,0.232,0.466c0.301,0.188,0.57,0.368,0.807,0.533H40.23c0.215-0.151,0.46-0.315,0.73-0.486    c0.157-0.1,0.246-0.278,0.231-0.463c-0.015-0.186-0.132-0.348-0.303-0.42C35.729,72.035,36.617,67.195,36.664,66.947z     M62.438,86.475h-24.1c-0.724,0-1.312-0.589-1.312-1.312s0.589-1.312,1.312-1.312h0.425h23.25h0.425    c0.724,0,1.312,0.589,1.312,1.312S63.161,86.475,62.438,86.475z"/><path d="M50.388,75.245c1.368,0,2.75-0.412,2.75-1.333c0-1.842-5.499-1.842-5.499,0C47.639,74.833,49.02,75.245,50.388,75.245z     M50.388,73.579c0.866,0,1.453,0.189,1.679,0.333c-0.226,0.144-0.812,0.333-1.679,0.333s-1.452-0.189-1.678-0.333    C48.936,73.769,49.521,73.579,50.388,73.579z"/><circle cx="50.348" cy="51.098" r="0.5"/><circle cx="48.441" cy="51.098" r="0.5"/><circle cx="46.535" cy="51.098" r="0.5"/><circle cx="54.16" cy="51.098" r="0.5"/><circle cx="52.254" cy="51.098" r="0.5"/></g></g><text x="0" y="115" fill="#000000" font-size="5px" font-weight="bold" font-family="'Helvetica Neue', Helvetica, Arial-Unicode, Arial, Sans-serif">Created by Lea Lafleur</text><text x="0" y="120" fill="#000000" font-size="5px" font-weight="bold" font-family="'Helvetica Neue', Helvetica, Arial-Unicode, Arial, Sans-serif">from the Noun Project</text></svg>