<svg xmlns="http://www.w3.org/2000/svg" xmlns:xlink="http://www.w3.org/1999/xlink" version="1.1" x="0px" y="0px" viewBox="0 0 100 125" enable-background="new 0 0 100 100" xml:space="preserve"><g><g><path d="M68.37,50.063c0-10.401-8.462-18.864-18.864-18.864c-10.401,0-18.863,8.463-18.863,18.864s8.462,18.863,18.863,18.863    C59.908,68.927,68.37,60.465,68.37,50.063z M49.506,67.927c-9.85,0-17.863-8.014-17.863-17.863    c0-9.851,8.013-17.864,17.863-17.864c9.85,0,17.864,8.014,17.864,17.864C67.37,59.913,59.356,67.927,49.506,67.927z"/><path d="M74.138,63.646l-4.278-3.422c1.534-3.061,2.403-6.511,2.403-10.161c0-12.548-10.208-22.757-22.756-22.757    c-12.548,0-22.756,10.209-22.756,22.757s10.208,22.756,22.756,22.756c5.099,0,9.811-1.686,13.609-4.528l4.456,3.564    c0.777,0.622,1.753,0.965,2.746,0.965c1.346,0,2.599-0.603,3.438-1.651l1.069-1.338C76.34,67.937,76.031,65.162,74.138,63.646z     M27.75,50.063c0-11.997,9.76-21.757,21.756-21.757s21.756,9.76,21.756,21.757c0,3.703-0.933,7.192-2.571,10.248l-0.891,1.504    c-0.107,0.167-0.214,0.334-0.326,0.498l-1.162,1.551c-0.125,0.151-0.257,0.299-0.386,0.447l-0.951,1.031    c-0.149,0.151-0.304,0.298-0.457,0.445l-1.487,1.298c-3.717,2.959-8.416,4.733-13.525,4.733    C37.51,71.819,27.75,62.06,27.75,50.063z M74.044,69.206l-1.069,1.338c-1.134,1.417-3.354,1.672-4.778,0.53l-4.273-3.418    c0.446-0.366,0.874-0.752,1.29-1.149l0.243-0.213l0.182-0.196c0.37-0.373,0.725-0.762,1.069-1.16l0.253-0.274l0.098-0.13    c0.456-0.553,0.887-1.128,1.29-1.723l0.105-0.141l0.16-0.27c0.27-0.416,0.527-0.841,0.771-1.275l4.129,3.303    C74.977,65.599,75.215,67.742,74.044,69.206z"/></g></g><text x="0" y="115" fill="#000000" font-size="5px" font-weight="bold" font-family="'Helvetica Neue', Helvetica, Arial-Unicode, Arial, Sans-serif">Created by Lea Lafleur</text><text x="0" y="120" fill="#000000" font-size="5px" font-weight="bold" font-family="'Helvetica Neue', Helvetica, Arial-Unicode, Arial, Sans-serif">from the Noun Project</text></svg>