<svg xmlns="http://www.w3.org/2000/svg" xmlns:xlink="http://www.w3.org/1999/xlink" version="1.1" x="0px" y="0px" viewBox="0 0 100 125" enable-background="new 0 0 100 100" xml:space="preserve"><g><g><path d="M52.067,49.869c0-0.235-0.191-0.427-0.427-0.427h-3.609c-0.235,0-0.427,0.191-0.427,0.427v2.727    c0,0.235,0.191,0.427,0.427,0.427h3.609c0.235,0,0.427-0.191,0.427-0.427V49.869z M51.214,52.169h-2.756v-1.873h2.756V52.169z"/><path d="M35.338,78.198h29.062c0.276,0,0.5-0.224,0.5-0.5V66.743c0-0.276-0.224-0.5-0.5-0.5H35.338c-0.276,0-0.5,0.224-0.5,0.5    v10.955C34.838,77.975,35.062,78.198,35.338,78.198z M35.838,67.243h28.062v9.955H35.838V67.243z"/><path d="M62.636,67.829H60c-0.276,0-0.5,0.224-0.5,0.5v7.783c0,0.276,0.224,0.5,0.5,0.5h2.636c0.276,0,0.5-0.224,0.5-0.5v-7.783    C63.136,68.053,62.912,67.829,62.636,67.829z M62.136,75.612H60.5v-6.783h1.636V75.612z"/><path d="M53.656,67.829h-2.936c-0.276,0-0.5,0.224-0.5,0.5v7.783c0,0.276,0.224,0.5,0.5,0.5h2.936c0.276,0,0.5-0.224,0.5-0.5    v-7.783C54.156,68.053,53.933,67.829,53.656,67.829z M53.156,75.612h-1.936v-6.783h1.936V75.612z"/><path d="M39.736,67.829h-2.694c-0.276,0-0.5,0.224-0.5,0.5v7.783c0,0.276,0.224,0.5,0.5,0.5h2.694c0.276,0,0.5-0.224,0.5-0.5    v-7.783C40.236,68.053,40.013,67.829,39.736,67.829z M39.236,75.612h-1.694v-6.783h1.694V75.612z"/><path d="M49.017,67.829h-2.936c-0.276,0-0.5,0.224-0.5,0.5v7.783c0,0.276,0.224,0.5,0.5,0.5h2.936c0.276,0,0.5-0.224,0.5-0.5    v-7.783C49.517,68.053,49.293,67.829,49.017,67.829z M48.517,75.612h-1.936v-6.783h1.936V75.612z"/><path d="M44.376,67.829H41.44c-0.276,0-0.5,0.224-0.5,0.5v7.783c0,0.276,0.224,0.5,0.5,0.5h2.936c0.276,0,0.5-0.224,0.5-0.5    v-7.783C44.876,68.053,44.652,67.829,44.376,67.829z M43.876,75.612H41.94v-6.783h1.936V75.612z"/><path d="M58.296,67.829h-2.935c-0.276,0-0.5,0.224-0.5,0.5v7.783c0,0.276,0.224,0.5,0.5,0.5h2.935c0.276,0,0.5-0.224,0.5-0.5    v-7.783C58.796,68.053,58.572,67.829,58.296,67.829z M57.796,75.612h-1.935v-6.783h1.935V75.612z"/><path d="M65.827,64.85H33.91c-0.276,0-0.5,0.224-0.5,0.5v13.742c0,0.276,0.224,0.5,0.5,0.5h31.917c0.276,0,0.5-0.224,0.5-0.5    V65.35C66.327,65.073,66.104,64.85,65.827,64.85z M65.327,78.592H34.41V65.85h30.917V78.592z"/><path d="M44.727,56.457c0.025,0.004,0.051,0.006,0.076,0.006c0.118,0,0.234-0.042,0.325-0.12c0.111-0.096,0.175-0.234,0.175-0.38    v-11.35c0-0.276-0.224-0.5-0.5-0.5H31.292c-0.273,0-0.496,0.22-0.5,0.492C30.791,44.703,30.811,54.307,44.727,56.457z     M44.303,45.113v10.261c-10.855-1.892-12.295-8.393-12.482-10.261H44.303z"/><path d="M68.881,44.605c-0.004-0.272-0.227-0.492-0.5-0.492h-13.51c-0.276,0-0.5,0.224-0.5,0.5v11.35    c0,0.146,0.063,0.284,0.175,0.38c0.091,0.078,0.207,0.12,0.325,0.12c0.025,0,0.051-0.002,0.076-0.006    C68.863,54.307,68.882,44.703,68.881,44.605z M55.371,55.374V45.113h12.482C67.665,46.981,66.227,53.482,55.371,55.374z"/><path d="M73.932,53.772c0.831-0.061,1.459-0.785,1.399-1.617l-0.591-8.137c-0.057-0.786-0.719-1.402-1.507-1.402    c-0.012,0-0.1,0.003-0.111,0.004c-0.17,0.013-0.331,0.058-0.483,0.123l-0.016-0.233c-0.019-0.276-0.274-0.485-0.532-0.466    c-0.001,0-0.002,0.001-0.003,0.001c-0.003,0-0.006-0.002-0.009-0.002h-5.837L52.388,11.001c-0.081-0.18-0.26-0.296-0.457-0.296    h-4.804h-0.001c-0.092,0-0.178,0.029-0.254,0.075c-0.025,0.015-0.041,0.039-0.063,0.059c-0.035,0.03-0.075,0.054-0.102,0.094    c-0.008,0.013-0.007,0.027-0.014,0.04c-0.006,0.011-0.019,0.016-0.023,0.027L32.678,42.043H27.94    c-0.037,0-0.069,0.013-0.104,0.021c-0.023,0.005-0.047,0.006-0.068,0.014c-0.041,0.015-0.074,0.039-0.109,0.062    c-0.018,0.013-0.038,0.021-0.055,0.036c-0.026,0.025-0.045,0.056-0.066,0.086c-0.017,0.022-0.035,0.043-0.047,0.068    c-0.015,0.03-0.02,0.065-0.027,0.099c-0.007,0.027-0.021,0.052-0.022,0.08l-0.005,0.078c-0.163-0.075-0.339-0.125-0.522-0.139    c-0.013-0.001-0.101-0.004-0.112-0.004c-0.788,0-1.45,0.616-1.507,1.403l-0.591,8.137c-0.06,0.831,0.568,1.556,1.397,1.616    c0.013,0.001,0.103,0.004,0.115,0.004c0.163,0,0.317-0.032,0.465-0.081l-1.609,23.346c-0.002,0.108-0.021,2.668,2.056,4.782    c1.752,1.781,4.423,2.685,7.939,2.685h15.214h14.872c3.403,0,5.999-0.885,7.715-2.63c2.088-2.124,2.068-4.727,2.065-4.861    l-1.558-23.143c0.142,0.044,0.289,0.074,0.444,0.074C73.832,53.776,73.919,53.773,73.932,53.772z M26.217,52.604v0.5l-0.041-0.502    c-0.281-0.02-0.494-0.265-0.474-0.546l0.591-8.137c0.019-0.266,0.241-0.474,0.545-0.474c0.001,0,0.002,0,0.003,0    c0.136,0.01,0.26,0.071,0.35,0.175c0.089,0.104,0.133,0.235,0.122,0.372l-0.591,8.138C26.703,52.396,26.48,52.604,26.217,52.604z     M33.001,43.043h5.186h9.012v5.115h-0.444c-0.276,0-0.5,0.224-0.5,0.5v5.117c0,0.276,0.224,0.5,0.5,0.5h0.448l0.006,0.682    c-0.002,0.017-0.01,0.031-0.01,0.049l0.018,3.596c-5.693-0.353-18.705-3.683-18.779-15.559H33.001z M60.279,42.043H38.951    l10.582-24.188L60.279,42.043z M51.474,43.043v1.57c0,0.002,0.001,0.003,0.001,0.005v3.54h-3.276v-5.115H51.474z M47.698,53.275    h-0.444v-4.117h0.444h4.275l0,0c0.001,0,0.001,0,0.001,0h0.444v4.117h-0.445H47.698z M48.198,59.921    c0.01-0.039,0.023-0.076,0.023-0.118l-0.016-3.163c0.005-0.026,0.016-0.051,0.016-0.079l-0.02-2.285h3.271V55v1.794v2.328    l-0.021,3.059c-0.001,0.222-0.084,1.329-1.598,1.329c-0.913,0-1.656-0.583-1.656-1.3V59.921z M52.474,56.794V55v-0.725h0.445    c0.276,0,0.5-0.224,0.5-0.5v-5.117c0-0.276-0.224-0.5-0.5-0.5h-0.444v-5.115h8.574h4.869h0.02h5.64    c-0.103,5.292-2.729,9.419-7.812,12.271c-3.883,2.18-8.378,3.111-11.291,3.279V56.794z M51.606,11.705l13.541,30.338h-3.773    L47.896,11.705H51.606z M47.122,12.43l1.86,4.189L37.859,42.043h-4.085L47.122,12.43z M72.155,81.005    c-1.521,1.547-3.877,2.331-7.002,2.331H50.281H35.067c-3.229,0-5.656-0.799-7.213-2.373c-1.785-1.806-1.782-4.051-1.783-4.051    l2.03-29.433c2.811,9.083,13.901,11.81,19.097,12.123v2.607c0,1.29,1.167,2.3,2.656,2.3c0.817,0,1.467-0.237,1.93-0.706    c0.66-0.668,0.669-1.534,0.668-1.621l0.019-2.578c3.026-0.171,7.736-1.146,11.784-3.418c3.961-2.223,6.554-5.294,7.68-9.016    l2,29.716C73.935,76.909,73.952,79.177,72.155,81.005z M73.313,52.303l-0.431-5.938l-0.152-2.265    c0.005-0.112,0.039-0.221,0.114-0.308c0.09-0.104,0.214-0.165,0.389-0.177c0.267,0,0.49,0.208,0.509,0.475l0.591,8.137    c0.021,0.281-0.192,0.527-0.475,0.547l-0.038,0.502v-0.5C73.555,52.776,73.332,52.568,73.313,52.303z"/></g></g><text x="0" y="115" fill="#000000" font-size="5px" font-weight="bold" font-family="'Helvetica Neue', Helvetica, Arial-Unicode, Arial, Sans-serif">Created by Lea Lafleur</text><text x="0" y="120" fill="#000000" font-size="5px" font-weight="bold" font-family="'Helvetica Neue', Helvetica, Arial-Unicode, Arial, Sans-serif">from the Noun Project</text></svg>