<svg xmlns="http://www.w3.org/2000/svg" xmlns:xlink="http://www.w3.org/1999/xlink" version="1.1" x="0px" y="0px" viewBox="0 0 100 125" enable-background="new 0 0 100 100" xml:space="preserve"><g><circle fill="none" stroke="#000000" stroke-miterlimit="10" cx="35.751" cy="80.417" r="3.583"/><circle fill="none" stroke="#000000" stroke-miterlimit="10" cx="75.476" cy="80.417" r="3.583"/><line fill="none" stroke="#000000" stroke-linecap="round" stroke-linejoin="round" stroke-miterlimit="10" x1="39.334" y1="80.417" x2="71.893" y2="80.417"/><polyline fill="none" stroke="#000000" stroke-linecap="round" stroke-linejoin="round" stroke-miterlimit="10" points="   26.312,70.825 28.5,66.5 40.5,66.5 40.5,70.825  "/><line fill="none" stroke="#000000" stroke-linecap="round" stroke-linejoin="round" stroke-miterlimit="10" x1="28.562" y1="70.825" x2="30.75" y2="66.5"/><polyline fill="none" stroke="#000000" stroke-linecap="round" stroke-linejoin="round" stroke-miterlimit="10" points="   42.5,70.825 42.5,66.5 50.865,66.5 50.865,70.834  "/><polyline fill="none" stroke="#000000" stroke-linecap="round" stroke-linejoin="round" stroke-miterlimit="10" points="   52.906,70.825 52.906,66.5 58.594,66.5 62.344,70.825  "/><polyline fill="none" stroke="#000000" stroke-linecap="round" stroke-linejoin="round" stroke-miterlimit="10" points="   65.75,70.825 66.5,69.312 68.312,69.312 69.062,70.834  "/><path fill="none" stroke="#000000" stroke-linecap="round" stroke-linejoin="round" stroke-miterlimit="10" d="M54.25,64.667   v-2.042c0,0,1.312-1.188,2.812,0v2.042"/><polyline fill="none" stroke="#000000" stroke-linecap="round" stroke-linejoin="round" stroke-miterlimit="10" points="   57.062,62.938 59.438,62.938 59.5,64.667  "/><polyline fill="none" stroke="#000000" stroke-linecap="round" stroke-linejoin="round" stroke-miterlimit="10" points="   16.062,75.834 19.333,80.417 32.167,80.417  "/><polyline fill="none" stroke="#000000" stroke-linecap="round" stroke-linejoin="round" stroke-miterlimit="10" points="   79.059,80.417 81.167,80.417 85.334,75.834 16.062,75.834 16.062,73.333 20.667,70.834 24.167,64.667 59.5,64.667 65,70.825  "/><polyline fill="none" stroke="#000000" stroke-linecap="round" stroke-linejoin="round" stroke-miterlimit="10" points="   20.667,70.834 85.334,70.834 85.334,75.834  "/><circle fill="none" stroke="#000000" stroke-linecap="round" stroke-linejoin="round" stroke-miterlimit="10" cx="35.751" cy="80.417" r="1.312"/><circle fill="none" stroke="#000000" stroke-linecap="round" stroke-linejoin="round" stroke-miterlimit="10" cx="75.476" cy="80.417" r="1.312"/><polyline fill="none" stroke="#000000" stroke-linecap="round" stroke-linejoin="round" stroke-miterlimit="10" points="   16.925,77.042 16.062,77.042 16.062,78.501 17.966,78.501  "/><line fill="none" stroke="#000000" stroke-linecap="round" stroke-linejoin="round" stroke-miterlimit="10" x1="54.25" y1="73.334" x2="65.75" y2="73.334"/></g><text x="0" y="115" fill="#000000" font-size="5px" font-weight="bold" font-family="'Helvetica Neue', Helvetica, Arial-Unicode, Arial, Sans-serif">Created by Lea Lafleur</text><text x="0" y="120" fill="#000000" font-size="5px" font-weight="bold" font-family="'Helvetica Neue', Helvetica, Arial-Unicode, Arial, Sans-serif">from the Noun Project</text></svg>