<svg xmlns="http://www.w3.org/2000/svg" xmlns:xlink="http://www.w3.org/1999/xlink" version="1.1" x="0px" y="0px" viewBox="0 0 100 125" enable-background="new 0 0 100 100" xml:space="preserve"><g><g><path d="M22.109,52.2h4.954c0.276,0,0.5-0.224,0.5-0.5v-4.955c0-0.276-0.224-0.5-0.5-0.5h-4.954c-0.276,0-0.5,0.224-0.5,0.5V51.7    C21.609,51.977,21.833,52.2,22.109,52.2z M22.609,47.245h3.954V51.2h-3.954V47.245z"/><path d="M84.062,26.807h-0.258h-2.736H60.584v-1.582h1.409c0.276,0,0.5-0.225,0.5-0.501c0-6.962-5.663-12.625-12.625-12.625    s-12.625,5.664-12.625,12.626c0,0.133,0.053,0.26,0.146,0.354s0.221,0.146,0.354,0.146h1.174v1.582H18.666h-2.604    c-0.068,0-0.135,0.014-0.194,0.039c-0.013,0.006-0.022,0.018-0.035,0.023c-0.045,0.024-0.09,0.051-0.126,0.087    c-0.001,0.001-0.003,0.002-0.004,0.003c-0.016,0.016-0.021,0.037-0.034,0.054c-0.025,0.034-0.052,0.066-0.068,0.106    c-0.012,0.03-0.014,0.062-0.02,0.095c-0.006,0.029-0.019,0.058-0.019,0.089l-0.39,48.029c0,4.965,4.039,9.004,9.004,9.004h51.382    c4.965,0,9.004-4.039,9.004-9.004V27.307C84.562,27.03,84.339,26.807,84.062,26.807z M83.251,27.807    c-0.626,5.672-2.455,10.046-5.418,13.064v-3.052c2.741-3.93,3.506-8.55,3.686-10.013H83.251z M76.833,55.485    c0,0.464-0.188,0.886-0.493,1.19c-0.094,0.037-0.168,0.104-0.224,0.186c-0.275,0.194-0.608,0.312-0.971,0.312    c-0.358,0-0.688-0.114-0.962-0.305c-0.058-0.088-0.137-0.159-0.236-0.197c-0.302-0.305-0.489-0.724-0.489-1.186v-1.933h3.375    V55.485z M22.898,41.826v-3.564c0.054-0.048,0.104-0.102,0.133-0.17c0.265-0.626,0.875-1.031,1.555-1.031    c0.931,0,1.688,0.757,1.688,1.688v2.921v2.896v0.324h-3.375V41.826z M66.78,43.639c0.099,0.095,0.233,0.149,0.369,0.137    c1.923-0.094,3.698-0.55,5.309-1.315v1.907c-2.288,0.844-4.237,0.947-4.989,0.947c-0.193,0-0.304-0.006-0.344-0.008H33.666    c-2.341,0-4.483-0.377-6.393-1.1V42.46c1.681,0.799,3.547,1.258,5.585,1.326c0.138,0.005,0.267-0.047,0.364-0.141    s0.152-0.224,0.152-0.359v-8.729h33.25v8.72C66.625,43.413,66.681,43.544,66.78,43.639z M33.417,53.667    c1.496,2.904,4.519,4.898,8.004,4.898h5.892v1.703h-1.146c-0.276,0-0.5,0.224-0.5,0.5v7.668c0,0.276,0.224,0.5,0.5,0.5h1.146    v1.933c0,1.481,1.206,2.688,2.688,2.688s2.688-1.206,2.688-2.688v-1.933h1.146c0.276,0,0.5-0.224,0.5-0.5v-7.668    c0-0.276-0.224-0.5-0.5-0.5h-1.146v-1.703h5.892c3.485,0,6.508-1.994,8.004-4.898v22.89H33.417V53.667z M48.312,68.937h3.375    v1.933c0,0.931-0.757,1.688-1.688,1.688s-1.688-0.757-1.688-1.688V68.937z M52.188,67.937h-4.375h-1.146v-6.668h1.146h4.375h1.146    v6.668H52.188z M48.312,60.269v-2.203v-2.188v-1.75c0-0.931,0.757-1.688,1.688-1.688s1.688,0.757,1.688,1.688v1.75v2.188v2.203    H48.312z M52.688,56.378h4.561c4.309,0,7.814-3.357,7.814-7.485v-2.577h1.521v3.246c0,4.413-3.591,8.004-8.004,8.004h-5.892    V56.378z M64.062,48.893c0,3.576-3.057,6.485-6.814,6.485h-4.561v-1.25c0-1.481-1.206-2.688-2.688-2.688s-2.688,1.206-2.688,2.688    v1.25h-4.824c-3.758,0-6.814-2.909-6.814-6.485v-2.586l28.389-0.001V48.893z M33.417,46.315h1.257v2.577    c0,4.128,3.506,7.485,7.814,7.485h4.824v1.188h-5.892c-4.413,0-8.004-3.591-8.004-8.004V46.315z M22.398,45.889h4.375h1.146v6.668    h-1.146h-4.375h-1.146v-6.668H22.398z M22.898,55.489v-1.933h3.375v1.933c0,0.931-0.757,1.688-1.688,1.688    S22.898,56.42,22.898,55.489z M27.273,55.489v-1.933h1.146c0.276,0,0.5-0.224,0.5-0.5v-7.292c1.107,0.266,2.278,0.427,3.497,0.495    v3.302v27.495c0,0.276,0.224,0.5,0.5,0.5h34.166c0.276,0,0.5-0.224,0.5-0.5V49.562v-3.249c0.611-0.006,1.774-0.069,3.229-0.405    v7.146c0,0.276,0.224,0.5,0.5,0.5h1.146v1.933c0,0.753,0.313,1.432,0.813,1.92v25.931H26.461V57.408    C26.961,56.92,27.273,56.241,27.273,55.489z M77.333,52.553h-4.375h-1.146v-6.668h1.146h4.375h1.146v6.668H77.333z M73.458,44.885    v-0.166v-3.053v-2.922c0-0.931,0.757-1.688,1.688-1.688c0.683,0,1.294,0.408,1.557,1.039c0.028,0.068,0.078,0.121,0.131,0.169    v3.794v2.826H73.458z M38.254,24.224c0.263-6.179,5.372-11.125,11.614-11.125s11.352,4.946,11.614,11.126h-0.898V23.14    c0-0.276-0.224-0.5-0.5-0.5s-0.5,0.224-0.5,0.5v1.084h-0.706c-0.26-4.743-4.202-8.522-9.01-8.522s-8.749,3.779-9.01,8.523h-0.941    V23.14c0-0.276-0.224-0.5-0.5-0.5s-0.5,0.224-0.5,0.5v1.084H38.254z M39.917,25.224h1.428c0.276,0,0.5-0.224,0.5-0.5    c0-4.424,3.6-8.022,8.023-8.022s8.023,3.6,8.023,8.023c0,0.276,0.224,0.5,0.5,0.5h1.192v1.582H39.917V25.224z M39.417,29.39    c0.276,0,0.5-0.224,0.5-0.5v-1.083h19.667v1.083c0,0.276,0.224,0.5,0.5,0.5s0.5-0.224,0.5-0.5v-1.083h19.924    c-0.196,1.462-0.938,5.633-3.318,9.192c-0.501-0.589-1.241-0.942-2.044-0.942c-1.481,0-2.688,1.206-2.688,2.688v2.624    c-1.454,0.764-3.076,1.225-4.833,1.374v-8.686c0-0.276-0.224-0.5-0.5-0.5h-34.25c-0.276,0-0.5,0.224-0.5,0.5v8.704    c-1.869-0.125-3.581-0.592-5.102-1.39v-2.623c0-1.481-1.206-2.688-2.688-2.688c-0.799,0-1.537,0.351-2.038,0.936    c-2.377-3.553-3.122-7.726-3.32-9.189h19.689v1.083C38.917,29.166,39.141,29.39,39.417,29.39z M18.217,27.807    c0.18,1.462,0.946,6.074,3.682,10.001v2.828c-4.261-4.503-5.135-10.97-5.3-12.829H18.217z M16.173,75.336l0.345-42.525    c0.842,2.933,2.42,6.49,5.381,9.236v2.842h-1.146c-0.276,0-0.5,0.224-0.5,0.5v7.668c0,0.276,0.224,0.5,0.5,0.5h1.146v1.933    c0,0.753,0.313,1.432,0.813,1.92v25.786C18.997,82.505,16.173,79.245,16.173,75.336z M23.712,83.312V58.019    c0.275,0.096,0.566,0.158,0.874,0.158s0.6-0.062,0.875-0.159v25.318h-1.284C24.02,83.336,23.866,83.321,23.712,83.312z     M74.271,83.336V58.015c0.275,0.096,0.566,0.158,0.874,0.158s0.6-0.062,0.875-0.159v25.299c-0.153,0.009-0.306,0.023-0.462,0.023    H74.271z M77.021,83.196V57.404c0.5-0.488,0.812-1.167,0.812-1.919v-1.933h1.146c0.276,0,0.5-0.224,0.5-0.5v-7.668    c0-0.276-0.224-0.5-0.5-0.5h-1.146v-2.601c2.769-2.483,4.685-5.965,5.729-10.378v43.426    C83.562,79.245,80.737,82.506,77.021,83.196z"/><path d="M64.562,36.057H35.438c-0.276,0-0.5,0.224-0.5,0.5v6.871c0,0.276,0.224,0.5,0.5,0.5h29.125c0.276,0,0.5-0.224,0.5-0.5    v-6.871C65.062,36.28,64.839,36.057,64.562,36.057z M64.062,42.928H35.938v-5.871h28.125V42.928z"/><path d="M52.478,61.625h-4.954c-0.276,0-0.5,0.224-0.5,0.5v4.955c0,0.276,0.224,0.5,0.5,0.5h4.954c0.276,0,0.5-0.224,0.5-0.5    v-4.955C52.978,61.849,52.754,61.625,52.478,61.625z M51.978,66.58h-3.954v-3.955h3.954V66.58z"/><path d="M77.623,46.241h-4.954c-0.276,0-0.5,0.224-0.5,0.5v4.955c0,0.276,0.224,0.5,0.5,0.5h4.954c0.276,0,0.5-0.224,0.5-0.5    v-4.955C78.123,46.465,77.899,46.241,77.623,46.241z M77.123,51.196h-3.954v-3.955h3.954V51.196z"/></g></g><text x="0" y="115" fill="#000000" font-size="5px" font-weight="bold" font-family="'Helvetica Neue', Helvetica, Arial-Unicode, Arial, Sans-serif">Created by Lea Lafleur</text><text x="0" y="120" fill="#000000" font-size="5px" font-weight="bold" font-family="'Helvetica Neue', Helvetica, Arial-Unicode, Arial, Sans-serif">from the Noun Project</text></svg>